SplineFontDB: 3.2
FontName: F35Mono-Italic
FullName: F35 Mono Italic
FamilyName: F35 Mono
Weight: Book
Copyright: Copyright 2012 The B612 Project Authors (https://github.com/polarsys/b612)
Version: 2024.3
ItalicAngle: -10
UnderlinePosition: -307
UnderlineWidth: 102
Ascent: 1638
Descent: 410
InvalidEm: 0
sfntRevision: 0x07e84ccd
LayerCount: 2
Layer: 0 1 "Back" 1
Layer: 1 1 "Fore" 0
XUID: [1021 443 1183686117 15862285]
StyleMap: 0x0001
FSType: 0
OS2Version: 3
OS2_WeightWidthSlopeOnly: 0
OS2_UseTypoMetrics: 0
CreationTime: 1511794980
ModificationTime: 1711164984
PfmFamily: 17
TTFWeight: 400
TTFWidth: 5
LineGap: 0
VLineGap: 0
Panose: 2 11 6 9 5 0 0 2 0 4
OS2TypoAscent: 1976
OS2TypoAOffset: 0
OS2TypoDescent: -512
OS2TypoDOffset: 0
OS2TypoLinegap: 0
OS2WinAscent: 2013
OS2WinAOffset: 0
OS2WinDescent: 729
OS2WinDOffset: 0
HheadAscent: 1976
HheadAOffset: 0
HheadDescent: -512
HheadDOffset: 0
OS2SubXSize: 1331
OS2SubYSize: 1433
OS2SubXOff: 0
OS2SubYOff: 286
OS2SupXSize: 1331
OS2SupYSize: 1433
OS2SupXOff: 0
OS2SupYOff: 983
OS2StrikeYSize: 102
OS2StrikeYPos: 512
OS2CapHeight: 1536
OS2XHeight: 1126
OS2FamilyClass: 2053
OS2Vendor: '    '
OS2CodePages: 20000011.81d40000
OS2UnicodeRanges: 800000af.5000e0fb.00000000.00000000
MarkAttachClasses: 1
DEI: 91125
TtTable: prep
PUSHW_1
 511
SCANCTRL
PUSHB_1
 4
SCANTYPE
EndTTInstrs
TtTable: fpgm
PUSHW_1
 0
FDEF
MPPEM
PUSHW_1
 9
LT
IF
PUSHB_2
 1
 1
INSTCTRL
EIF
PUSHW_1
 511
SCANCTRL
PUSHW_1
 68
SCVTCI
PUSHW_2
 9
 3
SDS
SDB
ENDF
PUSHW_1
 1
FDEF
DUP
DUP
RCVT
ROUND[Black]
WCVTP
PUSHB_1
 1
ADD
ENDF
PUSHW_1
 2
FDEF
PUSHW_1
 1
LOOPCALL
POP
ENDF
PUSHW_1
 3
FDEF
DUP
GC[cur]
PUSHB_1
 3
CINDEX
GC[cur]
GT
IF
SWAP
EIF
DUP
ROLL
DUP
ROLL
MD[grid]
ABS
ROLL
DUP
GC[cur]
DUP
ROUND[Grey]
SUB
ABS
PUSHB_1
 4
CINDEX
GC[cur]
DUP
ROUND[Grey]
SUB
ABS
GT
IF
SWAP
NEG
ROLL
EIF
MDAP[rnd]
DUP
PUSHB_1
 0
GTEQ
IF
ROUND[Black]
DUP
PUSHB_1
 0
EQ
IF
POP
PUSHB_1
 64
EIF
ELSE
ROUND[Black]
DUP
PUSHB_1
 0
EQ
IF
POP
PUSHB_1
 64
NEG
EIF
EIF
MSIRP[no-rp0]
ENDF
PUSHW_1
 4
FDEF
DUP

StartChar: .notdef
Encoding: 65536 -1 0
Width: 1331
GlyphClass: 1
Flags: W
LayerCount: 2
Fore
SplineSet
414.418945312 1536 m 1,0,-1
 1458.41894531 1536 l 1,1,-1
 1187.41894531 0 l 1,2,-1
 143.418945312 0 l 1,3,-1
 414.418945312 1536 l 1,0,-1
263.418945312 102 m 1,4,-1
 1103.41894531 102 l 1,5,-1
 1337.41894531 1434 l 1,6,-1
 497.418945312 1434 l 1,7,-1
 263.418945312 102 l 1,4,-1
EndSplineSet
EndChar

StartChar: exclam
Encoding: 33 33 5
Width: 1331
GlyphClass: 1
Flags: W
LayerCount: 2
Fore
SplineSet
1039.28222656 1536 m 1,0,-1
 849.282226562 461 l 1,1,-1
 641.282226562 439 l 1,2,-1
 834.282226562 1536 l 1,3,-1
 1039.28222656 1536 l 1,0,-1
560.282226562 109 m 0,4,5
 560.282226562 140 560.282226562 140 573.282226562 164 c 128,-1,6
 586.282226562 188 586.282226562 188 607.782226562 204.5 c 128,-1,7
 629.282226562 221 629.282226562 221 655.782226562 229 c 128,-1,8
 682.282226562 237 682.282226562 237 706.282226562 232 c 256,9,10
 731.282226562 228 731.282226562 228 749.782226562 216 c 128,-1,11
 768.282226562 204 768.282226562 204 780.782226562 186 c 128,-1,12
 793.282226562 168 793.282226562 168 799.782226562 148 c 128,-1,13
 806.282226562 128 806.282226562 128 808.282226562 109 c 0,14,15
 809.282226562 78 809.282226562 78 797.282226562 53 c 128,-1,16
 785.282226562 28 785.282226562 28 765.282226562 11 c 128,-1,17
 745.282226562 -6 745.282226562 -6 718.782226562 -14 c 128,-1,18
 692.282226562 -22 692.282226562 -22 663.282226562 -17 c 0,19,20
 615.282226562 -11 615.282226562 -11 587.782226562 23 c 128,-1,21
 560.282226562 57 560.282226562 57 560.282226562 109 c 0,4,5
EndSplineSet
EndChar

StartChar: quotedbl
Encoding: 34 34 6
Width: 1331
GlyphClass: 1
Flags: W
LayerCount: 2
Fore
SplineSet
871.806640625 1536 m 1,0,-1
 853.806640625 1434 l 2,1,2
 847.806640625 1395 847.806640625 1395 830.306640625 1337.5 c 128,-1,3
 812.806640625 1280 812.806640625 1280 793.806640625 1225 c 0,4,5
 771.806640625 1162 771.806640625 1162 748.806640625 1093 c 1,6,-1
 659.806640625 1093 l 1,7,8
 658.806640625 1162 658.806640625 1162 659.806640625 1225 c 0,9,10
 661.806640625 1280 661.806640625 1280 664.806640625 1337.5 c 128,-1,11
 667.806640625 1395 667.806640625 1395 674.806640625 1434 c 2,12,-1
 692.806640625 1536 l 1,13,-1
 871.806640625 1536 l 1,0,-1
1179.80664062 1536 m 1,14,-1
 1161.80664062 1434 l 2,15,16
 1155.80664062 1395 1155.80664062 1395 1138.30664062 1337.5 c 128,-1,17
 1120.80664062 1280 1120.80664062 1280 1102.80664062 1225 c 0,18,19
 1080.80664062 1162 1080.80664062 1162 1056.80664062 1093 c 1,20,-1
 967.806640625 1093 l 1,21,22
 966.806640625 1162 966.806640625 1162 967.806640625 1225 c 0,23,24
 969.806640625 1280 969.806640625 1280 973.306640625 1337.5 c 128,-1,25
 976.806640625 1395 976.806640625 1395 982.806640625 1434 c 2,26,-1
 1000.80664062 1536 l 1,27,-1
 1179.80664062 1536 l 1,14,-1
EndSplineSet
EndChar

StartChar: numbersign
Encoding: 35 35 7
Width: 1331
GlyphClass: 1
Flags: W
LayerCount: 2
Fore
SplineSet
1198.77246094 973 m 1,0,-1
 1074.77246094 563 l 1,1,-1
 1353.77246094 563 l 1,2,-1
 1305.77246094 410 l 1,3,-1
 1030.77246094 410 l 1,4,-1
 906.772460938 0 l 1,5,-1
 697.772460938 -20 l 1,6,-1
 828.772460938 410 l 1,7,-1
 549.772460938 410 l 1,8,-1
 427.772460938 0 l 1,9,-1
 219.772460938 -20 l 1,10,-1
 347.772460938 410 l 1,11,-1
 175.772460938 410 l 1,12,-1
 175.772460938 563 l 1,13,-1
 391.772460938 563 l 1,14,-1
 516.772460938 973 l 1,15,-1
 248.772460938 973 l 1,16,-1
 295.772460938 1126 l 1,17,-1
 560.772460938 1126 l 1,18,-1
 618.772460938 1316 l 1,19,-1
 657.772460938 1536 l 1,20,-1
 892.772460938 1556 l 1,21,-1
 762.772460938 1126 l 1,22,-1
 1041.77246094 1126 l 1,23,-1
 1163.77246094 1536 l 1,24,-1
 1372.77246094 1556 l 1,25,-1
 1244.77246094 1126 l 1,26,-1
 1425.77246094 1126 l 1,27,-1
 1425.77246094 973 l 1,28,-1
 1198.77246094 973 l 1,0,-1
995.772460938 973 m 1,29,-1
 718.772460938 973 l 1,30,-1
 595.772460938 563 l 1,31,-1
 872.772460938 563 l 1,32,-1
 995.772460938 973 l 1,29,-1
EndSplineSet
EndChar

StartChar: dollar
Encoding: 36 36 8
Width: 1331
GlyphClass: 1
Flags: W
LayerCount: 2
Fore
SplineSet
1228.47851562 1282 m 1,0,1
 1173.47851562 1326 1173.47851562 1326 1120.47851562 1350.5 c 128,-1,2
 1067.47851562 1375 1067.47851562 1375 1008.47851562 1380 c 1,3,-1
 916.478515625 856 l 1,4,5
 971.478515625 826 971.478515625 826 1024.47851562 791.5 c 128,-1,6
 1077.47851562 757 1077.47851562 757 1118.97851562 708.5 c 128,-1,7
 1160.47851562 660 1160.47851562 660 1185.97851562 595 c 128,-1,8
 1211.47851562 530 1211.47851562 530 1211.47851562 442 c 0,9,10
 1211.47851562 348 1211.47851562 348 1175.97851562 271 c 128,-1,11
 1140.47851562 194 1140.47851562 194 1079.47851562 136 c 128,-1,12
 1018.47851562 78 1018.47851562 78 936.978515625 40.5 c 128,-1,13
 855.478515625 3 855.478515625 3 762.478515625 -10 c 1,14,-1
 728.478515625 -204 l 1,15,-1
 579.478515625 -204 l 1,16,-1
 612.478515625 -17 l 1,17,-1
 600.478515625 -17 l 1,18,19
 479.478515625 -9 479.478515625 -9 382.978515625 34 c 128,-1,20
 286.478515625 77 286.478515625 77 214.478515625 137 c 1,21,-1
 335.478515625 291 l 1,22,23
 360.478515625 268 360.478515625 268 389.978515625 245.5 c 128,-1,24
 419.478515625 223 419.478515625 223 454.478515625 203.5 c 128,-1,25
 489.478515625 184 489.478515625 184 529.978515625 170.5 c 128,-1,26
 570.478515625 157 570.478515625 157 616.478515625 152 c 0,27,28
 622.478515625 151 622.478515625 151 628.478515625 150.5 c 128,-1,29
 634.478515625 150 634.478515625 150 641.478515625 150 c 1,30,-1
 743.478515625 724 l 1,31,32
 685.478515625 756 685.478515625 756 627.978515625 792 c 128,-1,33
 570.478515625 828 570.478515625 828 524.978515625 877 c 128,-1,34
 479.478515625 926 479.478515625 926 450.978515625 990.5 c 128,-1,35
 422.478515625 1055 422.478515625 1055 422.478515625 1143 c 0,36,37
 422.478515625 1236 422.478515625 1236 460.478515625 1308 c 128,-1,38
 498.478515625 1380 498.478515625 1380 562.478515625 1431 c 128,-1,39
 626.478515625 1482 626.478515625 1482 710.978515625 1511.5 c 128,-1,40
 795.478515625 1541 795.478515625 1541 888.478515625 1549 c 1,41,-1
 922.478515625 1742 l 1,42,-1
 1076.47851562 1762 l 1,43,-1
 1038.47851562 1548 l 1,44,45
 1088.47851562 1541 1088.47851562 1541 1133.47851562 1526 c 128,-1,46
 1178.47851562 1511 1178.47851562 1511 1217.47851562 1492 c 128,-1,47
 1256.47851562 1473 1256.47851562 1473 1288.47851562 1449.5 c 128,-1,48
 1320.47851562 1426 1320.47851562 1426 1347.47851562 1404 c 1,49,-1
 1228.47851562 1282 l 1,0,1
807.478515625 918 m 1,50,-1
 888.478515625 1374 l 1,51,52
 835.478515625 1364 835.478515625 1364 787.978515625 1342.5 c 128,-1,53
 740.478515625 1321 740.478515625 1321 704.978515625 1289 c 128,-1,54
 669.478515625 1257 669.478515625 1257 648.978515625 1216.5 c 128,-1,55
 628.478515625 1176 628.478515625 1176 630.478515625 1127 c 0,56,57
 631.478515625 1088 631.478515625 1088 645.478515625 1058 c 128,-1,58
 659.478515625 1028 659.478515625 1028 682.978515625 1002.5 c 128,-1,59
 706.478515625 977 706.478515625 977 737.978515625 955.5 c 128,-1,60
 769.478515625 934 769.478515625 934 805.478515625 914 c 1,61,-1
 807.478515625 918 l 1,50,-1
1002.47851562 443 m 0,62,63
 1002.47851562 481 1002.47851562 481 990.478515625 512.5 c 128,-1,64
 978.478515625 544 978.478515625 544 957.978515625 570 c 128,-1,65
 937.478515625 596 937.478515625 596 909.978515625 618.5 c 128,-1,66
 882.478515625 641 882.478515625 641 850.478515625 662 c 1,67,-1
 762.478515625 161 l 1,68,69
 808.478515625 172 808.478515625 172 851.978515625 194.5 c 128,-1,70
 895.478515625 217 895.478515625 217 928.978515625 252 c 128,-1,71
 962.478515625 287 962.478515625 287 982.478515625 334.5 c 128,-1,72
 1002.47851562 382 1002.47851562 382 1002.47851562 443 c 0,62,63
EndSplineSet
EndChar

StartChar: percent
Encoding: 37 37 9
Width: 1331
GlyphClass: 1
Flags: W
LayerCount: 2
Fore
SplineSet
415.0546875 0 m 1,0,-1
 224.0546875 0 l 1,1,-1
 1188.0546875 1536 l 1,2,-1
 1378.0546875 1536 l 1,3,-1
 415.0546875 0 l 1,0,-1
471.0546875 819 m 0,4,5
 399.0546875 819 399.0546875 819 353.5546875 847.5 c 128,-1,6
 308.0546875 876 308.0546875 876 285.0546875 925.5 c 128,-1,7
 262.0546875 975 262.0546875 975 259.5546875 1043 c 128,-1,8
 257.0546875 1111 257.0546875 1111 271.0546875 1190 c 0,9,10
 284.0546875 1268 284.0546875 1268 310.0546875 1335 c 128,-1,11
 336.0546875 1402 336.0546875 1402 376.0546875 1450 c 128,-1,12
 416.0546875 1498 416.0546875 1498 471.0546875 1525.5 c 128,-1,13
 526.0546875 1553 526.0546875 1553 601.0546875 1553 c 0,14,15
 673.0546875 1553 673.0546875 1553 718.0546875 1525.5 c 128,-1,16
 763.0546875 1498 763.0546875 1498 786.0546875 1450 c 128,-1,17
 809.0546875 1402 809.0546875 1402 811.5546875 1335 c 128,-1,18
 814.0546875 1268 814.0546875 1268 801.0546875 1190 c 0,19,20
 787.0546875 1111 787.0546875 1111 761.0546875 1043 c 128,-1,21
 735.0546875 975 735.0546875 975 695.0546875 925.5 c 128,-1,22
 655.0546875 876 655.0546875 876 600.0546875 847.5 c 128,-1,23
 545.0546875 819 545.0546875 819 471.0546875 819 c 0,4,5
657.0546875 1239 m 2,24,25
 663.0546875 1275 663.0546875 1275 665.5546875 1307.5 c 128,-1,26
 668.0546875 1340 668.0546875 1340 661.5546875 1365 c 128,-1,27
 655.0546875 1390 655.0546875 1390 635.0546875 1404.5 c 128,-1,28
 615.0546875 1419 615.0546875 1419 576.0546875 1419 c 0,29,30
 538.0546875 1419 538.0546875 1419 514.0546875 1406 c 128,-1,31
 490.0546875 1393 490.0546875 1393 475.5546875 1370.5 c 128,-1,32
 461.0546875 1348 461.0546875 1348 452.5546875 1317.5 c 128,-1,33
 444.0546875 1287 444.0546875 1287 438.0546875 1253 c 2,34,-1
 420.0546875 1150 l 2,35,36
 414.0546875 1113 414.0546875 1113 410.5546875 1080 c 128,-1,37
 407.0546875 1047 407.0546875 1047 414.5546875 1021.5 c 128,-1,38
 422.0546875 996 422.0546875 996 442.5546875 981.5 c 128,-1,39
 463.0546875 967 463.0546875 967 502.0546875 967 c 0,40,41
 539.0546875 967 539.0546875 967 563.0546875 980 c 128,-1,42
 587.0546875 993 587.0546875 993 601.5546875 1015.5 c 128,-1,43
 616.0546875 1038 616.0546875 1038 624.0546875 1068.5 c 128,-1,44
 632.0546875 1099 632.0546875 1099 638.0546875 1132 c 2,45,-1
 657.0546875 1239 l 2,24,25
1002.0546875 -17 m 0,46,47
 930.0546875 -17 930.0546875 -17 884.5546875 11 c 128,-1,48
 839.0546875 39 839.0546875 39 816.0546875 88.5 c 128,-1,49
 793.0546875 138 793.0546875 138 790.5546875 206 c 128,-1,50
 788.0546875 274 788.0546875 274 803.0546875 353 c 0,51,52
 816.0546875 431 816.0546875 431 841.5546875 498 c 128,-1,53
 867.0546875 565 867.0546875 565 907.0546875 613.5 c 128,-1,54
 947.0546875 662 947.0546875 662 1002.5546875 689.5 c 128,-1,55
 1058.0546875 717 1058.0546875 717 1132.0546875 717 c 0,56,57
 1204.0546875 717 1204.0546875 717 1249.0546875 689.5 c 128,-1,58
 1294.0546875 662 1294.0546875 662 1317.0546875 613.5 c 128,-1,59
 1340.0546875 565 1340.0546875 565 1342.5546875 498 c 128,-1,60
 1345.0546875 431 1345.0546875 431 1332.0546875 353 c 0,61,62
 1318.0546875 274 1318.0546875 274 1292.0546875 206 c 128,-1,63
 1266.0546875 138 1266.0546875 138 1226.5546875 88.5 c 128,-1,64
 1187.0546875 39 1187.0546875 39 1131.5546875 11 c 128,-1,65
 1076.0546875 -17 1076.0546875 -17 1002.0546875 -17 c 0,46,47
1189.0546875 402 m 2,66,67
 1195.0546875 438 1195.0546875 438 1197.5546875 471 c 128,-1,68
 1200.0546875 504 1200.0546875 504 1193.5546875 528.5 c 128,-1,69
 1187.0546875 553 1187.0546875 553 1167.0546875 568 c 128,-1,70
 1147.0546875 583 1147.0546875 583 1108.0546875 583 c 0,71,72
 1070.0546875 583 1070.0546875 583 1046.0546875 569.5 c 128,-1,73
 1022.0546875 556 1022.0546875 556 1007.0546875 533.5 c 128,-1,74
 992.0546875 511 992.0546875 511 984.0546875 481 c 128,-1,75
 976.0546875 451 976.0546875 451 970.0546875 417 c 2,76,-1
 951.0546875 313 l 2,77,78
 945.0546875 276 945.0546875 276 942.0546875 243 c 128,-1,79
 939.0546875 210 939.0546875 210 946.0546875 185 c 128,-1,80
 953.0546875 160 953.0546875 160 973.5546875 145 c 128,-1,81
 994.0546875 130 994.0546875 130 1033.0546875 130 c 0,82,83
 1070.0546875 130 1070.0546875 130 1094.0546875 143.5 c 128,-1,84
 1118.0546875 157 1118.0546875 157 1133.0546875 179.5 c 128,-1,85
 1148.0546875 202 1148.0546875 202 1155.5546875 232 c 128,-1,86
 1163.0546875 262 1163.0546875 262 1169.0546875 295 c 2,87,-1
 1189.0546875 402 l 2,66,67
EndSplineSet
EndChar

StartChar: ampersand
Encoding: 38 38 10
Width: 1331
GlyphClass: 1
Flags: W
LayerCount: 2
Fore
SplineSet
1337.11621094 738 m 1,0,1
 1323.11621094 657 1323.11621094 657 1301.11621094 576 c 128,-1,2
 1279.11621094 495 1279.11621094 495 1243.61621094 418 c 128,-1,3
 1208.11621094 341 1208.11621094 341 1157.11621094 271.5 c 128,-1,4
 1106.11621094 202 1106.11621094 202 1034.11621094 144 c 1,5,-1
 1128.11621094 144 l 1,6,-1
 1223.11621094 -20 l 1,7,-1
 995.116210938 -20 l 1,8,-1
 935.116210938 79 l 1,9,10
 848.116210938 28 848.116210938 28 754.116210938 5.5 c 128,-1,11
 660.116210938 -17 660.116210938 -17 562.116210938 -17 c 0,12,13
 457.116210938 -17 457.116210938 -17 378.616210938 21 c 128,-1,14
 300.116210938 59 300.116210938 59 252.116210938 124.5 c 128,-1,15
 204.116210938 190 204.116210938 190 186.616210938 276 c 128,-1,16
 169.116210938 362 169.116210938 362 185.116210938 458 c 0,17,18
 202.116210938 555 202.116210938 555 242.116210938 630.5 c 128,-1,19
 282.116210938 706 282.116210938 706 332.116210938 760.5 c 128,-1,20
 382.116210938 815 382.116210938 815 436.616210938 850 c 128,-1,21
 491.116210938 885 491.116210938 885 540.116210938 902 c 1,22,23
 526.116210938 931 526.116210938 931 512.616210938 968.5 c 128,-1,24
 499.116210938 1006 499.116210938 1006 489.616210938 1045.5 c 128,-1,25
 480.116210938 1085 480.116210938 1085 477.616210938 1126 c 128,-1,26
 475.116210938 1167 475.116210938 1167 481.116210938 1204 c 0,27,28
 494.116210938 1278 494.116210938 1278 525.616210938 1341.5 c 128,-1,29
 557.116210938 1405 557.116210938 1405 609.116210938 1452 c 128,-1,30
 661.116210938 1499 661.116210938 1499 735.616210938 1526 c 128,-1,31
 810.116210938 1553 810.116210938 1553 908.116210938 1553 c 0,32,33
 976.116210938 1553 976.116210938 1553 1026.61621094 1535.5 c 128,-1,34
 1077.11621094 1518 1077.11621094 1518 1114.61621094 1490.5 c 128,-1,35
 1152.11621094 1463 1152.11621094 1463 1178.61621094 1431 c 128,-1,36
 1205.11621094 1399 1205.11621094 1399 1224.11621094 1370 c 1,37,-1
 1117.11621094 1229 l 1,38,39
 1106.11621094 1256 1106.11621094 1256 1087.61621094 1284.5 c 128,-1,40
 1069.11621094 1313 1069.11621094 1313 1040.11621094 1337 c 128,-1,41
 1011.11621094 1361 1011.11621094 1361 969.616210938 1376.5 c 128,-1,42
 928.116210938 1392 928.116210938 1392 871.116210938 1392 c 0,43,44
 822.116210938 1392 822.116210938 1392 786.116210938 1372.5 c 128,-1,45
 750.116210938 1353 750.116210938 1353 724.116210938 1324 c 128,-1,46
 698.116210938 1295 698.116210938 1295 683.616210938 1262.5 c 128,-1,47
 669.116210938 1230 669.116210938 1230 665.116210938 1203 c 0,48,49
 663.116210938 1189 663.116210938 1189 662.116210938 1173 c 128,-1,50
 661.116210938 1157 661.116210938 1157 664.116210938 1139 c 0,51,52
 665.116210938 1124 665.116210938 1124 672.616210938 1100 c 128,-1,53
 680.116210938 1076 680.116210938 1076 695.616210938 1037.5 c 128,-1,54
 711.116210938 999 711.116210938 999 736.116210938 942.5 c 128,-1,55
 761.116210938 886 761.116210938 886 796.616210938 804.5 c 128,-1,56
 832.116210938 723 832.116210938 723 881.616210938 613.5 c 128,-1,57
 931.116210938 504 931.116210938 504 994.116210938 360 c 1,58,59
 1025.11621094 395 1025.11621094 395 1046.61621094 433 c 128,-1,60
 1068.11621094 471 1068.11621094 471 1084.11621094 514 c 128,-1,61
 1100.11621094 557 1100.11621094 557 1111.61621094 606.5 c 128,-1,62
 1123.11621094 656 1123.11621094 656 1135.11621094 717 c 1,63,-1
 1337.11621094 738 l 1,0,1
564.116210938 717 m 1,64,65
 494.116210938 687 494.116210938 687 446.116210938 626.5 c 128,-1,66
 398.116210938 566 398.116210938 566 381.116210938 468 c 0,67,68
 368.116210938 394 368.116210938 394 384.616210938 339 c 128,-1,69
 401.116210938 284 401.116210938 284 436.616210938 247 c 128,-1,70
 472.116210938 210 472.116210938 210 520.116210938 192 c 128,-1,71
 568.116210938 174 568.116210938 174 619.116210938 174 c 0,72,73
 663.116210938 174 663.116210938 174 697.616210938 179 c 128,-1,74
 732.116210938 184 732.116210938 184 759.616210938 193 c 128,-1,75
 787.116210938 202 787.116210938 202 809.116210938 213.5 c 128,-1,76
 831.116210938 225 831.116210938 225 851.116210938 240 c 1,77,-1
 583.116210938 819 l 1,78,-1
 564.116210938 717 l 1,64,65
EndSplineSet
EndChar

StartChar: quotesingle
Encoding: 39 39 11
Width: 1331
GlyphClass: 1
Flags: W
LayerCount: 2
Fore
SplineSet
851.78125 1536 m 1,0,-1
 1030.78125 1536 l 1,1,-1
 1012.78125 1434 l 2,2,3
 999.78125 1358 999.78125 1358 947.78125 1270.5 c 128,-1,4
 895.78125 1183 895.78125 1183 808.78125 1093 c 1,5,-1
 763.78125 1093 l 1,6,7
 778.78125 1171 778.78125 1171 794.78125 1238 c 0,8,9
 800.78125 1267 800.78125 1267 806.28125 1296.5 c 128,-1,10
 811.78125 1326 811.78125 1326 817.28125 1352 c 128,-1,11
 822.78125 1378 822.78125 1378 826.78125 1399.5 c 128,-1,12
 830.78125 1421 830.78125 1421 833.78125 1434 c 2,13,-1
 851.78125 1536 l 1,0,-1
EndSplineSet
EndChar

StartChar: parenleft
Encoding: 40 40 12
Width: 1331
GlyphClass: 1
Flags: W
LayerCount: 2
Fore
SplineSet
656.887695312 1208 m 2,0,1
 678.887695312 1331 678.887695312 1331 702.887695312 1414 c 128,-1,2
 726.887695312 1497 726.887695312 1497 766.887695312 1546.5 c 128,-1,3
 806.887695312 1596 806.887695312 1596 869.887695312 1617 c 128,-1,4
 932.887695312 1638 932.887695312 1638 1033.88769531 1638 c 0,5,6
 1052.88769531 1638 1052.88769531 1638 1073.88769531 1636.5 c 128,-1,7
 1094.88769531 1635 1094.88769531 1635 1113.38769531 1631.5 c 128,-1,8
 1131.88769531 1628 1131.88769531 1628 1147.38769531 1623.5 c 128,-1,9
 1162.88769531 1619 1162.88769531 1619 1170.88769531 1613 c 1,10,-1
 1077.88769531 1484 l 1,11,-1
 1062.88769531 1486 l 2,12,13
 1056.88769531 1487 1056.88769531 1487 1047.88769531 1488 c 128,-1,14
 1038.88769531 1489 1038.88769531 1489 1026.88769531 1489 c 0,15,16
 970.887695312 1489 970.887695312 1489 941.387695312 1467.5 c 128,-1,17
 911.887695312 1446 911.887695312 1446 896.387695312 1409 c 128,-1,18
 880.887695312 1372 880.887695312 1372 873.887695312 1324 c 128,-1,19
 866.887695312 1276 866.887695312 1276 856.887695312 1223 c 2,20,-1
 638.887695312 -14 l 2,21,22
 629.887695312 -67 629.887695312 -67 620.887695312 -115.5 c 128,-1,23
 611.887695312 -164 611.887695312 -164 614.887695312 -200.5 c 128,-1,24
 617.887695312 -237 617.887695312 -237 639.887695312 -259 c 128,-1,25
 661.887695312 -281 661.887695312 -281 714.887695312 -281 c 0,26,27
 725.887695312 -281 725.887695312 -281 735.387695312 -280.5 c 128,-1,28
 744.887695312 -280 744.887695312 -280 752.887695312 -279 c 2,29,-1
 766.887695312 -275 l 1,30,-1
 815.887695312 -404 l 1,31,32
 804.887695312 -410 804.887695312 -410 787.387695312 -415.5 c 128,-1,33
 769.887695312 -421 769.887695312 -421 750.387695312 -425 c 128,-1,34
 730.887695312 -429 730.887695312 -429 709.387695312 -430.5 c 128,-1,35
 687.887695312 -432 687.887695312 -432 667.887695312 -430 c 0,36,37
 596.887695312 -425 596.887695312 -425 550.387695312 -405.5 c 128,-1,38
 503.887695312 -386 503.887695312 -386 476.387695312 -355.5 c 128,-1,39
 448.887695312 -325 448.887695312 -325 436.887695312 -284.5 c 128,-1,40
 424.887695312 -244 424.887695312 -244 423.387695312 -198 c 128,-1,41
 421.887695312 -152 421.887695312 -152 428.387695312 -101 c 128,-1,42
 434.887695312 -50 434.887695312 -50 443.887695312 0 c 2,43,-1
 656.887695312 1208 l 2,0,1
EndSplineSet
EndChar

StartChar: parenright
Encoding: 41 41 13
Width: 1331
GlyphClass: 1
Flags: W
LayerCount: 2
Fore
SplineSet
887.69140625 0 m 2,0,1
 875.69140625 -69 875.69140625 -69 864.69140625 -127.5 c 128,-1,2
 853.69140625 -186 853.69140625 -186 837.69140625 -234.5 c 128,-1,3
 821.69140625 -283 821.69140625 -283 797.69140625 -319.5 c 128,-1,4
 773.69140625 -356 773.69140625 -356 735.69140625 -381 c 128,-1,5
 697.69140625 -406 697.69140625 -406 642.69140625 -418.5 c 128,-1,6
 587.69140625 -431 587.69140625 -431 509.69140625 -430 c 0,7,8
 489.69140625 -430 489.69140625 -430 468.69140625 -428 c 128,-1,9
 447.69140625 -426 447.69140625 -426 429.19140625 -423 c 128,-1,10
 410.69140625 -420 410.69140625 -420 395.69140625 -415.5 c 128,-1,11
 380.69140625 -411 380.69140625 -411 372.69140625 -404 c 1,12,-1
 465.69140625 -275 l 1,13,-1
 479.69140625 -279 l 2,14,15
 485.69140625 -280 485.69140625 -280 495.19140625 -280.5 c 128,-1,16
 504.69140625 -281 504.69140625 -281 515.69140625 -281 c 0,17,18
 567.69140625 -281 567.69140625 -281 597.69140625 -259 c 128,-1,19
 627.69140625 -237 627.69140625 -237 643.69140625 -200.5 c 128,-1,20
 659.69140625 -164 659.69140625 -164 668.19140625 -116 c 128,-1,21
 676.69140625 -68 676.69140625 -68 685.69140625 -14 c 2,22,-1
 903.69140625 1223 l 2,23,24
 912.69140625 1276 912.69140625 1276 919.69140625 1323.5 c 128,-1,25
 926.69140625 1371 926.69140625 1371 921.19140625 1407 c 128,-1,26
 915.69140625 1443 915.69140625 1443 894.69140625 1465 c 128,-1,27
 873.69140625 1487 873.69140625 1487 827.69140625 1489 c 0,28,29
 816.69140625 1490 816.69140625 1490 807.69140625 1488.5 c 128,-1,30
 798.69140625 1487 798.69140625 1487 789.69140625 1486 c 2,31,-1
 775.69140625 1484 l 1,32,-1
 727.69140625 1613 l 1,33,34
 737.69140625 1619 737.69140625 1619 754.69140625 1623.5 c 128,-1,35
 771.69140625 1628 771.69140625 1628 791.69140625 1631.5 c 128,-1,36
 811.69140625 1635 811.69140625 1635 833.19140625 1636.5 c 128,-1,37
 854.69140625 1638 854.69140625 1638 874.69140625 1638 c 0,38,39
 969.69140625 1638 969.69140625 1638 1023.19140625 1604 c 128,-1,40
 1076.69140625 1570 1076.69140625 1570 1098.69140625 1511 c 128,-1,41
 1120.69140625 1452 1120.69140625 1452 1118.19140625 1373.5 c 128,-1,42
 1115.69140625 1295 1115.69140625 1295 1100.69140625 1208 c 2,43,-1
 887.69140625 0 l 2,0,1
EndSplineSet
EndChar

StartChar: asterisk
Encoding: 42 42 14
Width: 1331
GlyphClass: 1
Flags: W
LayerCount: 2
Fore
SplineSet
970.39453125 1018 m 1,0,-1
 1078.39453125 821 l 1,1,-1
 961.39453125 729 l 1,2,-1
 845.39453125 940 l 1,3,-1
 834.39453125 1014 l 1,4,-1
 796.39453125 940 l 1,5,-1
 619.39453125 743 l 1,6,-1
 511.39453125 812 l 1,7,-1
 700.39453125 1020 l 1,8,-1
 774.39453125 1066 l 1,9,-1
 692.39453125 1070 l 1,10,-1
 477.39453125 1145 l 1,11,-1
 529.39453125 1279 l 1,12,-1
 758.39453125 1200 l 1,13,-1
 816.39453125 1147 l 1,14,-1
 808.39453125 1231 l 1,15,-1
 851.39453125 1470 l 1,16,-1
 989.39453125 1485 l 1,17,-1
 944.39453125 1227 l 1,18,-1
 903.39453125 1145 l 1,19,-1
 979.39453125 1196 l 1,20,-1
 1223.39453125 1270 l 1,21,-1
 1257.39453125 1145 l 1,22,-1
 995.39453125 1065 l 1,23,-1
 913.39453125 1062 l 1,24,-1
 970.39453125 1018 l 1,0,-1
EndSplineSet
EndChar

StartChar: plus
Encoding: 43 43 15
Width: 1331
GlyphClass: 1
Flags: W
LayerCount: 2
Fore
SplineSet
330.908203125 717 m 1,0,-1
 712.908203125 717 l 1,1,-1
 789.908203125 1150 l 1,2,-1
 948.908203125 1150 l 1,3,-1
 871.908203125 717 l 1,4,-1
 1252.90820312 717 l 1,5,-1
 1224.90820312 558 l 1,6,-1
 843.908203125 558 l 1,7,-1
 767.908203125 125 l 1,8,-1
 608.908203125 125 l 1,9,-1
 685.908203125 558 l 1,10,-1
 303.908203125 558 l 1,11,-1
 330.908203125 717 l 1,0,-1
EndSplineSet
EndChar

StartChar: comma
Encoding: 44 44 16
Width: 1331
GlyphClass: 1
Flags: W
LayerCount: 2
Fore
SplineSet
536.909179688 130 m 0,0,1
 541.909179688 160 541.909179688 160 558.909179688 187 c 128,-1,2
 575.909179688 214 575.909179688 214 599.909179688 233.5 c 128,-1,3
 623.909179688 253 623.909179688 253 653.409179688 265.5 c 128,-1,4
 682.909179688 278 682.909179688 278 713.909179688 278 c 0,5,6
 743.909179688 278 743.909179688 278 769.409179688 267 c 128,-1,7
 794.909179688 256 794.909179688 256 812.409179688 235.5 c 128,-1,8
 829.909179688 215 829.909179688 215 836.909179688 184 c 128,-1,9
 843.909179688 153 843.909179688 153 836.909179688 113 c 0,10,11
 827.909179688 59 827.909179688 59 811.909179688 8 c 128,-1,12
 795.909179688 -43 795.909179688 -43 765.909179688 -95 c 128,-1,13
 735.909179688 -147 735.909179688 -147 687.409179688 -201.5 c 128,-1,14
 638.909179688 -256 638.909179688 -256 565.909179688 -314 c 1,15,-1
 516.909179688 -291 l 1,16,17
 547.909179688 -246 547.909179688 -246 574.909179688 -198 c 0,18,19
 597.909179688 -158 597.909179688 -158 618.409179688 -110 c 128,-1,20
 638.909179688 -62 638.909179688 -62 647.909179688 -17 c 1,21,22
 621.909179688 -16 621.909179688 -16 598.909179688 -6 c 128,-1,23
 575.909179688 4 575.909179688 4 559.909179688 22 c 128,-1,24
 543.909179688 40 543.909179688 40 537.409179688 67.5 c 128,-1,25
 530.909179688 95 530.909179688 95 536.909179688 130 c 0,0,1
EndSplineSet
EndChar

StartChar: hyphen
Encoding: 45 45 17
Width: 1331
GlyphClass: 1
Flags: W
LayerCount: 2
Fore
SplineSet
517.334960938 614 m 1,0,-1
 1029.33496094 614 l 1,1,-1
 1002.33496094 456 l 1,2,-1
 490.334960938 456 l 1,3,-1
 517.334960938 614 l 1,0,-1
EndSplineSet
EndChar

StartChar: period
Encoding: 46 46 18
Width: 1331
GlyphClass: 1
Flags: W
LayerCount: 2
Fore
SplineSet
524.622070312 154 m 256,0,1
 530.622070312 189 530.622070312 189 549.122070312 219.5 c 128,-1,2
 567.622070312 250 567.622070312 250 594.622070312 273 c 128,-1,3
 621.622070312 296 621.622070312 296 654.122070312 309.5 c 128,-1,4
 686.622070312 323 686.622070312 323 721.622070312 323 c 256,5,6
 756.622070312 323 756.622070312 323 784.622070312 309.5 c 128,-1,7
 812.622070312 296 812.622070312 296 831.622070312 273 c 128,-1,8
 850.622070312 250 850.622070312 250 859.122070312 219 c 128,-1,9
 867.622070312 188 867.622070312 188 860.622070312 154 c 256,10,11
 854.622070312 119 854.622070312 119 835.622070312 87.5 c 128,-1,12
 816.622070312 56 816.622070312 56 790.122070312 33 c 128,-1,13
 763.622070312 10 763.622070312 10 731.122070312 -3.5 c 128,-1,14
 698.622070312 -17 698.622070312 -17 663.622070312 -17 c 256,15,16
 628.622070312 -17 628.622070312 -17 600.122070312 -3.5 c 128,-1,17
 571.622070312 10 571.622070312 10 552.622070312 33 c 128,-1,18
 533.622070312 56 533.622070312 56 526.122070312 87.5 c 128,-1,19
 518.622070312 119 518.622070312 119 524.622070312 154 c 256,0,1
EndSplineSet
EndChar

StartChar: slash
Encoding: 47 47 19
Width: 1331
GlyphClass: 1
Flags: W
LayerCount: 2
Fore
SplineSet
396.418945312 -102 m 1,0,-1
 181.418945312 -102 l 1,1,-1
 1215.41894531 1638 l 1,2,-1
 1420.41894531 1638 l 1,3,-1
 396.418945312 -102 l 1,0,-1
EndSplineSet
EndChar

StartChar: zero
Encoding: 48 48 20
Width: 1331
GlyphClass: 1
Flags: W
LayerCount: 2
Fore
SplineSet
661.419921875 -17 m 0,0,1
 574.419921875 -17 574.419921875 -17 507.919921875 16 c 128,-1,2
 441.419921875 49 441.419921875 49 393.419921875 106.5 c 128,-1,3
 345.419921875 164 345.419921875 164 315.919921875 240.5 c 128,-1,4
 286.419921875 317 286.419921875 317 272.919921875 405 c 128,-1,5
 259.419921875 493 259.419921875 493 260.919921875 586 c 128,-1,6
 262.419921875 679 262.419921875 679 278.419921875 768 c 0,7,8
 294.419921875 860 294.419921875 860 323.419921875 954.5 c 128,-1,9
 352.419921875 1049 352.419921875 1049 394.419921875 1136 c 128,-1,10
 436.419921875 1223 436.419921875 1223 491.419921875 1299 c 128,-1,11
 546.419921875 1375 546.419921875 1375 614.419921875 1431.5 c 128,-1,12
 682.419921875 1488 682.419921875 1488 763.419921875 1520.5 c 128,-1,13
 844.419921875 1553 844.419921875 1553 939.419921875 1553 c 0,14,15
 1026.41992188 1553 1026.41992188 1553 1092.91992188 1520 c 128,-1,16
 1159.41992188 1487 1159.41992188 1487 1207.41992188 1429.5 c 128,-1,17
 1255.41992188 1372 1255.41992188 1372 1285.41992188 1295.5 c 128,-1,18
 1315.41992188 1219 1315.41992188 1219 1328.91992188 1131 c 128,-1,19
 1342.41992188 1043 1342.41992188 1043 1340.41992188 950 c 128,-1,20
 1338.41992188 857 1338.41992188 857 1323.41992188 768 c 0,21,22
 1307.41992188 676 1307.41992188 676 1277.91992188 581.5 c 128,-1,23
 1248.41992188 487 1248.41992188 487 1206.41992188 400 c 128,-1,24
 1164.41992188 313 1164.41992188 313 1109.91992188 237 c 128,-1,25
 1055.41992188 161 1055.41992188 161 986.919921875 104.5 c 128,-1,26
 918.419921875 48 918.419921875 48 836.919921875 15.5 c 128,-1,27
 755.419921875 -17 755.419921875 -17 661.419921875 -17 c 0,0,1
701.419921875 161 m 0,28,29
 764.419921875 161 764.419921875 161 815.919921875 185 c 128,-1,30
 867.419921875 209 867.419921875 209 908.919921875 250 c 128,-1,31
 950.419921875 291 950.419921875 291 982.419921875 346 c 128,-1,32
 1014.41992188 401 1014.41992188 401 1037.91992188 463.5 c 128,-1,33
 1061.41992188 526 1061.41992188 526 1077.91992188 592.5 c 128,-1,34
 1094.41992188 659 1094.41992188 659 1106.41992188 724 c 0,35,36
 1112.41992188 759 1112.41992188 759 1116.91992188 790 c 128,-1,37
 1121.41992188 821 1121.41992188 821 1124.91992188 853 c 128,-1,38
 1128.41992188 885 1128.41992188 885 1130.41992188 917.5 c 128,-1,39
 1132.41992188 950 1132.41992188 950 1133.41992188 988 c 1,40,-1
 1204.41992188 1210 l 1,41,-1
 507.419921875 284 l 1,42,43
 534.419921875 226 534.419921875 226 579.919921875 193.5 c 128,-1,44
 625.419921875 161 625.419921875 161 701.419921875 161 c 0,28,29
899.419921875 1373 m 0,45,46
 836.419921875 1373 836.419921875 1373 784.919921875 1349.5 c 128,-1,47
 733.419921875 1326 733.419921875 1326 691.919921875 1285 c 128,-1,48
 650.419921875 1244 650.419921875 1244 618.919921875 1189.5 c 128,-1,49
 587.419921875 1135 587.419921875 1135 563.419921875 1072.5 c 128,-1,50
 539.419921875 1010 539.419921875 1010 522.919921875 943.5 c 128,-1,51
 506.419921875 877 506.419921875 877 494.419921875 812 c 0,52,53
 482.419921875 742 482.419921875 742 475.919921875 681.5 c 128,-1,54
 469.419921875 621 469.419921875 621 467.419921875 545 c 1,55,-1
 398.419921875 328 l 1,56,-1
 1092.41992188 1250 l 1,57,58
 1065.41992188 1308 1065.41992188 1308 1019.41992188 1340.5 c 128,-1,59
 973.419921875 1373 973.419921875 1373 899.419921875 1373 c 0,45,46
EndSplineSet
EndChar

StartChar: one
Encoding: 49 49 21
Width: 1331
GlyphClass: 1
Flags: W
LayerCount: 2
Fore
SplineSet
390.73046875 0 m 1,0,-1
 419.73046875 164 l 1,1,-1
 670.73046875 164 l 1,2,-1
 844.73046875 1153 l 1,3,-1
 944.73046875 1385 l 1,4,-1
 771.73046875 1195 l 1,5,-1
 520.73046875 1002 l 1,6,-1
 431.73046875 1126 l 1,7,-1
 977.73046875 1556 l 1,8,-1
 1116.73046875 1536 l 1,9,-1
 875.73046875 164 l 1,10,-1
 1126.73046875 164 l 1,11,-1
 1097.73046875 0 l 1,12,-1
 390.73046875 0 l 1,0,-1
EndSplineSet
EndChar

StartChar: two
Encoding: 50 50 22
Width: 1331
GlyphClass: 1
Flags: W
LayerCount: 2
Fore
SplineSet
203.623046875 0 m 1,0,-1
 232.623046875 172 l 1,1,2
 303.623046875 272 303.623046875 272 376.623046875 355 c 128,-1,3
 449.623046875 438 449.623046875 438 523.623046875 509 c 128,-1,4
 597.623046875 580 597.623046875 580 670.123046875 640.5 c 128,-1,5
 742.623046875 701 742.623046875 701 811.623046875 757 c 0,6,7
 872.623046875 806 872.623046875 806 928.123046875 853.5 c 128,-1,8
 983.623046875 901 983.623046875 901 1025.62304688 948.5 c 128,-1,9
 1067.62304688 996 1067.62304688 996 1092.12304688 1046 c 128,-1,10
 1116.62304688 1096 1116.62304688 1096 1116.62304688 1150 c 0,11,12
 1116.62304688 1205 1116.62304688 1205 1102.12304688 1249 c 128,-1,13
 1087.62304688 1293 1087.62304688 1293 1055.62304688 1323 c 128,-1,14
 1023.62304688 1353 1023.62304688 1353 972.623046875 1368.5 c 128,-1,15
 921.623046875 1384 921.623046875 1384 846.623046875 1384 c 0,16,17
 797.623046875 1384 797.623046875 1384 756.123046875 1367.5 c 128,-1,18
 714.623046875 1351 714.623046875 1351 679.623046875 1323 c 128,-1,19
 644.623046875 1295 644.623046875 1295 616.623046875 1260 c 128,-1,20
 588.623046875 1225 588.623046875 1225 566.623046875 1188 c 1,21,-1
 433.623046875 1249 l 1,22,23
 501.623046875 1394 501.623046875 1394 622.123046875 1473.5 c 128,-1,24
 742.623046875 1553 742.623046875 1553 900.623046875 1553 c 2,25,-1
 920.623046875 1553 l 2,26,27
 930.623046875 1553 930.623046875 1553 940.623046875 1552 c 0,28,29
 1033.62304688 1546 1033.62304688 1546 1101.62304688 1510.5 c 128,-1,30
 1169.62304688 1475 1169.62304688 1475 1214.12304688 1419.5 c 128,-1,31
 1258.62304688 1364 1258.62304688 1364 1280.12304688 1295.5 c 128,-1,32
 1301.62304688 1227 1301.62304688 1227 1301.62304688 1155 c 0,33,34
 1301.62304688 1149 1301.62304688 1149 1301.12304688 1143 c 128,-1,35
 1300.62304688 1137 1300.62304688 1137 1300.62304688 1130 c 0,36,37
 1296.62304688 1049 1296.62304688 1049 1258.62304688 979 c 128,-1,38
 1220.62304688 909 1220.62304688 909 1165.12304688 846.5 c 128,-1,39
 1109.62304688 784 1109.62304688 784 1044.62304688 729 c 128,-1,40
 979.623046875 674 979.623046875 674 921.623046875 622 c 0,41,42
 847.623046875 555 847.623046875 555 781.623046875 496.5 c 128,-1,43
 715.623046875 438 715.623046875 438 658.623046875 383 c 128,-1,44
 601.623046875 328 601.623046875 328 554.623046875 274 c 128,-1,45
 507.623046875 220 507.623046875 220 471.623046875 164 c 1,46,-1
 1157.62304688 164 l 1,47,-1
 1128.62304688 0 l 1,48,-1
 203.623046875 0 l 1,0,-1
EndSplineSet
EndChar

StartChar: three
Encoding: 51 51 23
Width: 1331
GlyphClass: 1
Flags: W
LayerCount: 2
Fore
SplineSet
486.389648438 1372 m 1,0,-1
 530.389648438 1536 l 1,1,-1
 1277.38964844 1536 l 1,2,-1
 1252.38964844 1393 l 1,3,4
 1233.38964844 1352 1233.38964844 1352 1196.38964844 1307.5 c 128,-1,5
 1159.38964844 1263 1159.38964844 1263 1111.38964844 1217.5 c 128,-1,6
 1063.38964844 1172 1063.38964844 1172 1009.38964844 1127.5 c 128,-1,7
 955.389648438 1083 955.389648438 1083 901.389648438 1043 c 1,8,-1
 752.389648438 971 l 1,9,-1
 825.389648438 971 l 2,10,11
 894.389648438 971 894.389648438 971 961.389648438 945.5 c 128,-1,12
 1028.38964844 920 1028.38964844 920 1081.38964844 872.5 c 128,-1,13
 1134.38964844 825 1134.38964844 825 1167.38964844 758.5 c 128,-1,14
 1200.38964844 692 1200.38964844 692 1200.38964844 611 c 0,15,16
 1200.38964844 496 1200.38964844 496 1158.88964844 406 c 128,-1,17
 1117.38964844 316 1117.38964844 316 1045.88964844 248 c 128,-1,18
 974.389648438 180 974.389648438 180 879.389648438 133 c 128,-1,19
 784.389648438 86 784.389648438 86 676.889648438 56.5 c 128,-1,20
 569.389648438 27 569.389648438 27 453.889648438 13.5 c 128,-1,21
 338.389648438 0 338.389648438 0 229.389648438 0 c 1,22,-1
 258.389648438 164 l 1,23,24
 339.389648438 165 339.389648438 165 424.389648438 177 c 128,-1,25
 509.389648438 189 509.389648438 189 590.889648438 212.5 c 128,-1,26
 672.389648438 236 672.389648438 236 744.889648438 269 c 128,-1,27
 817.389648438 302 817.389648438 302 871.889648438 345 c 128,-1,28
 926.389648438 388 926.389648438 388 958.389648438 441 c 128,-1,29
 990.389648438 494 990.389648438 494 990.389648438 556 c 0,30,31
 990.389648438 621 990.389648438 621 966.889648438 669 c 128,-1,32
 943.389648438 717 943.389648438 717 900.389648438 748 c 128,-1,33
 857.389648438 779 857.389648438 779 797.389648438 794.5 c 128,-1,34
 737.389648438 810 737.389648438 810 665.389648438 810 c 0,35,36
 619.389648438 810 619.389648438 810 575.389648438 809 c 128,-1,37
 531.389648438 808 531.389648438 808 488.389648438 805 c 1,38,-1
 516.389648438 963 l 1,39,40
 563.389648438 994 563.389648438 994 619.389648438 1032.5 c 128,-1,41
 675.389648438 1071 675.389648438 1071 733.889648438 1113.5 c 128,-1,42
 792.389648438 1156 792.389648438 1156 848.389648438 1199.5 c 128,-1,43
 904.389648438 1243 904.389648438 1243 950.889648438 1282.5 c 128,-1,44
 997.389648438 1322 997.389648438 1322 1029.88964844 1356.5 c 128,-1,45
 1062.38964844 1391 1062.38964844 1391 1075.38964844 1413 c 1,46,-1
 912.389648438 1372 l 1,47,-1
 486.389648438 1372 l 1,0,-1
EndSplineSet
EndChar

StartChar: four
Encoding: 52 52 24
Width: 1331
GlyphClass: 1
Flags: W
LayerCount: 2
Fore
SplineSet
1211.09179688 307 m 1,0,-1
 1026.09179688 307 l 1,1,-1
 973.091796875 0 l 1,2,-1
 768.091796875 0 l 1,3,-1
 821.091796875 307 l 1,4,-1
 212.091796875 307 l 1,5,-1
 244.091796875 482 l 1,6,-1
 929.091796875 1556 l 1,7,-1
 1118.09179688 1536 l 1,8,-1
 531.091796875 614 l 1,9,-1
 411.091796875 471 l 1,10,-1
 851.091796875 471 l 1,11,-1
 924.091796875 888 l 1,12,-1
 1126.09179688 870 l 1,13,-1
 1056.09179688 471 l 1,14,-1
 1256.09179688 471 l 1,15,-1
 1211.09179688 307 l 1,0,-1
EndSplineSet
EndChar

StartChar: five
Encoding: 53 53 25
Width: 1331
GlyphClass: 1
Flags: W
LayerCount: 2
Fore
SplineSet
619.352539062 1006 m 1,0,-1
 645.352539062 1019 l 2,1,2
 663.352539062 1028 663.352539062 1028 688.352539062 1037.5 c 128,-1,3
 713.352539062 1047 713.352539062 1047 741.352539062 1053.5 c 128,-1,4
 769.352539062 1060 769.352539062 1060 797.352539062 1060 c 0,5,6
 902.352539062 1060 902.352539062 1060 978.852539062 1030 c 128,-1,7
 1055.35253906 1000 1055.35253906 1000 1104.35253906 948 c 128,-1,8
 1153.35253906 896 1153.35253906 896 1176.85253906 825 c 128,-1,9
 1200.35253906 754 1200.35253906 754 1200.35253906 671 c 0,10,11
 1200.35253906 552 1200.35253906 552 1162.35253906 456.5 c 128,-1,12
 1124.35253906 361 1124.35253906 361 1056.85253906 286.5 c 128,-1,13
 989.352539062 212 989.352539062 212 897.852539062 157.5 c 128,-1,14
 806.352539062 103 806.352539062 103 699.352539062 68.5 c 128,-1,15
 592.352539062 34 592.352539062 34 475.352539062 17 c 128,-1,16
 358.352539062 0 358.352539062 0 239.352539062 0 c 1,17,-1
 268.352539062 164 l 1,18,19
 366.352539062 164 366.352539062 164 458.352539062 180 c 128,-1,20
 550.352539062 196 550.352539062 196 631.352539062 224.5 c 128,-1,21
 712.352539062 253 712.352539062 253 779.852539062 294 c 128,-1,22
 847.352539062 335 847.352539062 335 895.352539062 387 c 128,-1,23
 943.352539062 439 943.352539062 439 970.352539062 501 c 128,-1,24
 997.352539062 563 997.352539062 563 997.352539062 634 c 0,25,26
 997.352539062 684 997.352539062 684 979.852539062 729.5 c 128,-1,27
 962.352539062 775 962.352539062 775 929.352539062 810 c 128,-1,28
 896.352539062 845 896.352539062 845 850.352539062 866 c 128,-1,29
 804.352539062 887 804.352539062 887 748.352539062 887 c 0,30,31
 664.352539062 887 664.352539062 887 606.352539062 869.5 c 128,-1,32
 548.352539062 852 548.352539062 852 500.352539062 819 c 1,33,-1
 383.352539062 819 l 1,34,-1
 509.352539062 1536 l 1,35,-1
 1270.35253906 1536 l 1,36,-1
 1241.35253906 1372 l 1,37,-1
 683.352539062 1372 l 1,38,-1
 619.352539062 1006 l 1,0,-1
EndSplineSet
EndChar

StartChar: six
Encoding: 54 54 26
Width: 1331
GlyphClass: 1
Flags: W
LayerCount: 2
Fore
SplineSet
1219.23144531 1376 m 1,0,1
 1213.23144531 1378 1213.23144531 1378 1199.23144531 1378.5 c 128,-1,2
 1185.23144531 1379 1185.23144531 1379 1174.23144531 1379 c 0,3,4
 1084.23144531 1379 1084.23144531 1379 1004.73144531 1356 c 128,-1,5
 925.231445312 1333 925.231445312 1333 856.231445312 1291 c 128,-1,6
 787.231445312 1249 787.231445312 1249 729.731445312 1191 c 128,-1,7
 672.231445312 1133 672.231445312 1133 625.731445312 1062.5 c 128,-1,8
 579.231445312 992 579.231445312 992 543.731445312 912.5 c 128,-1,9
 508.231445312 833 508.231445312 833 484.231445312 748 c 1,10,-1
 591.231445312 867 l 1,11,12
 618.231445312 882 618.231445312 882 651.731445312 897 c 128,-1,13
 685.231445312 912 685.231445312 912 722.231445312 924 c 128,-1,14
 759.231445312 936 759.231445312 936 796.731445312 943 c 128,-1,15
 834.231445312 950 834.231445312 950 867.231445312 950 c 0,16,17
 955.231445312 950 955.231445312 950 1028.73144531 927.5 c 128,-1,18
 1102.23144531 905 1102.23144531 905 1154.23144531 857 c 128,-1,19
 1206.23144531 809 1206.23144531 809 1235.73144531 734 c 128,-1,20
 1265.23144531 659 1265.23144531 659 1265.23144531 554 c 0,21,22
 1265.23144531 439 1265.23144531 439 1221.23144531 335 c 128,-1,23
 1177.23144531 231 1177.23144531 231 1101.23144531 152.5 c 128,-1,24
 1025.23144531 74 1025.23144531 74 923.231445312 27.5 c 128,-1,25
 821.231445312 -19 821.231445312 -19 707.231445312 -19 c 0,26,27
 696.231445312 -19 696.231445312 -19 685.731445312 -18.5 c 128,-1,28
 675.231445312 -18 675.231445312 -18 664.231445312 -17 c 0,29,30
 584.231445312 -11 584.231445312 -11 523.231445312 17 c 128,-1,31
 462.231445312 45 462.231445312 45 418.231445312 87.5 c 128,-1,32
 374.231445312 130 374.231445312 130 344.731445312 185 c 128,-1,33
 315.231445312 240 315.231445312 240 298.231445312 300 c 128,-1,34
 281.231445312 360 281.231445312 360 273.731445312 422 c 128,-1,35
 266.231445312 484 266.231445312 484 266.231445312 543 c 0,36,37
 266.231445312 674 266.231445312 674 298.731445312 800 c 128,-1,38
 331.231445312 926 331.231445312 926 391.231445312 1038 c 128,-1,39
 451.231445312 1150 451.231445312 1150 536.231445312 1244.5 c 128,-1,40
 621.231445312 1339 621.231445312 1339 726.231445312 1408 c 128,-1,41
 831.231445312 1477 831.231445312 1477 954.231445312 1515 c 128,-1,42
 1077.23144531 1553 1077.23144531 1553 1213.23144531 1553 c 0,43,44
 1228.23144531 1553 1228.23144531 1553 1247.23144531 1552.5 c 128,-1,45
 1266.23144531 1552 1266.23144531 1552 1275.23144531 1550 c 1,46,-1
 1219.23144531 1376 l 1,0,1
464.231445312 611 m 1,47,48
 457.231445312 572 457.231445312 572 456.231445312 541.5 c 128,-1,49
 455.231445312 511 455.231445312 511 455.231445312 480 c 0,50,51
 455.231445312 415 455.231445312 415 470.231445312 360 c 128,-1,52
 485.231445312 305 485.231445312 305 516.231445312 262.5 c 128,-1,53
 547.231445312 220 547.231445312 220 592.231445312 192.5 c 128,-1,54
 637.231445312 165 637.231445312 165 696.231445312 157 c 0,55,56
 718.231445312 154 718.231445312 154 738.231445312 154 c 0,57,58
 803.231445312 154 803.231445312 154 861.731445312 183 c 128,-1,59
 920.231445312 212 920.231445312 212 964.731445312 264 c 128,-1,60
 1009.23144531 316 1009.23144531 316 1035.23144531 387.5 c 128,-1,61
 1061.23144531 459 1061.23144531 459 1061.23144531 543 c 0,62,63
 1061.23144531 604 1061.23144531 604 1039.23144531 648.5 c 128,-1,64
 1017.23144531 693 1017.23144531 693 980.231445312 721.5 c 128,-1,65
 943.231445312 750 943.231445312 750 895.231445312 763.5 c 128,-1,66
 847.231445312 777 847.231445312 777 795.231445312 777 c 0,67,68
 695.231445312 777 695.231445312 777 610.231445312 735.5 c 128,-1,69
 525.231445312 694 525.231445312 694 464.231445312 611 c 1,47,48
EndSplineSet
EndChar

StartChar: seven
Encoding: 55 55 27
Width: 1331
GlyphClass: 1
Flags: W
LayerCount: 2
Fore
SplineSet
478.837890625 1536 m 1,0,-1
 1393.83789062 1536 l 1,1,-1
 1369.83789062 1403 l 2,2,3
 1361.83789062 1360 1361.83789062 1360 1317.33789062 1296 c 128,-1,4
 1272.83789062 1232 1272.83789062 1232 1207.33789062 1151.5 c 128,-1,5
 1141.83789062 1071 1141.83789062 1071 1063.83789062 976.5 c 128,-1,6
 985.837890625 882 985.837890625 882 912.837890625 777.5 c 128,-1,7
 839.837890625 673 839.837890625 673 779.837890625 562 c 128,-1,8
 719.837890625 451 719.837890625 451 688.837890625 337 c 0,9,10
 677.837890625 295 677.837890625 295 666.837890625 250 c 128,-1,11
 655.837890625 205 655.837890625 205 646.837890625 161.5 c 128,-1,12
 637.837890625 118 637.837890625 118 630.337890625 76.5 c 128,-1,13
 622.837890625 35 622.837890625 35 616.837890625 0 c 1,14,-1
 413.837890625 0 l 1,15,16
 418.837890625 31 418.837890625 31 428.837890625 82 c 128,-1,17
 438.837890625 133 438.837890625 133 451.837890625 190.5 c 128,-1,18
 464.837890625 248 464.837890625 248 479.337890625 304 c 128,-1,19
 493.837890625 360 493.837890625 360 506.837890625 401 c 0,20,21
 542.837890625 513 542.837890625 513 600.337890625 620 c 128,-1,22
 657.837890625 727 657.837890625 727 724.837890625 825 c 128,-1,23
 791.837890625 923 791.837890625 923 860.837890625 1009 c 128,-1,24
 929.837890625 1095 929.837890625 1095 989.337890625 1165.5 c 128,-1,25
 1048.83789062 1236 1048.83789062 1236 1091.33789062 1288.5 c 128,-1,26
 1133.83789062 1341 1133.83789062 1341 1145.83789062 1372 c 1,27,-1
 450.837890625 1372 l 1,28,-1
 478.837890625 1536 l 1,0,-1
EndSplineSet
EndChar

StartChar: eight
Encoding: 56 56 28
Width: 1331
GlyphClass: 1
Flags: W
LayerCount: 2
Fore
SplineSet
917.40625 1553 m 2,0,1
 1000.40625 1550 1000.40625 1550 1067.40625 1527 c 128,-1,2
 1134.40625 1504 1134.40625 1504 1180.90625 1463 c 128,-1,3
 1227.40625 1422 1227.40625 1422 1252.90625 1363 c 128,-1,4
 1278.40625 1304 1278.40625 1304 1278.40625 1228 c 0,5,6
 1278.40625 1154 1278.40625 1154 1256.40625 1099 c 128,-1,7
 1234.40625 1044 1234.40625 1044 1197.40625 1002.5 c 128,-1,8
 1160.40625 961 1160.40625 961 1111.40625 928 c 128,-1,9
 1062.40625 895 1062.40625 895 1007.40625 866 c 1,10,11
 1061.40625 842 1061.40625 842 1105.40625 798 c 128,-1,12
 1149.40625 754 1149.40625 754 1179.90625 699 c 128,-1,13
 1210.40625 644 1210.40625 644 1227.40625 583.5 c 128,-1,14
 1244.40625 523 1244.40625 523 1244.40625 469 c 0,15,16
 1244.40625 336 1244.40625 336 1199.90625 243.5 c 128,-1,17
 1155.40625 151 1155.40625 151 1079.90625 93 c 128,-1,18
 1004.40625 35 1004.40625 35 905.90625 9 c 128,-1,19
 807.40625 -17 807.40625 -17 697.40625 -17 c 0,20,21
 601.40625 -17 601.40625 -17 516.90625 6 c 128,-1,22
 432.40625 29 432.40625 29 369.40625 77.5 c 128,-1,23
 306.40625 126 306.40625 126 269.90625 200 c 128,-1,24
 233.40625 274 233.40625 274 233.40625 377 c 0,25,26
 233.40625 468 233.40625 468 261.90625 544.5 c 128,-1,27
 290.40625 621 290.40625 621 341.40625 682 c 128,-1,28
 392.40625 743 392.40625 743 461.40625 790 c 128,-1,29
 530.40625 837 530.40625 837 610.40625 870 c 1,30,31
 534.40625 924 534.40625 924 488.40625 999 c 128,-1,32
 442.40625 1074 442.40625 1074 442.40625 1159 c 0,33,34
 442.40625 1230 442.40625 1230 460.90625 1286 c 128,-1,35
 479.40625 1342 479.40625 1342 511.40625 1386.5 c 128,-1,36
 543.40625 1431 543.40625 1431 586.90625 1462 c 128,-1,37
 630.40625 1493 630.40625 1493 680.90625 1513.5 c 128,-1,38
 731.40625 1534 731.40625 1534 785.90625 1543.5 c 128,-1,39
 840.40625 1553 840.40625 1553 895.40625 1553 c 2,40,-1
 917.40625 1553 l 2,0,1
770.40625 778 m 1,41,42
 700.40625 750 700.40625 750 638.40625 717.5 c 128,-1,43
 576.40625 685 576.40625 685 528.90625 643 c 128,-1,44
 481.40625 601 481.40625 601 453.90625 547.5 c 128,-1,45
 426.40625 494 426.40625 494 426.40625 424 c 0,46,47
 426.40625 353 426.40625 353 448.90625 301.5 c 128,-1,48
 471.40625 250 471.40625 250 510.90625 215.5 c 128,-1,49
 550.40625 181 550.40625 181 603.40625 164.5 c 128,-1,50
 656.40625 148 656.40625 148 716.40625 148 c 256,51,52
 776.40625 148 776.40625 148 836.40625 168 c 128,-1,53
 896.40625 188 896.40625 188 943.90625 224.5 c 128,-1,54
 991.40625 261 991.40625 261 1020.40625 311.5 c 128,-1,55
 1049.40625 362 1049.40625 362 1049.40625 425 c 0,56,57
 1049.40625 497 1049.40625 497 1026.90625 551.5 c 128,-1,58
 1004.40625 606 1004.40625 606 965.90625 647.5 c 128,-1,59
 927.40625 689 927.40625 689 876.90625 720 c 128,-1,60
 826.40625 751 826.40625 751 770.40625 778 c 1,41,42
840.40625 945 m 1,61,62
 891.40625 967 891.40625 967 937.40625 991.5 c 128,-1,63
 983.40625 1016 983.40625 1016 1016.90625 1045.5 c 128,-1,64
 1050.40625 1075 1050.40625 1075 1070.40625 1111.5 c 128,-1,65
 1090.40625 1148 1090.40625 1148 1090.40625 1191 c 0,66,67
 1090.40625 1247 1090.40625 1247 1071.40625 1286 c 128,-1,68
 1052.40625 1325 1052.40625 1325 1022.40625 1349.5 c 128,-1,69
 992.40625 1374 992.40625 1374 955.40625 1385 c 128,-1,70
 918.40625 1396 918.40625 1396 881.40625 1396 c 0,71,72
 837.40625 1396 837.40625 1396 793.40625 1379 c 128,-1,73
 749.40625 1362 749.40625 1362 714.90625 1334 c 128,-1,74
 680.40625 1306 680.40625 1306 658.40625 1269.5 c 128,-1,75
 636.40625 1233 636.40625 1233 636.40625 1195 c 0,76,77
 636.40625 1147 636.40625 1147 650.90625 1110.5 c 128,-1,78
 665.40625 1074 665.40625 1074 692.90625 1045 c 128,-1,79
 720.40625 1016 720.40625 1016 757.90625 992 c 128,-1,80
 795.40625 968 795.40625 968 840.40625 945 c 1,61,62
EndSplineSet
EndChar

StartChar: nine
Encoding: 57 57 29
Width: 1331
GlyphClass: 1
Flags: W
LayerCount: 2
Fore
SplineSet
1013.12792969 679 m 1,0,1
 980.127929688 656 980.127929688 656 948.627929688 639 c 128,-1,2
 917.127929688 622 917.127929688 622 886.127929688 610.5 c 128,-1,3
 855.127929688 599 855.127929688 599 822.127929688 593 c 128,-1,4
 789.127929688 587 789.127929688 587 752.127929688 587 c 0,5,6
 662.127929688 587 662.127929688 587 588.627929688 616.5 c 128,-1,7
 515.127929688 646 515.127929688 646 462.627929688 703 c 128,-1,8
 410.127929688 760 410.127929688 760 381.627929688 843 c 128,-1,9
 353.127929688 926 353.127929688 926 353.127929688 1032 c 0,10,11
 353.127929688 1147 353.127929688 1147 395.127929688 1242.5 c 128,-1,12
 437.127929688 1338 437.127929688 1338 508.627929688 1407.5 c 128,-1,13
 580.127929688 1477 580.127929688 1477 675.127929688 1515 c 128,-1,14
 770.127929688 1553 770.127929688 1553 875.127929688 1553 c 0,15,16
 967.127929688 1553 967.127929688 1553 1037.12792969 1532 c 128,-1,17
 1107.12792969 1511 1107.12792969 1511 1157.62792969 1474.5 c 128,-1,18
 1208.12792969 1438 1208.12792969 1438 1242.12792969 1388 c 128,-1,19
 1276.12792969 1338 1276.12792969 1338 1296.12792969 1281 c 128,-1,20
 1316.12792969 1224 1316.12792969 1224 1324.12792969 1161 c 128,-1,21
 1332.12792969 1098 1332.12792969 1098 1332.12792969 1035 c 0,22,23
 1332.12792969 890 1332.12792969 890 1300.12792969 756 c 128,-1,24
 1268.12792969 622 1268.12792969 622 1208.62792969 504.5 c 128,-1,25
 1149.12792969 387 1149.12792969 387 1064.12792969 291 c 128,-1,26
 979.127929688 195 979.127929688 195 873.627929688 126.5 c 128,-1,27
 768.127929688 58 768.127929688 58 644.627929688 20.5 c 128,-1,28
 521.127929688 -17 521.127929688 -17 384.127929688 -17 c 1,29,-1
 384.127929688 154 l 1,30,31
 512.127929688 157 512.127929688 157 633.127929688 203.5 c 128,-1,32
 754.127929688 250 754.127929688 250 854.127929688 334 c 128,-1,33
 954.127929688 418 954.127929688 418 1023.12792969 535.5 c 128,-1,34
 1092.12792969 653 1092.12792969 653 1116.12792969 799 c 1,35,-1
 1013.12792969 679 l 1,0,1
1135.12792969 976 m 1,36,37
 1136.12792969 989 1136.12792969 989 1136.12792969 1001 c 2,38,-1
 1136.12792969 1028 l 2,39,40
 1136.12792969 1102 1136.12792969 1102 1123.62792969 1166.5 c 128,-1,41
 1111.12792969 1231 1111.12792969 1231 1080.62792969 1278.5 c 128,-1,42
 1050.12792969 1326 1050.12792969 1326 1000.12792969 1353.5 c 128,-1,43
 950.127929688 1381 950.127929688 1381 874.127929688 1381 c 0,44,45
 797.127929688 1381 797.127929688 1381 737.127929688 1352 c 128,-1,46
 677.127929688 1323 677.127929688 1323 636.127929688 1273 c 128,-1,47
 595.127929688 1223 595.127929688 1223 573.627929688 1156 c 128,-1,48
 552.127929688 1089 552.127929688 1089 552.127929688 1014 c 0,49,50
 552.127929688 957 552.127929688 957 567.627929688 909.5 c 128,-1,51
 583.127929688 862 583.127929688 862 615.127929688 829 c 128,-1,52
 647.127929688 796 647.127929688 796 695.627929688 777.5 c 128,-1,53
 744.127929688 759 744.127929688 759 810.127929688 759 c 0,54,55
 860.127929688 759 860.127929688 759 908.627929688 775.5 c 128,-1,56
 957.127929688 792 957.127929688 792 1000.12792969 820.5 c 128,-1,57
 1043.12792969 849 1043.12792969 849 1077.62792969 889 c 128,-1,58
 1112.12792969 929 1112.12792969 929 1135.12792969 976 c 1,36,37
EndSplineSet
EndChar

StartChar: colon
Encoding: 58 58 30
Width: 1331
GlyphClass: 1
Flags: W
LayerCount: 2
Fore
SplineSet
537.426757812 136 m 0,0,1
 543.426757812 168 543.426757812 168 560.426757812 195.5 c 128,-1,2
 577.426757812 223 577.426757812 223 601.426757812 243.5 c 128,-1,3
 625.426757812 264 625.426757812 264 654.926757812 276 c 128,-1,4
 684.426757812 288 684.426757812 288 715.426757812 288 c 256,5,6
 747.426757812 288 747.426757812 288 772.926757812 276 c 128,-1,7
 798.426757812 264 798.426757812 264 815.426757812 243.5 c 128,-1,8
 832.426757812 223 832.426757812 223 839.426757812 195.5 c 128,-1,9
 846.426757812 168 846.426757812 168 840.426757812 136 c 0,10,11
 835.426757812 104 835.426757812 104 818.426757812 76 c 128,-1,12
 801.426757812 48 801.426757812 48 777.426757812 27.5 c 128,-1,13
 753.426757812 7 753.426757812 7 724.426757812 -5 c 128,-1,14
 695.426757812 -17 695.426757812 -17 664.426757812 -17 c 0,15,16
 632.426757812 -17 632.426757812 -17 606.426757812 -5 c 128,-1,17
 580.426757812 7 580.426757812 7 563.426757812 27.5 c 128,-1,18
 546.426757812 48 546.426757812 48 539.426757812 76 c 128,-1,19
 532.426757812 104 532.426757812 104 537.426757812 136 c 0,0,1
630.426757812 663 m 256,20,21
 635.426757812 695 635.426757812 695 652.926757812 722.5 c 128,-1,22
 670.426757812 750 670.426757812 750 694.426757812 770.5 c 128,-1,23
 718.426757812 791 718.426757812 791 747.926757812 802.5 c 128,-1,24
 777.426757812 814 777.426757812 814 809.426757812 814 c 256,25,26
 841.426757812 814 841.426757812 814 866.926757812 802.5 c 128,-1,27
 892.426757812 791 892.426757812 791 908.926757812 770.5 c 128,-1,28
 925.426757812 750 925.426757812 750 932.426757812 722 c 128,-1,29
 939.426757812 694 939.426757812 694 934.426757812 663 c 256,30,31
 929.426757812 631 929.426757812 631 912.426757812 602.5 c 128,-1,32
 895.426757812 574 895.426757812 574 870.926757812 554 c 128,-1,33
 846.426757812 534 846.426757812 534 817.426757812 521.5 c 128,-1,34
 788.426757812 509 788.426757812 509 757.426757812 509 c 0,35,36
 725.426757812 509 725.426757812 509 699.426757812 521.5 c 128,-1,37
 673.426757812 534 673.426757812 534 656.926757812 554 c 128,-1,38
 640.426757812 574 640.426757812 574 632.926757812 602.5 c 128,-1,39
 625.426757812 631 625.426757812 631 630.426757812 663 c 256,20,21
EndSplineSet
EndChar

StartChar: semicolon
Encoding: 59 59 31
Width: 1331
GlyphClass: 1
Flags: W
LayerCount: 2
Fore
SplineSet
629.280273438 656 m 256,0,1
 634.280273438 688 634.280273438 688 651.780273438 715.5 c 128,-1,2
 669.280273438 743 669.280273438 743 693.280273438 763.5 c 128,-1,3
 717.280273438 784 717.280273438 784 746.780273438 796 c 128,-1,4
 776.280273438 808 776.280273438 808 808.280273438 808 c 256,5,6
 840.280273438 808 840.280273438 808 865.780273438 796 c 128,-1,7
 891.280273438 784 891.280273438 784 907.780273438 763.5 c 128,-1,8
 924.280273438 743 924.280273438 743 931.280273438 715.5 c 128,-1,9
 938.280273438 688 938.280273438 688 933.280273438 656 c 256,10,11
 928.280273438 624 928.280273438 624 911.280273438 596 c 128,-1,12
 894.280273438 568 894.280273438 568 869.780273438 547.5 c 128,-1,13
 845.280273438 527 845.280273438 527 816.280273438 515 c 128,-1,14
 787.280273438 503 787.280273438 503 756.280273438 503 c 0,15,16
 724.280273438 503 724.280273438 503 698.280273438 515 c 128,-1,17
 672.280273438 527 672.280273438 527 655.780273438 547.5 c 128,-1,18
 639.280273438 568 639.280273438 568 631.780273438 596 c 128,-1,19
 624.280273438 624 624.280273438 624 629.280273438 656 c 256,0,1
536.280273438 130 m 0,20,21
 542.280273438 160 542.280273438 160 558.780273438 187 c 128,-1,22
 575.280273438 214 575.280273438 214 599.780273438 233.5 c 128,-1,23
 624.280273438 253 624.280273438 253 654.280273438 265.5 c 128,-1,24
 684.280273438 278 684.280273438 278 714.280273438 278 c 0,25,26
 744.280273438 278 744.280273438 278 769.280273438 267 c 128,-1,27
 794.280273438 256 794.280273438 256 811.780273438 235.5 c 128,-1,28
 829.280273438 215 829.280273438 215 836.280273438 184 c 128,-1,29
 843.280273438 153 843.280273438 153 836.280273438 113 c 0,30,31
 827.280273438 59 827.280273438 59 811.780273438 8 c 128,-1,32
 796.280273438 -43 796.280273438 -43 766.280273438 -95 c 128,-1,33
 736.280273438 -147 736.280273438 -147 687.780273438 -201.5 c 128,-1,34
 639.280273438 -256 639.280273438 -256 565.280273438 -314 c 1,35,-1
 516.280273438 -291 l 1,36,37
 548.280273438 -246 548.280273438 -246 574.280273438 -198 c 0,38,39
 597.280273438 -158 597.280273438 -158 618.280273438 -110 c 128,-1,40
 639.280273438 -62 639.280273438 -62 647.280273438 -17 c 1,41,42
 621.280273438 -16 621.280273438 -16 598.780273438 -6 c 128,-1,43
 576.280273438 4 576.280273438 4 559.780273438 22 c 128,-1,44
 543.280273438 40 543.280273438 40 536.780273438 67.5 c 128,-1,45
 530.280273438 95 530.280273438 95 536.280273438 130 c 0,20,21
EndSplineSet
EndChar

StartChar: less
Encoding: 60 60 32
Width: 1331
GlyphClass: 1
Flags: W
LayerCount: 2
Fore
SplineSet
1339.96289062 1215 m 1,0,-1
 1307.96289062 1036 l 1,1,-1
 537.962890625 662 l 1,2,-1
 454.962890625 641 l 1,3,-1
 529.962890625 621 l 1,4,-1
 1168.96289062 248 l 1,5,-1
 1136.96289062 69 l 1,6,-1
 299.962890625 537 l 1,7,-1
 337.962890625 751 l 1,8,-1
 1339.96289062 1215 l 1,0,-1
EndSplineSet
EndChar

StartChar: equal
Encoding: 61 61 33
Width: 1331
GlyphClass: 1
Flags: W
LayerCount: 2
Fore
SplineSet
451.775390625 918 m 5,0,-1
 1168.77539062 918 l 5,1,-1
 1139.77539062 759 l 5,2,-1
 423.775390625 759 l 5,3,-1
 451.775390625 918 l 5,0,-1
378.775390625 443 m 5,4,-1
 1095.77539062 443 l 5,5,-1
 1068.77539062 284 l 5,6,-1
 351.775390625 284 l 5,7,-1
 378.775390625 443 l 5,4,-1
EndSplineSet
EndChar

StartChar: greater
Encoding: 62 62 34
Width: 1331
GlyphClass: 1
Flags: W
LayerCount: 2
Fore
SplineSet
1258.07617188 751 m 1,0,-1
 1220.07617188 537 l 1,1,-1
 218.076171875 69 l 1,2,-1
 249.076171875 248 l 1,3,-1
 1019.07617188 621 l 1,4,-1
 1102.07617188 641 l 1,5,-1
 1026.07617188 662 l 1,6,-1
 389.076171875 1036 l 1,7,-1
 420.076171875 1215 l 1,8,-1
 1258.07617188 751 l 1,0,-1
EndSplineSet
EndChar

StartChar: question
Encoding: 63 63 35
Width: 1331
GlyphClass: 1
Flags: W
LayerCount: 2
Fore
SplineSet
942.080078125 1553 m 0,0,1
 1032.08007812 1553 1032.08007812 1553 1104.58007812 1528.5 c 128,-1,2
 1177.08007812 1504 1177.08007812 1504 1227.08007812 1459 c 128,-1,3
 1277.08007812 1414 1277.08007812 1414 1304.08007812 1349 c 128,-1,4
 1331.08007812 1284 1331.08007812 1284 1331.08007812 1204 c 0,5,6
 1331.08007812 1131 1331.08007812 1131 1310.08007812 1076.5 c 128,-1,7
 1289.08007812 1022 1289.08007812 1022 1253.58007812 978 c 128,-1,8
 1218.08007812 934 1218.08007812 934 1173.08007812 898 c 128,-1,9
 1128.08007812 862 1128.08007812 862 1080.08007812 828 c 128,-1,10
 1032.08007812 794 1032.08007812 794 984.080078125 758 c 128,-1,11
 936.080078125 722 936.080078125 722 897.080078125 679.5 c 128,-1,12
 858.080078125 637 858.080078125 637 831.080078125 583.5 c 128,-1,13
 804.080078125 530 804.080078125 530 796.080078125 461 c 1,14,-1
 577.080078125 439 l 1,15,16
 586.080078125 532 586.080078125 532 614.580078125 602 c 128,-1,17
 643.080078125 672 643.080078125 672 682.580078125 725.5 c 128,-1,18
 722.080078125 779 722.080078125 779 770.080078125 820 c 128,-1,19
 818.080078125 861 818.080078125 861 866.080078125 895.5 c 128,-1,20
 914.080078125 930 914.080078125 930 959.580078125 961 c 128,-1,21
 1005.08007812 992 1005.08007812 992 1040.08007812 1027 c 128,-1,22
 1075.08007812 1062 1075.08007812 1062 1096.08007812 1104 c 128,-1,23
 1117.08007812 1146 1117.08007812 1146 1117.08007812 1201 c 0,24,25
 1117.08007812 1248 1117.08007812 1248 1100.08007812 1283 c 128,-1,26
 1083.08007812 1318 1083.08007812 1318 1052.08007812 1340 c 128,-1,27
 1021.08007812 1362 1021.08007812 1362 979.080078125 1372.5 c 128,-1,28
 937.080078125 1383 937.080078125 1383 887.080078125 1383 c 256,29,30
 837.080078125 1383 837.080078125 1383 794.580078125 1375 c 128,-1,31
 752.080078125 1367 752.080078125 1367 713.080078125 1348 c 128,-1,32
 674.080078125 1329 674.080078125 1329 635.580078125 1297.5 c 128,-1,33
 597.080078125 1266 597.080078125 1266 555.080078125 1219 c 1,34,-1
 440.080078125 1331 l 1,35,36
 490.080078125 1396 490.080078125 1396 549.580078125 1438.5 c 128,-1,37
 609.080078125 1481 609.080078125 1481 673.580078125 1506.5 c 128,-1,38
 738.080078125 1532 738.080078125 1532 805.580078125 1542.5 c 128,-1,39
 873.080078125 1553 873.080078125 1553 942.080078125 1553 c 0,0,1
502.080078125 108 m 0,40,41
 502.080078125 132 502.080078125 132 513.080078125 153.5 c 128,-1,42
 524.080078125 175 524.080078125 175 541.080078125 192.5 c 128,-1,43
 558.080078125 210 558.080078125 210 582.080078125 220 c 128,-1,44
 606.080078125 230 606.080078125 230 630.080078125 230 c 0,45,46
 685.080078125 230 685.080078125 230 715.580078125 196 c 128,-1,47
 746.080078125 162 746.080078125 162 746.080078125 108 c 0,48,49
 746.080078125 84 746.080078125 84 736.580078125 62 c 128,-1,50
 727.080078125 40 727.080078125 40 711.080078125 22 c 128,-1,51
 695.080078125 4 695.080078125 4 672.580078125 -6.5 c 128,-1,52
 650.080078125 -17 650.080078125 -17 624.080078125 -17 c 0,53,54
 567.080078125 -17 567.080078125 -17 534.580078125 18 c 128,-1,55
 502.080078125 53 502.080078125 53 502.080078125 108 c 0,40,41
EndSplineSet
EndChar

StartChar: at
Encoding: 64 64 36
Width: 1331
GlyphClass: 1
Flags: W
LayerCount: 2
Fore
SplineSet
863.447265625 717 m 1,0,-1
 919.447265625 858 l 1,1,2
 900.447265625 860 900.447265625 860 883.947265625 854 c 128,-1,3
 867.447265625 848 867.447265625 848 852.447265625 840 c 0,4,5
 833.447265625 829 833.447265625 829 804.447265625 799.5 c 128,-1,6
 775.447265625 770 775.447265625 770 745.947265625 724 c 128,-1,7
 716.447265625 678 716.447265625 678 688.947265625 614.5 c 128,-1,8
 661.447265625 551 661.447265625 551 645.447265625 473 c 0,9,10
 619.447265625 354 619.447265625 354 622.947265625 281.5 c 128,-1,11
 626.447265625 209 626.447265625 209 648.947265625 174 c 128,-1,12
 671.447265625 139 671.447265625 139 705.947265625 137 c 128,-1,13
 740.447265625 135 740.447265625 135 776.447265625 159 c 1,14,-1
 863.447265625 717 l 1,0,-1
954.447265625 -35 m 0,15,16
 908.447265625 -35 908.447265625 -35 877.947265625 -23 c 128,-1,17
 847.447265625 -11 847.447265625 -11 828.447265625 6 c 128,-1,18
 809.447265625 23 809.447265625 23 799.447265625 40.5 c 128,-1,19
 789.447265625 58 789.447265625 58 785.447265625 71 c 1,20,-1
 726.447265625 -17 l 1,21,22
 652.447265625 -17 652.447265625 -17 596.447265625 16.5 c 128,-1,23
 540.447265625 50 540.447265625 50 507.447265625 112.5 c 128,-1,24
 474.447265625 175 474.447265625 175 464.947265625 262 c 128,-1,25
 455.447265625 349 455.447265625 349 473.447265625 457 c 0,26,27
 489.447265625 559 489.447265625 559 533.947265625 657.5 c 128,-1,28
 578.447265625 756 578.447265625 756 640.947265625 833 c 128,-1,29
 703.447265625 910 703.447265625 910 779.947265625 957.5 c 128,-1,30
 856.447265625 1005 856.447265625 1005 938.447265625 1005 c 0,31,32
 1021.44726562 1005 1021.44726562 1005 1078.44726562 981 c 1,33,-1
 951.447265625 184 l 2,34,35
 943.447265625 144 943.447265625 144 952.447265625 123 c 128,-1,36
 961.447265625 102 961.447265625 102 985.447265625 102 c 0,37,38
 1005.44726562 102 1005.44726562 102 1024.44726562 127.5 c 128,-1,39
 1043.44726562 153 1043.44726562 153 1060.44726562 191.5 c 128,-1,40
 1077.44726562 230 1077.44726562 230 1091.44726562 278.5 c 128,-1,41
 1105.44726562 327 1105.44726562 327 1115.94726562 372.5 c 128,-1,42
 1126.44726562 418 1126.44726562 418 1134.44726562 456 c 128,-1,43
 1142.44726562 494 1142.44726562 494 1145.44726562 513 c 0,44,45
 1153.44726562 561 1153.44726562 561 1162.94726562 623.5 c 128,-1,46
 1172.44726562 686 1172.44726562 686 1179.94726562 754.5 c 128,-1,47
 1187.44726562 823 1187.44726562 823 1189.94726562 895 c 128,-1,48
 1192.44726562 967 1192.44726562 967 1186.94726562 1034.5 c 128,-1,49
 1181.44726562 1102 1181.44726562 1102 1166.44726562 1161.5 c 128,-1,50
 1151.44726562 1221 1151.44726562 1221 1122.44726562 1265.5 c 128,-1,51
 1093.44726562 1310 1093.44726562 1310 1049.44726562 1336 c 128,-1,52
 1005.44726562 1362 1005.44726562 1362 942.447265625 1362 c 0,53,54
 889.447265625 1362 889.447265625 1362 832.447265625 1333 c 128,-1,55
 775.447265625 1304 775.447265625 1304 718.947265625 1251.5 c 128,-1,56
 662.447265625 1199 662.447265625 1199 610.447265625 1127.5 c 128,-1,57
 558.447265625 1056 558.447265625 1056 514.447265625 971 c 128,-1,58
 470.447265625 886 470.447265625 886 437.447265625 791 c 128,-1,59
 404.447265625 696 404.447265625 696 387.447265625 598 c 0,60,61
 370.447265625 501 370.447265625 501 360.447265625 405 c 128,-1,62
 350.447265625 309 350.447265625 309 350.447265625 219 c 0,63,64
 350.447265625 118 350.447265625 118 364.947265625 30.5 c 128,-1,65
 379.447265625 -57 379.447265625 -57 411.447265625 -121.5 c 128,-1,66
 443.447265625 -186 443.447265625 -186 495.947265625 -223 c 128,-1,67
 548.447265625 -260 548.447265625 -260 623.447265625 -260 c 0,68,69
 654.447265625 -260 654.447265625 -260 684.447265625 -252.5 c 128,-1,70
 714.447265625 -245 714.447265625 -245 741.947265625 -232.5 c 128,-1,71
 769.447265625 -220 769.447265625 -220 791.447265625 -205.5 c 128,-1,72
 813.447265625 -191 813.447265625 -191 827.447265625 -177 c 1,73,-1
 799.447265625 -358 l 1,74,75
 787.447265625 -369 787.447265625 -369 766.447265625 -380.5 c 128,-1,76
 745.447265625 -392 745.447265625 -392 717.947265625 -401 c 128,-1,77
 690.447265625 -410 690.447265625 -410 657.947265625 -415 c 128,-1,78
 625.447265625 -420 625.447265625 -420 591.447265625 -420 c 0,79,80
 479.447265625 -420 479.447265625 -420 401.447265625 -376 c 128,-1,81
 323.447265625 -332 323.447265625 -332 274.947265625 -253.5 c 128,-1,82
 226.447265625 -175 226.447265625 -175 204.447265625 -66.5 c 128,-1,83
 182.447265625 42 182.447265625 42 182.447265625 170 c 0,84,85
 182.447265625 260 182.447265625 260 191.947265625 355.5 c 128,-1,86
 201.447265625 451 201.447265625 451 219.447265625 553 c 0,87,88
 243.447265625 687 243.447265625 687 282.947265625 811 c 128,-1,89
 322.447265625 935 322.447265625 935 376.447265625 1043 c 128,-1,90
 430.447265625 1151 430.447265625 1151 496.447265625 1239 c 128,-1,91
 562.447265625 1327 562.447265625 1327 638.447265625 1390 c 128,-1,92
 714.447265625 1453 714.447265625 1453 798.947265625 1487.5 c 128,-1,93
 883.447265625 1522 883.447265625 1522 975.447265625 1522 c 0,94,95
 1054.44726562 1522 1054.44726562 1522 1112.94726562 1496 c 128,-1,96
 1171.44726562 1470 1171.44726562 1470 1213.44726562 1425.5 c 128,-1,97
 1255.44726562 1381 1255.44726562 1381 1282.44726562 1321 c 128,-1,98
 1309.44726562 1261 1309.44726562 1261 1324.44726562 1190 c 128,-1,99
 1339.44726562 1119 1339.44726562 1119 1343.94726562 1042 c 128,-1,100
 1348.44726562 965 1348.44726562 965 1345.44726562 887 c 128,-1,101
 1342.44726562 809 1342.44726562 809 1333.44726562 733.5 c 128,-1,102
 1324.44726562 658 1324.44726562 658 1313.44726562 592 c 0,103,104
 1291.44726562 469 1291.44726562 469 1263.44726562 356 c 128,-1,105
 1235.44726562 243 1235.44726562 243 1193.94726562 156 c 128,-1,106
 1152.44726562 69 1152.44726562 69 1093.94726562 17 c 128,-1,107
 1035.44726562 -35 1035.44726562 -35 954.447265625 -35 c 0,15,16
EndSplineSet
EndChar

StartChar: A
Encoding: 65 65 37
Width: 1331
GlyphClass: 1
Flags: W
LayerCount: 2
Fore
SplineSet
34.5 0 m 1,0,-1
 752.5 1331 l 1,1,-1
 824.5 1536 l 1,2,-1
 1010.5 1556 l 1,3,-1
 1296.5 0 l 1,4,-1
 1091.5 0 l 1,5,-1
 1022.5 461 l 1,6,-1
 474.5 461 l 1,7,-1
 222.5 0 l 1,8,-1
 34.5 0 l 1,0,-1
914.5 1434 m 1,9,-1
 811.5 1106 l 1,10,-1
 551.5 614 l 1,11,-1
 998.5 614 l 1,12,-1
 903.5 1106 l 1,13,-1
 914.5 1434 l 1,9,-1
EndSplineSet
EndChar

StartChar: B
Encoding: 66 66 38
Width: 1331
GlyphClass: 1
Flags: W
LayerCount: 2
Fore
SplineSet
628.625976562 1392 m 1,0,-1
 611.625976562 1175 l 1,1,-1
 564.625976562 906 l 1,2,-1
 677.625976562 906 l 2,3,4
 755.625976562 906 755.625976562 906 827.125976562 922.5 c 128,-1,5
 898.625976562 939 898.625976562 939 953.125976562 975 c 128,-1,6
 1007.62597656 1011 1007.62597656 1011 1040.62597656 1067.5 c 128,-1,7
 1073.62597656 1124 1073.62597656 1124 1073.62597656 1204 c 0,8,9
 1073.62597656 1262 1073.62597656 1262 1050.12597656 1301.5 c 128,-1,10
 1026.62597656 1341 1026.62597656 1341 986.625976562 1365 c 128,-1,11
 946.625976562 1389 946.625976562 1389 894.625976562 1398.5 c 128,-1,12
 842.625976562 1408 842.625976562 1408 787.625976562 1408 c 0,13,14
 770.625976562 1408 770.625976562 1408 749.625976562 1407 c 128,-1,15
 728.625976562 1406 728.625976562 1406 707.125976562 1403.5 c 128,-1,16
 685.625976562 1401 685.625976562 1401 665.125976562 1398 c 128,-1,17
 644.625976562 1395 644.625976562 1395 628.625976562 1392 c 1,0,-1
199.625976562 0 m 1,18,-1
 432.625976562 1321 l 1,19,-1
 439.625976562 1526 l 1,20,21
 470.625976562 1530 470.625976562 1530 510.125976562 1534 c 128,-1,22
 549.625976562 1538 549.625976562 1538 591.125976562 1540.5 c 128,-1,23
 632.625976562 1543 632.625976562 1543 672.625976562 1544.5 c 128,-1,24
 712.625976562 1546 712.625976562 1546 745.625976562 1546 c 0,25,26
 854.625976562 1546 854.625976562 1546 949.125976562 1532 c 128,-1,27
 1043.62597656 1518 1043.62597656 1518 1114.12597656 1482.5 c 128,-1,28
 1184.62597656 1447 1184.62597656 1447 1225.62597656 1387 c 128,-1,29
 1266.62597656 1327 1266.62597656 1327 1266.62597656 1235 c 0,30,31
 1266.62597656 1164 1266.62597656 1164 1246.12597656 1106.5 c 128,-1,32
 1225.62597656 1049 1225.62597656 1049 1191.12597656 1004 c 128,-1,33
 1156.62597656 959 1156.62597656 959 1111.62597656 928 c 128,-1,34
 1066.62597656 897 1066.62597656 897 1016.62597656 881 c 2,35,-1
 850.625976562 836 l 1,36,-1
 998.625976562 821 l 1,37,38
 1052.62597656 804 1052.62597656 804 1097.12597656 779 c 128,-1,39
 1141.62597656 754 1141.62597656 754 1174.12597656 718 c 128,-1,40
 1206.62597656 682 1206.62597656 682 1224.62597656 633.5 c 128,-1,41
 1242.62597656 585 1242.62597656 585 1242.62597656 522 c 0,42,43
 1242.62597656 427 1242.62597656 427 1217.62597656 351.5 c 128,-1,44
 1192.62597656 276 1192.62597656 276 1148.12597656 218 c 128,-1,45
 1103.62597656 160 1103.62597656 160 1043.12597656 119 c 128,-1,46
 982.625976562 78 982.625976562 78 911.625976562 51.5 c 128,-1,47
 840.625976562 25 840.625976562 25 762.625976562 12.5 c 128,-1,48
 684.625976562 0 684.625976562 0 605.625976562 0 c 2,49,-1
 199.625976562 0 l 1,18,-1
433.625976562 164 m 1,50,-1
 576.625976562 164 l 2,51,52
 686.625976562 164 686.625976562 164 773.125976562 180 c 128,-1,53
 859.625976562 196 859.625976562 196 920.125976562 234.5 c 128,-1,54
 980.625976562 273 980.625976562 273 1012.12597656 338.5 c 128,-1,55
 1043.62597656 404 1043.62597656 404 1043.62597656 505 c 0,56,57
 1043.62597656 571 1043.62597656 571 1019.12597656 617 c 128,-1,58
 994.625976562 663 994.625976562 663 951.125976562 692 c 128,-1,59
 907.625976562 721 907.625976562 721 848.125976562 734.5 c 128,-1,60
 788.625976562 748 788.625976562 748 720.625976562 748 c 2,61,-1
 535.625976562 748 l 1,62,-1
 433.625976562 164 l 1,50,-1
EndSplineSet
EndChar

StartChar: C
Encoding: 67 67 39
Width: 1331
GlyphClass: 1
Flags: W
LayerCount: 2
Fore
SplineSet
1196.55859375 97 m 1,0,1
 1176.55859375 83 1176.55859375 83 1139.55859375 63.5 c 128,-1,2
 1102.55859375 44 1102.55859375 44 1049.05859375 26 c 128,-1,3
 995.55859375 8 995.55859375 8 925.05859375 -4.5 c 128,-1,4
 854.55859375 -17 854.55859375 -17 765.55859375 -17 c 0,5,6
 643.55859375 -17 643.55859375 -17 553.05859375 31.5 c 128,-1,7
 462.55859375 80 462.55859375 80 402.55859375 166.5 c 128,-1,8
 342.55859375 253 342.55859375 253 313.05859375 371.5 c 128,-1,9
 283.55859375 490 283.55859375 490 283.55859375 631 c 0,10,11
 283.55859375 756 283.55859375 756 305.55859375 873 c 128,-1,12
 327.55859375 990 327.55859375 990 370.55859375 1092.5 c 128,-1,13
 413.55859375 1195 413.55859375 1195 477.05859375 1280 c 128,-1,14
 540.55859375 1365 540.55859375 1365 623.05859375 1425.5 c 128,-1,15
 705.55859375 1486 705.55859375 1486 807.55859375 1519.5 c 128,-1,16
 909.55859375 1553 909.55859375 1553 1029.55859375 1553 c 0,17,18
 1278.55859375 1553 1278.55859375 1553 1413.55859375 1418 c 1,19,-1
 1313.55859375 1293 l 1,20,21
 1250.55859375 1337 1250.55859375 1337 1182.05859375 1355 c 128,-1,22
 1113.55859375 1373 1113.55859375 1373 1023.55859375 1373 c 0,23,24
 927.55859375 1373 927.55859375 1373 850.55859375 1343.5 c 128,-1,25
 773.55859375 1314 773.55859375 1314 714.05859375 1261 c 128,-1,26
 654.55859375 1208 654.55859375 1208 611.55859375 1136 c 128,-1,27
 568.55859375 1064 568.55859375 1064 541.55859375 980.5 c 128,-1,28
 514.55859375 897 514.55859375 897 501.55859375 805 c 128,-1,29
 488.55859375 713 488.55859375 713 488.55859375 620 c 0,30,31
 488.55859375 531 488.55859375 531 501.55859375 447.5 c 128,-1,32
 514.55859375 364 514.55859375 364 550.55859375 299 c 128,-1,33
 586.55859375 234 586.55859375 234 652.05859375 195.5 c 128,-1,34
 717.55859375 157 717.55859375 157 821.55859375 157 c 0,35,36
 867.55859375 157 867.55859375 157 909.55859375 163 c 128,-1,37
 951.55859375 169 951.55859375 169 991.55859375 181.5 c 128,-1,38
 1031.55859375 194 1031.55859375 194 1071.55859375 211.5 c 128,-1,39
 1111.55859375 229 1111.55859375 229 1153.55859375 253 c 1,40,-1
 1196.55859375 97 l 1,0,1
EndSplineSet
EndChar

StartChar: D
Encoding: 68 68 40
Width: 1331
GlyphClass: 1
Flags: W
LayerCount: 2
Fore
SplineSet
396.3671875 1536 m 1,0,1
 428.3671875 1539 428.3671875 1539 470.3671875 1541 c 128,-1,2
 512.3671875 1543 512.3671875 1543 556.8671875 1544.5 c 128,-1,3
 601.3671875 1546 601.3671875 1546 644.3671875 1546.5 c 128,-1,4
 687.3671875 1547 687.3671875 1547 721.3671875 1547 c 0,5,6
 869.3671875 1547 869.3671875 1547 986.8671875 1514.5 c 128,-1,7
 1104.3671875 1482 1104.3671875 1482 1185.3671875 1410.5 c 128,-1,8
 1266.3671875 1339 1266.3671875 1339 1309.3671875 1227 c 128,-1,9
 1352.3671875 1115 1352.3671875 1115 1352.3671875 955 c 0,10,11
 1352.3671875 790 1352.3671875 790 1318.3671875 655.5 c 128,-1,12
 1284.3671875 521 1284.3671875 521 1222.3671875 415 c 128,-1,13
 1160.3671875 309 1160.3671875 309 1074.8671875 231 c 128,-1,14
 989.3671875 153 989.3671875 153 887.8671875 101.5 c 128,-1,15
 786.3671875 50 786.3671875 50 672.3671875 25 c 128,-1,16
 558.3671875 0 558.3671875 0 439.3671875 0 c 2,17,-1
 156.3671875 0 l 1,18,-1
 389.3671875 1321 l 1,19,-1
 396.3671875 1536 l 1,0,1
568.3671875 1178 m 1,20,21
 556.3671875 1109 556.3671875 1109 532.3671875 976 c 0,22,23
 522.3671875 919 522.3671875 919 508.8671875 842 c 128,-1,24
 495.3671875 765 495.3671875 765 478.3671875 665 c 128,-1,25
 461.3671875 565 461.3671875 565 439.3671875 440.5 c 128,-1,26
 417.3671875 316 417.3671875 316 390.3671875 164 c 1,27,-1
 410.3671875 164 l 2,28,29
 556.3671875 164 556.3671875 164 669.3671875 197.5 c 128,-1,30
 782.3671875 231 782.3671875 231 865.8671875 289.5 c 128,-1,31
 949.3671875 348 949.3671875 348 1005.8671875 426.5 c 128,-1,32
 1062.3671875 505 1062.3671875 505 1095.8671875 594 c 128,-1,33
 1129.3671875 683 1129.3671875 683 1144.3671875 779.5 c 128,-1,34
 1159.3671875 876 1159.3671875 876 1159.3671875 969 c 0,35,36
 1159.3671875 1061 1159.3671875 1061 1136.3671875 1139 c 128,-1,37
 1113.3671875 1217 1113.3671875 1217 1058.3671875 1272.5 c 128,-1,38
 1003.3671875 1328 1003.3671875 1328 913.3671875 1359.5 c 128,-1,39
 823.3671875 1391 823.3671875 1391 689.3671875 1391 c 0,40,41
 673.3671875 1391 673.3671875 1391 654.8671875 1390 c 128,-1,42
 636.3671875 1389 636.3671875 1389 618.3671875 1386 c 2,43,-1
 579.3671875 1382 l 1,44,-1
 568.3671875 1178 l 1,20,21
EndSplineSet
EndChar

StartChar: E
Encoding: 69 69 41
Width: 1331
GlyphClass: 1
Flags: W
LayerCount: 2
Fore
SplineSet
1182.87792969 164 m 1,0,-1
 1133.87792969 0 l 1,1,-1
 191.877929688 0 l 1,2,-1
 243.877929688 205 l 1,3,-1
 440.877929688 1321 l 1,4,-1
 447.877929688 1536 l 1,5,-1
 1389.87792969 1536 l 1,6,-1
 1360.87792969 1372 l 1,7,-1
 618.877929688 1372 l 1,8,-1
 603.877929688 1178 l 1,9,-1
 555.877929688 906 l 1,10,-1
 1206.87792969 906 l 1,11,-1
 1180.87792969 758 l 1,12,-1
 530.877929688 758 l 1,13,-1
 457.877929688 348 l 1,14,-1
 414.877929688 164 l 1,15,-1
 1182.87792969 164 l 1,0,-1
EndSplineSet
EndChar

StartChar: F
Encoding: 70 70 42
Width: 1331
GlyphClass: 1
Flags: W
LayerCount: 2
Fore
SplineSet
453.337890625 0 m 1,0,-1
 248.337890625 0 l 1,1,-1
 481.337890625 1321 l 1,2,-1
 488.337890625 1536 l 1,3,-1
 1384.33789062 1536 l 1,4,-1
 1335.33789062 1372 l 1,5,-1
 674.337890625 1372 l 1,6,-1
 660.337890625 1178 l 1,7,-1
 613.337890625 906 l 1,8,-1
 1166.33789062 906 l 1,9,-1
 1139.33789062 758 l 1,10,-1
 586.337890625 758 l 1,11,-1
 453.337890625 0 l 1,0,-1
EndSplineSet
EndChar

StartChar: G
Encoding: 71 71 43
Width: 1331
GlyphClass: 1
Flags: W
LayerCount: 2
Fore
SplineSet
1244.25097656 202 m 1,0,1
 1194.25097656 156 1194.25097656 156 1134.75097656 115.5 c 128,-1,2
 1075.25097656 75 1075.25097656 75 1007.75097656 45.5 c 128,-1,3
 940.250976562 16 940.250976562 16 863.250976562 -0.5 c 128,-1,4
 786.250976562 -17 786.250976562 -17 701.250976562 -17 c 0,5,6
 554.250976562 -17 554.250976562 -17 455.250976562 47 c 128,-1,7
 356.250976562 111 356.250976562 111 303.750976562 220.5 c 128,-1,8
 251.250976562 330 251.250976562 330 240.750976562 476.5 c 128,-1,9
 230.250976562 623 230.250976562 623 260.250976562 788 c 0,10,11
 278.250976562 891 278.250976562 891 309.250976562 988 c 128,-1,12
 340.250976562 1085 340.250976562 1085 385.250976562 1170 c 128,-1,13
 430.250976562 1255 430.250976562 1255 490.250976562 1325.5 c 128,-1,14
 550.250976562 1396 550.250976562 1396 626.750976562 1446.5 c 128,-1,15
 703.250976562 1497 703.250976562 1497 796.750976562 1525 c 128,-1,16
 890.250976562 1553 890.250976562 1553 1003.25097656 1553 c 0,17,18
 1121.25097656 1553 1121.25097656 1553 1219.25097656 1516 c 128,-1,19
 1317.25097656 1479 1317.25097656 1479 1378.25097656 1408 c 1,20,-1
 1267.25097656 1298 l 1,21,22
 1223.25097656 1331 1223.25097656 1331 1153.75097656 1355.5 c 128,-1,23
 1084.25097656 1380 1084.25097656 1380 988.250976562 1380 c 0,24,25
 863.250976562 1380 863.250976562 1380 775.750976562 1333 c 128,-1,26
 688.250976562 1286 688.250976562 1286 628.750976562 1205.5 c 128,-1,27
 569.250976562 1125 569.250976562 1125 533.750976562 1018 c 128,-1,28
 498.250976562 911 498.250976562 911 476.250976562 792 c 0,29,30
 464.250976562 721 464.250976562 721 458.250976562 646.5 c 128,-1,31
 452.250976562 572 452.250976562 572 457.750976562 501.5 c 128,-1,32
 463.250976562 431 463.250976562 431 481.250976562 368.5 c 128,-1,33
 499.250976562 306 499.250976562 306 534.750976562 259 c 128,-1,34
 570.250976562 212 570.250976562 212 625.250976562 184.5 c 128,-1,35
 680.250976562 157 680.250976562 157 759.250976562 157 c 0,36,37
 805.250976562 157 805.250976562 157 852.250976562 167 c 128,-1,38
 899.250976562 177 899.250976562 177 941.750976562 193.5 c 128,-1,39
 984.250976562 210 984.250976562 210 1019.75097656 230 c 128,-1,40
 1055.25097656 250 1055.25097656 250 1076.25097656 269 c 1,41,-1
 1139.25097656 627 l 1,42,-1
 821.250976562 647 l 1,43,-1
 845.250976562 780 l 1,44,-1
 1347.25097656 780 l 1,45,-1
 1244.25097656 202 l 1,0,1
EndSplineSet
EndChar

StartChar: H
Encoding: 72 72 44
Width: 1331
GlyphClass: 1
Flags: W
LayerCount: 2
Fore
SplineSet
957.918945312 0 m 1,0,-1
 1087.91894531 742 l 1,1,-1
 532.918945312 742 l 1,2,-1
 402.918945312 0 l 1,3,-1
 202.918945312 0 l 1,4,-1
 435.918945312 1321 l 1,5,-1
 443.918945312 1536 l 1,6,-1
 676.918945312 1556 l 1,7,-1
 562.918945312 906 l 1,8,-1
 1117.91894531 906 l 1,9,-1
 1227.91894531 1536 l 1,10,-1
 1431.91894531 1556 l 1,11,-1
 1157.91894531 0 l 1,12,-1
 957.918945312 0 l 1,0,-1
EndSplineSet
EndChar

StartChar: I
Encoding: 73 73 45
Width: 1331
GlyphClass: 1
Flags: W
LayerCount: 2
Fore
SplineSet
475.919921875 1536 m 1,0,-1
 1397.91992188 1536 l 1,1,-1
 1368.91992188 1372 l 1,2,-1
 1001.91992188 1372 l 1,3,-1
 787.919921875 164 l 1,4,-1
 1174.91992188 164 l 1,5,-1
 1125.91992188 0 l 1,6,-1
 204.919921875 0 l 1,7,-1
 232.919921875 164 l 1,8,-1
 597.919921875 164 l 1,9,-1
 811.919921875 1372 l 1,10,-1
 426.919921875 1372 l 1,11,-1
 475.919921875 1536 l 1,0,-1
EndSplineSet
EndChar

StartChar: J
Encoding: 74 74 46
Width: 1331
GlyphClass: 1
Flags: W
LayerCount: 2
Fore
SplineSet
681.822265625 1357 m 1,0,-1
 709.822265625 1536 l 1,1,-1
 1291.82226562 1536 l 1,2,-1
 1090.82226562 425 l 2,3,4
 1071.82226562 316 1071.82226562 316 1036.32226562 233.5 c 128,-1,5
 1000.82226562 151 1000.82226562 151 942.822265625 95 c 128,-1,6
 884.822265625 39 884.822265625 39 802.322265625 11 c 128,-1,7
 719.822265625 -17 719.822265625 -17 606.822265625 -17 c 0,8,9
 564.822265625 -17 564.822265625 -17 523.322265625 -3.5 c 128,-1,10
 481.822265625 10 481.822265625 10 444.822265625 30.5 c 128,-1,11
 407.822265625 51 407.822265625 51 378.322265625 74.5 c 128,-1,12
 348.822265625 98 348.822265625 98 330.822265625 118 c 1,13,-1
 446.822265625 239 l 1,14,15
 455.822265625 229 455.822265625 229 473.322265625 215 c 128,-1,16
 490.822265625 201 490.822265625 201 514.822265625 188.5 c 128,-1,17
 538.822265625 176 538.822265625 176 568.322265625 168 c 128,-1,18
 597.822265625 160 597.822265625 160 631.822265625 160 c 0,19,20
 702.822265625 160 702.822265625 160 747.822265625 180 c 128,-1,21
 792.822265625 200 792.822265625 200 820.822265625 240 c 128,-1,22
 848.822265625 280 848.822265625 280 865.322265625 340 c 128,-1,23
 881.822265625 400 881.822265625 400 895.822265625 481 c 2,24,-1
 1018.82226562 1176 l 1,25,-1
 1093.82226562 1407 l 1,26,-1
 845.822265625 1357 l 1,27,-1
 681.822265625 1357 l 1,0,-1
EndSplineSet
EndChar

StartChar: K
Encoding: 75 75 47
Width: 1331
GlyphClass: 1
Flags: W
LayerCount: 2
Fore
SplineSet
173.918945312 0 m 1,0,-1
 406.918945312 1321 l 1,1,-1
 413.918945312 1536 l 1,2,-1
 652.918945312 1556 l 1,3,-1
 532.918945312 877 l 1,4,-1
 1202.91894531 1536 l 1,5,-1
 1430.91894531 1536 l 1,6,-1
 771.918945312 886 l 1,7,-1
 587.918945312 821 l 1,8,-1
 755.918945312 762 l 1,9,-1
 1187.91894531 0 l 1,10,-1
 944.918945312 0 l 1,11,-1
 512.918945312 764 l 1,12,-1
 378.918945312 0 l 1,13,-1
 173.918945312 0 l 1,0,-1
EndSplineSet
EndChar

StartChar: L
Encoding: 76 76 48
Width: 1331
GlyphClass: 1
Flags: W
LayerCount: 2
Fore
SplineSet
426.377929688 164 m 1,0,-1
 1173.37792969 164 l 1,1,-1
 1123.37792969 0 l 1,2,-1
 196.377929688 0 l 1,3,-1
 253.377929688 205 l 1,4,-1
 450.377929688 1321 l 1,5,-1
 457.377929688 1536 l 1,6,-1
 682.377929688 1556 l 1,7,-1
 468.377929688 348 l 1,8,-1
 426.377929688 164 l 1,0,-1
EndSplineSet
EndChar

StartChar: M
Encoding: 77 77 49
Width: 1331
GlyphClass: 1
Flags: W
LayerCount: 2
Fore
SplineSet
1009.1015625 0 m 1,0,-1
 1172.1015625 923 l 1,1,-1
 1333.1015625 1433 l 1,2,-1
 1328.1015625 1434 l 1,3,-1
 1074.1015625 943 l 1,4,-1
 821.1015625 512 l 1,5,-1
 718.1015625 512 l 1,6,-1
 618.1015625 942 l 1,7,-1
 531.1015625 1434 l 1,8,-1
 525.1015625 1433 l 1,9,-1
 511.1015625 923 l 1,10,-1
 349.1015625 0 l 1,11,-1
 164.1015625 0 l 1,12,-1
 398.1015625 1321 l 1,13,-1
 407.1015625 1536 l 1,14,-1
 630.1015625 1556 l 1,15,-1
 765.1015625 973 l 1,16,-1
 798.1015625 717 l 1,17,-1
 919.1015625 973 l 1,18,-1
 1253.1015625 1536 l 1,19,-1
 1469.1015625 1556 l 1,20,-1
 1193.1015625 0 l 1,21,-1
 1009.1015625 0 l 1,0,-1
EndSplineSet
EndChar

StartChar: N
Encoding: 78 78 50
Width: 1331
GlyphClass: 1
Flags: W
LayerCount: 2
Fore
SplineSet
992.6015625 0 m 1,0,-1
 657.6015625 971 l 1,1,-1
 568.6015625 1394 l 1,2,-1
 562.6015625 1393 l 1,3,-1
 549.6015625 942 l 1,4,-1
 382.6015625 0 l 1,5,-1
 198.6015625 0 l 1,6,-1
 431.6015625 1321 l 1,7,-1
 439.6015625 1536 l 1,8,-1
 649.6015625 1556 l 1,9,-1
 982.6015625 570 l 1,10,-1
 1077.6015625 143 l 1,11,-1
 1083.6015625 144 l 1,12,-1
 1082.6015625 594 l 1,13,-1
 1248.6015625 1536 l 1,14,-1
 1436.6015625 1556 l 1,15,-1
 1161.6015625 0 l 1,16,-1
 992.6015625 0 l 1,0,-1
EndSplineSet
EndChar

StartChar: O
Encoding: 79 79 51
Width: 1331
GlyphClass: 1
Flags: W
LayerCount: 2
Fore
SplineSet
661.451171875 -17 m 0,0,1
 569.451171875 -17 569.451171875 -17 496.951171875 11 c 128,-1,2
 424.451171875 39 424.451171875 39 370.951171875 90.5 c 128,-1,3
 317.451171875 142 317.451171875 142 282.951171875 214 c 128,-1,4
 248.451171875 286 248.451171875 286 231.951171875 373.5 c 128,-1,5
 215.451171875 461 215.451171875 461 216.951171875 560.5 c 128,-1,6
 218.451171875 660 218.451171875 660 237.451171875 768 c 0,7,8
 255.451171875 876 255.451171875 876 288.951171875 975.5 c 128,-1,9
 322.451171875 1075 322.451171875 1075 369.451171875 1162.5 c 128,-1,10
 416.451171875 1250 416.451171875 1250 474.951171875 1322 c 128,-1,11
 533.451171875 1394 533.451171875 1394 605.451171875 1445.5 c 128,-1,12
 677.451171875 1497 677.451171875 1497 761.451171875 1525 c 128,-1,13
 845.451171875 1553 845.451171875 1553 939.451171875 1553 c 0,14,15
 1031.45117188 1553 1031.45117188 1553 1103.95117188 1525 c 128,-1,16
 1176.45117188 1497 1176.45117188 1497 1229.95117188 1445.5 c 128,-1,17
 1283.45117188 1394 1283.45117188 1394 1318.45117188 1322 c 128,-1,18
 1353.45117188 1250 1353.45117188 1250 1369.45117188 1162.5 c 128,-1,19
 1385.45117188 1075 1385.45117188 1075 1383.95117188 975.5 c 128,-1,20
 1382.45117188 876 1382.45117188 876 1364.45117188 768 c 0,21,22
 1345.45117188 660 1345.45117188 660 1311.95117188 560.5 c 128,-1,23
 1278.45117188 461 1278.45117188 461 1232.45117188 373.5 c 128,-1,24
 1186.45117188 286 1186.45117188 286 1126.95117188 214 c 128,-1,25
 1067.45117188 142 1067.45117188 142 995.451171875 90.5 c 128,-1,26
 923.451171875 39 923.451171875 39 839.451171875 11 c 128,-1,27
 755.451171875 -17 755.451171875 -17 661.451171875 -17 c 0,0,1
1145.45117188 736 m 0,28,29
 1157.45117188 808 1157.45117188 808 1165.95117188 882.5 c 128,-1,30
 1174.45117188 957 1174.45117188 957 1173.45117188 1028.5 c 128,-1,31
 1172.45117188 1100 1172.45117188 1100 1158.95117188 1163 c 128,-1,32
 1145.45117188 1226 1145.45117188 1226 1113.95117188 1272.5 c 128,-1,33
 1082.45117188 1319 1082.45117188 1319 1030.95117188 1346.5 c 128,-1,34
 979.451171875 1374 979.451171875 1374 901.451171875 1374 c 0,35,36
 827.451171875 1374 827.451171875 1374 768.951171875 1349.5 c 128,-1,37
 710.451171875 1325 710.451171875 1325 664.451171875 1282.5 c 128,-1,38
 618.451171875 1240 618.451171875 1240 584.951171875 1183 c 128,-1,39
 551.451171875 1126 551.451171875 1126 526.451171875 1062.5 c 128,-1,40
 501.451171875 999 501.451171875 999 484.951171875 932.5 c 128,-1,41
 468.451171875 866 468.451171875 866 457.451171875 804 c 0,42,43
 444.451171875 731 444.451171875 731 435.951171875 655.5 c 128,-1,44
 427.451171875 580 427.451171875 580 428.451171875 508.5 c 128,-1,45
 429.451171875 437 429.451171875 437 442.951171875 374 c 128,-1,46
 456.451171875 311 456.451171875 311 487.451171875 264 c 128,-1,47
 518.451171875 217 518.451171875 217 569.951171875 189.5 c 128,-1,48
 621.451171875 162 621.451171875 162 699.451171875 162 c 0,49,50
 772.451171875 162 772.451171875 162 830.951171875 187 c 128,-1,51
 889.451171875 212 889.451171875 212 935.451171875 255.5 c 128,-1,52
 981.451171875 299 981.451171875 299 1015.45117188 356 c 128,-1,53
 1049.45117188 413 1049.45117188 413 1074.95117188 477 c 128,-1,54
 1100.45117188 541 1100.45117188 541 1117.45117188 607.5 c 128,-1,55
 1134.45117188 674 1134.45117188 674 1145.45117188 736 c 0,28,29
EndSplineSet
EndChar

StartChar: P
Encoding: 80 80 52
Width: 1331
GlyphClass: 1
Flags: W
LayerCount: 2
Fore
SplineSet
390.721679688 0 m 1,0,-1
 195.721679688 0 l 1,1,-1
 429.721679688 1321 l 1,2,-1
 429.721679688 1526 l 1,3,4
 460.721679688 1531 460.721679688 1531 503.221679688 1535 c 128,-1,5
 545.721679688 1539 545.721679688 1539 592.721679688 1542 c 128,-1,6
 639.721679688 1545 639.721679688 1545 686.721679688 1546.5 c 128,-1,7
 733.721679688 1548 733.721679688 1548 773.721679688 1548 c 0,8,9
 937.721679688 1548 937.721679688 1548 1057.22167969 1517 c 128,-1,10
 1176.72167969 1486 1176.72167969 1486 1251.72167969 1430 c 128,-1,11
 1326.72167969 1374 1326.72167969 1374 1355.72167969 1296.5 c 128,-1,12
 1384.72167969 1219 1384.72167969 1219 1368.72167969 1125 c 0,13,14
 1279.72167969 639 1279.72167969 639 503.721679688 639 c 1,15,-1
 390.721679688 0 l 1,0,-1
597.721679688 1175 m 1,16,-1
 528.721679688 783 l 1,17,18
 684.721679688 783 684.721679688 783 800.721679688 805.5 c 128,-1,19
 916.721679688 828 916.721679688 828 997.221679688 872 c 128,-1,20
 1077.72167969 916 1077.72167969 916 1124.22167969 979.5 c 128,-1,21
 1170.72167969 1043 1170.72167969 1043 1186.72167969 1126 c 0,22,23
 1199.72167969 1195 1199.72167969 1195 1174.72167969 1246.5 c 128,-1,24
 1149.72167969 1298 1149.72167969 1298 1095.72167969 1333 c 128,-1,25
 1041.72167969 1368 1041.72167969 1368 964.221679688 1385.5 c 128,-1,26
 886.721679688 1403 886.721679688 1403 793.721679688 1403 c 0,27,28
 776.721679688 1403 776.721679688 1403 752.721679688 1402.5 c 128,-1,29
 728.721679688 1402 728.721679688 1402 703.721679688 1400.5 c 128,-1,30
 678.721679688 1399 678.721679688 1399 655.221679688 1397 c 128,-1,31
 631.721679688 1395 631.721679688 1395 615.721679688 1392 c 1,32,-1
 597.721679688 1175 l 1,16,-1
EndSplineSet
EndChar

StartChar: Q
Encoding: 81 81 53
Width: 1331
GlyphClass: 1
Flags: W
LayerCount: 2
Fore
SplineSet
774.3671875 0 m 1,0,1
 738.3671875 -8 738.3671875 -8 699.3671875 -12.5 c 128,-1,2
 660.3671875 -17 660.3671875 -17 611.3671875 -17 c 0,3,4
 507.3671875 -17 507.3671875 -17 429.8671875 27.5 c 128,-1,5
 352.3671875 72 352.3671875 72 300.8671875 149 c 128,-1,6
 249.3671875 226 249.3671875 226 223.8671875 330 c 128,-1,7
 198.3671875 434 198.3671875 434 198.3671875 553 c 0,8,9
 198.3671875 673 198.3671875 673 221.8671875 793.5 c 128,-1,10
 245.3671875 914 245.3671875 914 290.3671875 1025.5 c 128,-1,11
 335.3671875 1137 335.3671875 1137 399.8671875 1233 c 128,-1,12
 464.3671875 1329 464.3671875 1329 546.8671875 1400 c 128,-1,13
 629.3671875 1471 629.3671875 1471 727.8671875 1512 c 128,-1,14
 826.3671875 1553 826.3671875 1553 939.3671875 1553 c 0,15,16
 1054.3671875 1553 1054.3671875 1553 1141.3671875 1509.5 c 128,-1,17
 1228.3671875 1466 1228.3671875 1466 1286.3671875 1389 c 128,-1,18
 1344.3671875 1312 1344.3671875 1312 1373.8671875 1206 c 128,-1,19
 1403.3671875 1100 1403.3671875 1100 1403.3671875 976 c 0,20,21
 1403.3671875 857 1403.3671875 857 1378.3671875 735 c 128,-1,22
 1353.3671875 613 1353.3671875 613 1306.8671875 500.5 c 128,-1,23
 1260.3671875 388 1260.3671875 388 1194.3671875 291.5 c 128,-1,24
 1128.3671875 195 1128.3671875 195 1047.3671875 127 c 0,25,26
 1039.3671875 119 1039.3671875 119 1028.3671875 110 c 128,-1,27
 1017.3671875 101 1017.3671875 101 1007.3671875 94 c 1,28,29
 1020.3671875 61 1020.3671875 61 1032.8671875 43 c 128,-1,30
 1045.3671875 25 1045.3671875 25 1063.3671875 15 c 128,-1,31
 1081.3671875 5 1081.3671875 5 1108.3671875 2.5 c 128,-1,32
 1135.3671875 0 1135.3671875 0 1179.3671875 0 c 1,33,-1
 1100.3671875 -148 l 1,34,35
 1049.3671875 -148 1049.3671875 -148 1008.3671875 -140 c 128,-1,36
 967.3671875 -132 967.3671875 -132 932.3671875 -105.5 c 128,-1,37
 897.3671875 -79 897.3671875 -79 868.3671875 -28.5 c 128,-1,38
 839.3671875 22 839.3671875 22 811.3671875 104 c 2,39,-1
 799.3671875 140 l 1,40,-1
 774.3671875 0 l 1,0,1
994.3671875 322 m 1,41,42
 1055.3671875 403 1055.3671875 403 1095.3671875 487.5 c 128,-1,43
 1135.3671875 572 1135.3671875 572 1159.8671875 657 c 128,-1,44
 1184.3671875 742 1184.3671875 742 1193.8671875 824.5 c 128,-1,45
 1203.3671875 907 1203.3671875 907 1203.3671875 984 c 256,46,47
 1203.3671875 1061 1203.3671875 1061 1187.3671875 1131 c 128,-1,48
 1171.3671875 1201 1171.3671875 1201 1135.8671875 1254 c 128,-1,49
 1100.3671875 1307 1100.3671875 1307 1042.3671875 1338 c 128,-1,50
 984.3671875 1369 984.3671875 1369 900.3671875 1369 c 0,51,52
 814.3671875 1369 814.3671875 1369 743.8671875 1328.5 c 128,-1,53
 673.3671875 1288 673.3671875 1288 617.8671875 1221.5 c 128,-1,54
 562.3671875 1155 562.3671875 1155 521.3671875 1069.5 c 128,-1,55
 480.3671875 984 480.3671875 984 453.8671875 893 c 128,-1,56
 427.3671875 802 427.3671875 802 414.3671875 713.5 c 128,-1,57
 401.3671875 625 401.3671875 625 401.3671875 552 c 0,58,59
 401.3671875 467 401.3671875 467 418.3671875 396 c 128,-1,60
 435.3671875 325 435.3671875 325 472.3671875 273.5 c 128,-1,61
 509.3671875 222 509.3671875 222 566.3671875 194 c 128,-1,62
 623.3671875 166 623.3671875 166 704.3671875 166 c 2,63,-1
 726.3671875 166 l 2,64,65
 735.3671875 166 735.3671875 166 743.3671875 167 c 128,-1,66
 751.3671875 168 751.3671875 168 761.3671875 170 c 128,-1,67
 771.3671875 172 771.3671875 172 784.3671875 176 c 1,68,69
 766.3671875 222 766.3671875 222 752.8671875 256.5 c 128,-1,70
 739.3671875 291 739.3671875 291 725.8671875 313.5 c 128,-1,71
 712.3671875 336 712.3671875 336 693.8671875 347 c 128,-1,72
 675.3671875 358 675.3671875 358 645.3671875 358 c 1,73,-1
 724.3671875 512 l 1,74,75
 766.3671875 512 766.3671875 512 798.3671875 491 c 128,-1,76
 830.3671875 470 830.3671875 470 858.8671875 428.5 c 128,-1,77
 887.3671875 387 887.3671875 387 913.8671875 325 c 128,-1,78
 940.3671875 263 940.3671875 263 970.3671875 181 c 1,79,-1
 994.3671875 322 l 1,41,42
EndSplineSet
EndChar

StartChar: R
Encoding: 82 82 54
Width: 1331
GlyphClass: 1
Flags: W
LayerCount: 2
Fore
SplineSet
470.537109375 634 m 1,0,-1
 359.537109375 0 l 1,1,-1
 154.537109375 0 l 1,2,-1
 387.537109375 1321 l 1,3,-1
 387.537109375 1526 l 1,4,5
 422.537109375 1530 422.537109375 1530 467.537109375 1535 c 128,-1,6
 512.537109375 1540 512.537109375 1540 562.037109375 1544 c 128,-1,7
 611.537109375 1548 611.537109375 1548 663.037109375 1550.5 c 128,-1,8
 714.537109375 1553 714.537109375 1553 762.537109375 1553 c 0,9,10
 891.537109375 1553 891.537109375 1553 985.537109375 1524.5 c 128,-1,11
 1079.53710938 1496 1079.53710938 1496 1140.53710938 1445 c 128,-1,12
 1201.53710938 1394 1201.53710938 1394 1231.03710938 1322.5 c 128,-1,13
 1260.53710938 1251 1260.53710938 1251 1260.53710938 1166 c 0,14,15
 1260.53710938 1034 1260.53710938 1034 1214.53710938 938 c 128,-1,16
 1168.53710938 842 1168.53710938 842 1094.53710938 778 c 128,-1,17
 1020.53710938 714 1020.53710938 714 926.537109375 681 c 128,-1,18
 832.537109375 648 832.537109375 648 736.537109375 644 c 1,19,-1
 865.537109375 607 l 1,20,-1
 1212.53710938 0 l 1,21,-1
 984.537109375 0 l 1,22,-1
 637.537109375 614 l 2,23,24
 629.537109375 628 629.537109375 628 615.537109375 631 c 128,-1,25
 601.537109375 634 601.537109375 634 593.537109375 634 c 2,26,-1
 470.537109375 634 l 1,0,-1
566.537109375 1175 m 1,27,-1
 496.537109375 781 l 1,28,-1
 648.537109375 781 l 2,29,30
 741.537109375 781 741.537109375 781 820.037109375 805 c 128,-1,31
 898.537109375 829 898.537109375 829 955.037109375 875.5 c 128,-1,32
 1011.53710938 922 1011.53710938 922 1043.03710938 990 c 128,-1,33
 1074.53710938 1058 1074.53710938 1058 1074.53710938 1146 c 0,34,35
 1074.53710938 1205 1074.53710938 1205 1047.53710938 1254 c 128,-1,36
 1020.53710938 1303 1020.53710938 1303 977.037109375 1337 c 128,-1,37
 933.537109375 1371 933.537109375 1371 877.537109375 1389.5 c 128,-1,38
 821.537109375 1408 821.537109375 1408 763.537109375 1408 c 0,39,40
 720.537109375 1408 720.537109375 1408 670.537109375 1406 c 128,-1,41
 620.537109375 1404 620.537109375 1404 584.537109375 1397 c 1,42,-1
 566.537109375 1175 l 1,27,-1
EndSplineSet
EndChar

StartChar: S
Encoding: 83 83 55
Width: 1331
GlyphClass: 1
Flags: W
LayerCount: 2
Fore
SplineSet
1228.38769531 1282 m 1,0,1
 1196.38769531 1308 1196.38769531 1308 1166.38769531 1327 c 128,-1,2
 1136.38769531 1346 1136.38769531 1346 1104.38769531 1358 c 128,-1,3
 1072.38769531 1370 1072.38769531 1370 1037.38769531 1376 c 128,-1,4
 1002.38769531 1382 1002.38769531 1382 960.387695312 1382 c 0,5,6
 897.387695312 1382 897.387695312 1382 837.887695312 1364 c 128,-1,7
 778.387695312 1346 778.387695312 1346 731.887695312 1312 c 128,-1,8
 685.387695312 1278 685.387695312 1278 657.887695312 1231 c 128,-1,9
 630.387695312 1184 630.387695312 1184 630.387695312 1127 c 0,10,11
 630.387695312 1074 630.387695312 1074 655.387695312 1035.5 c 128,-1,12
 680.387695312 997 680.387695312 997 720.887695312 966 c 128,-1,13
 761.387695312 935 761.387695312 935 813.887695312 908.5 c 128,-1,14
 866.387695312 882 866.387695312 882 920.887695312 852.5 c 128,-1,15
 975.387695312 823 975.387695312 823 1027.88769531 788 c 128,-1,16
 1080.38769531 753 1080.38769531 753 1120.88769531 705 c 128,-1,17
 1161.38769531 657 1161.38769531 657 1186.38769531 593 c 128,-1,18
 1211.38769531 529 1211.38769531 529 1211.38769531 442 c 0,19,20
 1211.38769531 334 1211.38769531 334 1165.88769531 249 c 128,-1,21
 1120.38769531 164 1120.38769531 164 1042.88769531 105 c 128,-1,22
 965.387695312 46 965.387695312 46 863.887695312 14.5 c 128,-1,23
 762.387695312 -17 762.387695312 -17 652.387695312 -17 c 0,24,25
 533.387695312 -17 533.387695312 -17 423.387695312 20 c 128,-1,26
 313.387695312 57 313.387695312 57 214.387695312 137 c 1,27,-1
 335.387695312 291 l 1,28,29
 362.387695312 264 362.387695312 264 397.387695312 240 c 128,-1,30
 432.387695312 216 432.387695312 216 474.387695312 198 c 128,-1,31
 516.387695312 180 516.387695312 180 563.887695312 169.5 c 128,-1,32
 611.387695312 159 611.387695312 159 660.387695312 159 c 0,33,34
 717.387695312 159 717.387695312 159 777.887695312 173.5 c 128,-1,35
 838.387695312 188 838.387695312 188 888.387695312 222 c 128,-1,36
 938.387695312 256 938.387695312 256 970.387695312 310.5 c 128,-1,37
 1002.38769531 365 1002.38769531 365 1002.38769531 443 c 0,38,39
 1002.38769531 499 1002.38769531 499 977.387695312 542 c 128,-1,40
 952.387695312 585 952.387695312 585 911.387695312 619 c 128,-1,41
 870.387695312 653 870.387695312 653 818.387695312 682.5 c 128,-1,42
 766.387695312 712 766.387695312 712 712.387695312 742.5 c 128,-1,43
 658.387695312 773 658.387695312 773 605.887695312 808.5 c 128,-1,44
 553.387695312 844 553.387695312 844 512.887695312 891 c 128,-1,45
 472.387695312 938 472.387695312 938 447.387695312 999.5 c 128,-1,46
 422.387695312 1061 422.387695312 1061 422.387695312 1143 c 0,47,48
 422.387695312 1245 422.387695312 1245 467.887695312 1322.5 c 128,-1,49
 513.387695312 1400 513.387695312 1400 588.887695312 1451 c 128,-1,50
 664.387695312 1502 664.387695312 1502 762.387695312 1527.5 c 128,-1,51
 860.387695312 1553 860.387695312 1553 965.387695312 1553 c 0,52,53
 1028.38769531 1553 1028.38769531 1553 1084.88769531 1540 c 128,-1,54
 1141.38769531 1527 1141.38769531 1527 1189.38769531 1505.5 c 128,-1,55
 1237.38769531 1484 1237.38769531 1484 1276.88769531 1457.5 c 128,-1,56
 1316.38769531 1431 1316.38769531 1431 1347.38769531 1404 c 1,57,-1
 1228.38769531 1282 l 1,0,1
EndSplineSet
EndChar

StartChar: T
Encoding: 84 84 56
Width: 1331
GlyphClass: 1
Flags: W
LayerCount: 2
Fore
SplineSet
593.837890625 0 m 1,0,-1
 835.837890625 1372 l 1,1,-1
 338.837890625 1372 l 1,2,-1
 352.837890625 1536 l 1,3,-1
 1519.83789062 1536 l 1,4,-1
 1490.83789062 1372 l 1,5,-1
 1040.83789062 1372 l 1,6,-1
 798.837890625 0 l 1,7,-1
 593.837890625 0 l 1,0,-1
EndSplineSet
EndChar

StartChar: U
Encoding: 85 85 57
Width: 1331
GlyphClass: 1
Flags: W
LayerCount: 2
Fore
SplineSet
1427.67480469 1536 m 1,0,-1
 1251.67480469 536 l 2,1,2
 1226.67480469 397 1226.67480469 397 1175.67480469 292.5 c 128,-1,3
 1124.67480469 188 1124.67480469 188 1049.67480469 119.5 c 128,-1,4
 974.674804688 51 974.674804688 51 877.174804688 17 c 128,-1,5
 779.674804688 -17 779.674804688 -17 662.674804688 -17 c 0,6,7
 537.674804688 -17 537.674804688 -17 458.674804688 26.5 c 128,-1,8
 379.674804688 70 379.674804688 70 338.174804688 149 c 128,-1,9
 296.674804688 228 296.674804688 228 291.174804688 340 c 128,-1,10
 285.674804688 452 285.674804688 452 308.674804688 587 c 2,11,-1
 437.674804688 1321 l 1,12,-1
 444.674804688 1536 l 1,13,-1
 674.674804688 1556 l 1,14,-1
 500.674804688 567 l 2,15,16
 483.674804688 470 483.674804688 470 489.174804688 393.5 c 128,-1,17
 494.674804688 317 494.674804688 317 521.174804688 264.5 c 128,-1,18
 547.674804688 212 547.674804688 212 593.674804688 184.5 c 128,-1,19
 639.674804688 157 639.674804688 157 703.674804688 157 c 0,20,21
 854.674804688 157 854.674804688 157 938.674804688 246.5 c 128,-1,22
 1022.67480469 336 1022.67480469 336 1054.67480469 516 c 2,23,-1
 1233.67480469 1536 l 1,24,-1
 1427.67480469 1536 l 1,0,-1
EndSplineSet
EndChar

StartChar: V
Encoding: 86 86 58
Width: 1331
GlyphClass: 1
Flags: W
LayerCount: 2
Fore
SplineSet
680.837890625 512 m 1,0,-1
 705.837890625 143 l 1,1,-1
 811.837890625 465 l 1,2,-1
 1338.83789062 1536 l 1,3,-1
 1531.83789062 1536 l 1,4,-1
 864.837890625 184 l 1,5,-1
 801.837890625 -20 l 1,6,-1
 564.837890625 0 l 1,7,-1
 340.837890625 1536 l 1,8,-1
 534.837890625 1556 l 1,9,-1
 680.837890625 512 l 1,0,-1
EndSplineSet
EndChar

StartChar: W
Encoding: 87 87 59
Width: 1331
GlyphClass: 1
Flags: W
LayerCount: 2
Fore
SplineSet
606.837890625 717 m 1,0,-1
 776.837890625 1126 l 1,1,-1
 920.837890625 1126 l 1,2,-1
 936.837890625 717 l 1,3,-1
 936.837890625 205 l 1,4,-1
 940.837890625 205 l 1,5,-1
 1056.83789062 676 l 1,6,-1
 1364.83789062 1536 l 1,7,-1
 1545.83789062 1536 l 1,8,-1
 995.837890625 0 l 1,9,-1
 810.837890625 0 l 1,10,-1
 794.837890625 461 l 1,11,-1
 823.837890625 973 l 1,12,-1
 819.837890625 973 l 1,13,-1
 670.837890625 461 l 1,14,-1
 487.837890625 0 l 1,15,-1
 324.837890625 0 l 1,16,-1
 326.837890625 1536 l 1,17,-1
 494.837890625 1556 l 1,18,-1
 493.837890625 676 l 1,19,-1
 441.837890625 205 l 1,20,-1
 445.837890625 205 l 1,21,-1
 606.837890625 717 l 1,0,-1
EndSplineSet
EndChar

StartChar: X
Encoding: 88 88 60
Width: 1331
GlyphClass: 1
Flags: W
LayerCount: 2
Fore
SplineSet
986 0 m 1,0,-1
 825 531 l 1,1,-1
 783 717 l 1,2,-1
 701 553 l 1,3,-1
 322 0 l 1,4,-1
 119 0 l 1,5,-1
 703 818 l 1,6,-1
 448 1536 l 1,7,-1
 669 1556 l 1,8,-1
 818 1081 l 1,9,-1
 854 881 l 1,10,-1
 915 1044 l 1,11,-1
 1253 1536 l 1,12,-1
 1450 1536 l 1,13,-1
 925 795 l 1,14,-1
 1212 0 l 1,15,-1
 986 0 l 1,0,-1
EndSplineSet
EndChar

StartChar: Y
Encoding: 89 89 61
Width: 1331
GlyphClass: 1
Flags: W
LayerCount: 2
Fore
SplineSet
890.837890625 957 m 1,0,-1
 1287.83789062 1536 l 1,1,-1
 1484.83789062 1536 l 1,2,-1
 884.837890625 662 l 1,3,-1
 768.837890625 0 l 1,4,-1
 563.837890625 0 l 1,5,-1
 679.837890625 660 l 1,6,-1
 387.837890625 1536 l 1,7,-1
 600.837890625 1556 l 1,8,-1
 782.837890625 977 l 1,9,-1
 818.837890625 722 l 1,10,-1
 890.837890625 957 l 1,0,-1
EndSplineSet
EndChar

StartChar: Z
Encoding: 90 90 62
Width: 1331
GlyphClass: 1
Flags: W
LayerCount: 2
Fore
SplineSet
1210.99609375 164 m 1,0,-1
 1202.99609375 0 l 1,1,-1
 149.99609375 0 l 1,2,-1
 136.99609375 51 l 1,3,-1
 1015.99609375 1229 l 1,4,-1
 1236.99609375 1413 l 1,5,-1
 957.99609375 1372 l 1,6,-1
 461.99609375 1372 l 1,7,-1
 469.99609375 1536 l 1,8,-1
 1438.99609375 1536 l 1,9,-1
 1449.99609375 1513 l 1,10,-1
 559.99609375 307 l 1,11,-1
 345.99609375 123 l 1,12,-1
 624.99609375 164 l 1,13,-1
 1210.99609375 164 l 1,0,-1
EndSplineSet
EndChar

StartChar: bracketleft
Encoding: 91 91 63
Width: 1331
GlyphClass: 1
Flags: W
LayerCount: 2
Fore
SplineSet
636.272460938 1352 m 1,0,-1
 650.272460938 1556 l 1,1,-1
 1362.27246094 1556 l 1,2,-1
 1334.27246094 1403 l 1,3,-1
 821.272460938 1403 l 1,4,-1
 806.272460938 1198 l 1,5,-1
 582.272460938 -72 l 1,6,-1
 525.272460938 -276 l 1,7,-1
 1038.27246094 -276 l 1,8,-1
 1011.27246094 -430 l 1,9,-1
 299.272460938 -430 l 1,10,-1
 358.272460938 -225 l 1,11,-1
 636.272460938 1352 l 1,0,-1
EndSplineSet
EndChar

StartChar: backslash
Encoding: 92 92 64
Width: 1331
GlyphClass: 1
Flags: W
LayerCount: 2
Fore
SplineSet
491.418945312 1638 m 1,0,-1
 690.418945312 1638 l 1,1,-1
 1110.41894531 -102 l 1,2,-1
 901.418945312 -102 l 1,3,-1
 491.418945312 1638 l 1,0,-1
EndSplineSet
EndChar

StartChar: bracketright
Encoding: 93 93 65
Width: 1331
GlyphClass: 1
Flags: W
LayerCount: 2
Fore
SplineSet
893.272460938 -225 m 1,0,-1
 879.272460938 -430 l 1,1,-1
 167.272460938 -430 l 5,2,-1
 195.272460938 -276 l 5,3,-1
 708.272460938 -276 l 1,4,-1
 723.272460938 -72 l 1,5,-1
 947.272460938 1198 l 1,6,-1
 1004.27246094 1403 l 1,7,-1
 491.272460938 1403 l 1,8,-1
 519.272460938 1556 l 1,9,-1
 1230.27246094 1556 l 1,10,-1
 1171.27246094 1352 l 1,11,-1
 893.272460938 -225 l 1,0,-1
EndSplineSet
EndChar

StartChar: asciicircum
Encoding: 94 94 66
Width: 1331
GlyphClass: 1
Flags: W
LayerCount: 2
Fore
SplineSet
1470.36523438 934 m 1,0,-1
 1264.36523438 934 l 1,1,-1
 936.365234375 1269 l 1,2,-1
 910.365234375 1382 l 1,3,-1
 845.365234375 1271 l 1,4,-1
 411.365234375 936 l 1,5,-1
 190.365234375 936 l 1,6,-1
 863.365234375 1536 l 1,7,-1
 999.365234375 1553 l 1,8,-1
 1470.36523438 934 l 1,0,-1
EndSplineSet
EndChar

StartChar: underscore
Encoding: 95 95 67
Width: 1331
GlyphClass: 1
Flags: W
LayerCount: 2
Fore
SplineSet
48.3671875 -307 m 1,0,-1
 1174.3671875 -307 l 1,1,-1
 1145.3671875 -466 l 1,2,-1
 20.3671875 -466 l 1,3,-1
 48.3671875 -307 l 1,0,-1
EndSplineSet
EndChar

StartChar: grave
Encoding: 96 96 68
Width: 1331
GlyphClass: 1
Flags: W
LayerCount: 2
Fore
SplineSet
1140.27148438 1163 m 5,0,-1
 986.271484375 1163 l 5,1,-1
 744.271484375 1536 l 1,2,-1
 957.271484375 1556 l 1,3,-1
 1140.27148438 1163 l 5,0,-1
EndSplineSet
EndChar

StartChar: a
Encoding: 97 97 69
Width: 1331
GlyphClass: 1
Flags: W
LayerCount: 2
Fore
SplineSet
1081.63867188 952 m 1,0,1
 1063.63867188 960 1063.63867188 960 1037.63867188 966.5 c 128,-1,2
 1011.63867188 973 1011.63867188 973 987.638671875 976 c 0,3,4
 959.638671875 980 959.638671875 980 930.638671875 981 c 0,5,6
 826.638671875 981 826.638671875 981 748.638671875 945 c 128,-1,7
 670.638671875 909 670.638671875 909 616.138671875 846.5 c 128,-1,8
 561.638671875 784 561.638671875 784 530.138671875 701 c 128,-1,9
 498.638671875 618 498.638671875 618 486.638671875 524 c 0,10,11
 480.638671875 473 480.638671875 473 480.638671875 431 c 0,12,13
 480.638671875 360 480.638671875 360 495.138671875 307 c 128,-1,14
 509.638671875 254 509.638671875 254 535.138671875 218.5 c 128,-1,15
 560.638671875 183 560.638671875 183 594.638671875 165 c 128,-1,16
 628.638671875 147 628.638671875 147 668.638671875 147 c 0,17,18
 721.638671875 147 721.638671875 147 766.638671875 161.5 c 128,-1,19
 811.638671875 176 811.638671875 176 849.138671875 199.5 c 128,-1,20
 886.638671875 223 886.638671875 223 917.638671875 253 c 128,-1,21
 948.638671875 283 948.638671875 283 973.638671875 313 c 1,22,-1
 1081.63867188 952 l 1,0,1
918.638671875 0 m 1,23,-1
 947.638671875 166 l 1,24,-1
 829.638671875 50 l 2,25,26
 807.638671875 33 807.638671875 33 787.138671875 20 c 128,-1,27
 766.638671875 7 766.638671875 7 741.638671875 -1 c 128,-1,28
 716.638671875 -9 716.638671875 -9 683.638671875 -13 c 128,-1,29
 650.638671875 -17 650.638671875 -17 605.638671875 -17 c 0,30,31
 532.638671875 -17 532.638671875 -17 475.638671875 15.5 c 128,-1,32
 418.638671875 48 418.638671875 48 378.638671875 107 c 128,-1,33
 338.638671875 166 338.638671875 166 317.638671875 248 c 128,-1,34
 296.638671875 330 296.638671875 330 296.638671875 429 c 0,35,36
 296.638671875 458 296.638671875 458 298.138671875 488 c 128,-1,37
 299.638671875 518 299.638671875 518 303.638671875 549 c 0,38,39
 316.638671875 663 316.638671875 663 362.638671875 770 c 128,-1,40
 408.638671875 877 408.638671875 877 489.138671875 959.5 c 128,-1,41
 569.638671875 1042 569.638671875 1042 685.138671875 1093 c 128,-1,42
 800.638671875 1144 800.638671875 1144 951.638671875 1144 c 0,43,44
 1037.63867188 1144 1037.63867188 1144 1125.63867188 1129.5 c 128,-1,45
 1213.63867188 1115 1213.63867188 1115 1292.63867188 1089 c 1,46,-1
 1137.63867188 184 l 1,47,-1
 1125.63867188 0 l 1,48,-1
 918.638671875 0 l 1,23,-1
EndSplineSet
EndChar

StartChar: b
Encoding: 98 98 70
Width: 1331
GlyphClass: 1
Flags: W
LayerCount: 2
Fore
SplineSet
438.3359375 175 m 1,0,1
 474.3359375 162 474.3359375 162 526.8359375 154 c 128,-1,2
 579.3359375 146 579.3359375 146 656.3359375 146 c 0,3,4
 761.3359375 146 761.3359375 146 831.3359375 188.5 c 128,-1,5
 901.3359375 231 901.3359375 231 945.8359375 299 c 128,-1,6
 990.3359375 367 990.3359375 367 1013.3359375 450.5 c 128,-1,7
 1036.3359375 534 1036.3359375 534 1048.3359375 615 c 0,8,9
 1054.3359375 661 1054.3359375 661 1054.3359375 702 c 0,10,11
 1054.3359375 767 1054.3359375 767 1040.3359375 818 c 128,-1,12
 1026.3359375 869 1026.3359375 869 1002.3359375 905.5 c 128,-1,13
 978.3359375 942 978.3359375 942 945.3359375 961 c 128,-1,14
 912.3359375 980 912.3359375 980 872.3359375 980 c 0,15,16
 828.3359375 980 828.3359375 980 789.8359375 975.5 c 128,-1,17
 751.3359375 971 751.3359375 971 714.3359375 958 c 128,-1,18
 677.3359375 945 677.3359375 945 639.3359375 922.5 c 128,-1,19
 601.3359375 900 601.3359375 900 559.3359375 865 c 1,20,-1
 438.3359375 175 l 1,0,1
477.3359375 1454 m 1,21,-1
 490.3359375 1638 l 1,22,-1
 700.3359375 1659 l 1,23,-1
 583.3359375 997 l 1,24,-1
 686.3359375 1091 l 1,25,26
 743.3359375 1116 743.3359375 1116 798.8359375 1130 c 128,-1,27
 854.3359375 1144 854.3359375 1144 912.3359375 1144 c 0,28,29
 989.3359375 1144 989.3359375 1144 1049.3359375 1111 c 128,-1,30
 1109.3359375 1078 1109.3359375 1078 1151.8359375 1018.5 c 128,-1,31
 1194.3359375 959 1194.3359375 959 1216.8359375 878 c 128,-1,32
 1239.3359375 797 1239.3359375 797 1239.3359375 700 c 0,33,34
 1239.3359375 678 1239.3359375 678 1237.8359375 656 c 128,-1,35
 1236.3359375 634 1236.3359375 634 1234.3359375 610 c 0,36,37
 1219.3359375 468 1219.3359375 468 1171.8359375 352.5 c 128,-1,38
 1124.3359375 237 1124.3359375 237 1044.8359375 154.5 c 128,-1,39
 965.3359375 72 965.3359375 72 855.8359375 27.5 c 128,-1,40
 746.3359375 -17 746.3359375 -17 606.3359375 -17 c 0,41,42
 580.3359375 -17 580.3359375 -17 546.8359375 -15 c 128,-1,43
 513.3359375 -13 513.3359375 -13 475.8359375 -9 c 128,-1,44
 438.3359375 -5 438.3359375 -5 400.3359375 0 c 128,-1,45
 362.3359375 5 362.3359375 5 328.8359375 10.5 c 128,-1,46
 295.3359375 16 295.3359375 16 268.8359375 23 c 128,-1,47
 242.3359375 30 242.3359375 30 228.3359375 36 c 1,48,-1
 477.3359375 1454 l 1,21,-1
EndSplineSet
EndChar

StartChar: c
Encoding: 99 99 71
Width: 1331
GlyphClass: 1
Flags: W
LayerCount: 2
Fore
SplineSet
1202.38964844 906 m 1,0,1
 1164.38964844 939 1164.38964844 939 1099.38964844 959.5 c 128,-1,2
 1034.38964844 980 1034.38964844 980 927.389648438 980 c 0,3,4
 841.389648438 980 841.389648438 980 767.389648438 947.5 c 128,-1,5
 693.389648438 915 693.389648438 915 635.889648438 860 c 128,-1,6
 578.389648438 805 578.389648438 805 540.889648438 731.5 c 128,-1,7
 503.389648438 658 503.389648438 658 488.389648438 578 c 0,8,9
 479.389648438 529 479.389648438 529 479.389648438 480 c 0,10,11
 479.389648438 412 479.389648438 412 498.389648438 353 c 128,-1,12
 517.389648438 294 517.389648438 294 555.889648438 250 c 128,-1,13
 594.389648438 206 594.389648438 206 653.889648438 181 c 128,-1,14
 713.389648438 156 713.389648438 156 792.389648438 156 c 0,15,16
 835.389648438 156 835.389648438 156 882.889648438 169 c 128,-1,17
 930.389648438 182 930.389648438 182 973.889648438 199.5 c 128,-1,18
 1017.38964844 217 1017.38964844 217 1051.38964844 235.5 c 128,-1,19
 1085.38964844 254 1085.38964844 254 1103.38964844 264 c 1,20,-1
 1157.38964844 118 l 1,21,22
 1126.38964844 95 1126.38964844 95 1081.88964844 71.5 c 128,-1,23
 1037.38964844 48 1037.38964844 48 983.889648438 28 c 128,-1,24
 930.389648438 8 930.389648438 8 870.389648438 -4.5 c 128,-1,25
 810.389648438 -17 810.389648438 -17 748.389648438 -17 c 0,26,27
 635.389648438 -17 635.389648438 -17 548.889648438 22 c 128,-1,28
 462.389648438 61 462.389648438 61 402.889648438 128.5 c 128,-1,29
 343.389648438 196 343.389648438 196 311.889648438 285.5 c 128,-1,30
 280.389648438 375 280.389648438 375 280.389648438 475 c 0,31,32
 280.389648438 504 280.389648438 504 283.389648438 532.5 c 128,-1,33
 286.389648438 561 286.389648438 561 291.389648438 591 c 0,34,35
 309.389648438 697 309.389648438 697 366.389648438 797 c 128,-1,36
 423.389648438 897 423.389648438 897 510.889648438 974 c 128,-1,37
 598.389648438 1051 598.389648438 1051 711.889648438 1097.5 c 128,-1,38
 825.389648438 1144 825.389648438 1144 957.389648438 1144 c 0,39,40
 1082.38964844 1144 1082.38964844 1144 1170.88964844 1114.5 c 128,-1,41
 1259.38964844 1085 1259.38964844 1085 1324.38964844 1024 c 1,42,-1
 1202.38964844 906 l 1,0,1
EndSplineSet
EndChar

StartChar: d
Encoding: 100 100 72
Width: 1331
GlyphClass: 1
Flags: W
LayerCount: 2
Fore
SplineSet
924.291992188 963 m 2,0,1
 808.291992188 963 808.291992188 963 724.791992188 919.5 c 128,-1,2
 641.291992188 876 641.291992188 876 586.791992188 802.5 c 128,-1,3
 532.291992188 729 532.291992188 729 505.791992188 634.5 c 128,-1,4
 479.291992188 540 479.291992188 540 479.291992188 437 c 0,5,6
 479.291992188 363 479.291992188 363 493.291992188 309 c 128,-1,7
 507.291992188 255 507.291992188 255 533.291992188 218.5 c 128,-1,8
 559.291992188 182 559.291992188 182 593.791992188 164.5 c 128,-1,9
 628.291992188 147 628.291992188 147 669.291992188 147 c 0,10,11
 722.291992188 147 722.291992188 147 767.791992188 161.5 c 128,-1,12
 813.291992188 176 813.291992188 176 850.291992188 199.5 c 128,-1,13
 887.291992188 223 887.291992188 223 918.791992188 253 c 128,-1,14
 950.291992188 283 950.291992188 283 974.291992188 313 c 1,15,-1
 1089.29199219 963 l 1,16,-1
 924.291992188 963 l 2,0,1
920.291992188 0 m 1,17,-1
 949.291992188 166 l 1,18,-1
 831.291992188 50 l 2,19,20
 809.291992188 33 809.291992188 33 788.291992188 20 c 128,-1,21
 767.291992188 7 767.291992188 7 742.291992188 -1 c 128,-1,22
 717.291992188 -9 717.291992188 -9 684.791992188 -13 c 128,-1,23
 652.291992188 -17 652.291992188 -17 607.291992188 -17 c 0,24,25
 532.291992188 -17 532.291992188 -17 473.791992188 16 c 128,-1,26
 415.291992188 49 415.291992188 49 375.291992188 110 c 128,-1,27
 335.291992188 171 335.291992188 171 314.791992188 255.5 c 128,-1,28
 294.291992188 340 294.291992188 340 294.291992188 441 c 0,29,30
 294.291992188 528 294.291992188 528 312.291992188 613 c 128,-1,31
 330.291992188 698 330.291992188 698 366.291992188 774 c 128,-1,32
 402.291992188 850 402.291992188 850 457.791992188 914 c 128,-1,33
 513.291992188 978 513.291992188 978 587.291992188 1025 c 128,-1,34
 661.291992188 1072 661.291992188 1072 755.791992188 1098.5 c 128,-1,35
 850.291992188 1125 850.291992188 1125 965.291992188 1126 c 2,36,-1
 1118.29199219 1126 l 1,37,-1
 1212.29199219 1659 l 1,38,-1
 1395.29199219 1638 l 1,39,-1
 1138.29199219 184 l 1,40,-1
 1127.29199219 0 l 1,41,-1
 920.291992188 0 l 1,17,-1
EndSplineSet
EndChar

StartChar: e
Encoding: 101 101 73
Width: 1331
GlyphClass: 1
Flags: W
LayerCount: 2
Fore
SplineSet
1165.50097656 142 m 1,0,1
 1133.50097656 114 1133.50097656 114 1087.00097656 85.5 c 128,-1,2
 1040.50097656 57 1040.50097656 57 980.500976562 34 c 128,-1,3
 920.500976562 11 920.500976562 11 847.000976562 -3 c 128,-1,4
 773.500976562 -17 773.500976562 -17 689.500976562 -17 c 0,5,6
 573.500976562 -17 573.500976562 -17 492.000976562 22 c 128,-1,7
 410.500976562 61 410.500976562 61 357.500976562 128 c 128,-1,8
 304.500976562 195 304.500976562 195 280.000976562 282.5 c 128,-1,9
 255.500976562 370 255.500976562 370 255.500976562 466 c 0,10,11
 255.500976562 514 255.500976562 514 261.500976562 563 c 0,12,13
 270.500976562 638 270.500976562 638 295.000976562 710.5 c 128,-1,14
 319.500976562 783 319.500976562 783 357.500976562 847.5 c 128,-1,15
 395.500976562 912 395.500976562 912 447.500976562 966.5 c 128,-1,16
 499.500976562 1021 499.500976562 1021 564.000976562 1060.5 c 128,-1,17
 628.500976562 1100 628.500976562 1100 704.500976562 1122 c 128,-1,18
 780.500976562 1144 780.500976562 1144 867.500976562 1144 c 0,19,20
 969.500976562 1144 969.500976562 1144 1049.50097656 1115 c 128,-1,21
 1129.50097656 1086 1129.50097656 1086 1183.50097656 1034 c 128,-1,22
 1237.50097656 982 1237.50097656 982 1265.50097656 909 c 128,-1,23
 1293.50097656 836 1293.50097656 836 1293.50097656 746 c 0,24,25
 1293.50097656 703 1293.50097656 703 1286.50097656 662 c 0,26,27
 1281.50097656 630 1281.50097656 630 1274.00097656 603.5 c 128,-1,28
 1266.50097656 577 1266.50097656 577 1258.50097656 556 c 0,29,30
 1249.50097656 532 1249.50097656 532 1239.50097656 512 c 1,31,-1
 439.500976562 512 l 1,32,33
 433.500976562 488 433.500976562 488 431.000976562 466.5 c 128,-1,34
 428.500976562 445 428.500976562 445 428.500976562 425 c 0,35,36
 428.500976562 362 428.500976562 362 452.000976562 308.5 c 128,-1,37
 475.500976562 255 475.500976562 255 514.500976562 216.5 c 128,-1,38
 553.500976562 178 553.500976562 178 603.500976562 157 c 128,-1,39
 653.500976562 136 653.500976562 136 708.500976562 136 c 0,40,41
 774.500976562 136 774.500976562 136 832.000976562 149 c 128,-1,42
 889.500976562 162 889.500976562 162 936.000976562 180.5 c 128,-1,43
 982.500976562 199 982.500976562 199 1017.50097656 218.5 c 128,-1,44
 1052.50097656 238 1052.50097656 238 1071.50097656 251 c 1,45,-1
 1165.50097656 142 l 1,0,1
1106.50097656 666 m 2,46,47
 1108.50097656 669 1108.50097656 669 1111.50097656 682 c 128,-1,48
 1114.50097656 695 1114.50097656 695 1117.00097656 712 c 128,-1,49
 1119.50097656 729 1119.50097656 729 1121.00097656 745 c 128,-1,50
 1122.50097656 761 1122.50097656 761 1122.50097656 770 c 0,51,52
 1122.50097656 807 1122.50097656 807 1111.50097656 844.5 c 128,-1,53
 1100.50097656 882 1100.50097656 882 1070.50097656 912.5 c 128,-1,54
 1040.50097656 943 1040.50097656 943 988.500976562 962 c 128,-1,55
 936.500976562 981 936.500976562 981 854.500976562 981 c 0,56,57
 787.500976562 981 787.500976562 981 732.000976562 962 c 128,-1,58
 676.500976562 943 676.500976562 943 632.000976562 911 c 128,-1,59
 587.500976562 879 587.500976562 879 554.500976562 837 c 128,-1,60
 521.500976562 795 521.500976562 795 501.500976562 750 c 1,61,-1
 417.500976562 638 l 1,62,-1
 614.500976562 666 l 1,63,-1
 1106.50097656 666 l 2,46,47
EndSplineSet
EndChar

StartChar: f
Encoding: 102 102 74
Width: 1331
GlyphClass: 1
Flags: W
LayerCount: 2
Fore
SplineSet
672.091796875 963 m 1,0,-1
 519.091796875 963 l 1,1,-1
 547.091796875 1126 l 1,2,-1
 701.091796875 1126 l 1,3,-1
 730.091796875 1285 l 2,4,5
 747.091796875 1380 747.091796875 1380 776.591796875 1450.5 c 128,-1,6
 806.091796875 1521 806.091796875 1521 852.091796875 1566.5 c 128,-1,7
 898.091796875 1612 898.091796875 1612 959.091796875 1634.5 c 128,-1,8
 1020.09179688 1657 1020.09179688 1657 1102.09179688 1657 c 0,9,10
 1110.09179688 1657 1110.09179688 1657 1117.59179688 1656.5 c 128,-1,11
 1125.09179688 1656 1125.09179688 1656 1133.09179688 1656 c 0,12,13
 1179.09179688 1654 1179.09179688 1654 1215.09179688 1646 c 128,-1,14
 1251.09179688 1638 1251.09179688 1638 1279.59179688 1626 c 128,-1,15
 1308.09179688 1614 1308.09179688 1614 1330.59179688 1598.5 c 128,-1,16
 1353.09179688 1583 1353.09179688 1583 1372.09179688 1566 c 1,17,-1
 1274.09179688 1440 l 1,18,19
 1244.09179688 1466 1244.09179688 1466 1205.59179688 1483 c 128,-1,20
 1167.09179688 1500 1167.09179688 1500 1127.09179688 1500 c 2,21,-1
 1116.09179688 1500 l 2,22,23
 1077.09179688 1497 1077.09179688 1497 1044.59179688 1488 c 128,-1,24
 1012.09179688 1479 1012.09179688 1479 986.591796875 1455 c 128,-1,25
 961.091796875 1431 961.091796875 1431 941.591796875 1388 c 128,-1,26
 922.091796875 1345 922.091796875 1345 910.091796875 1275 c 2,27,-1
 882.091796875 1126 l 1,28,-1
 1179.09179688 1126 l 1,29,-1
 1130.09179688 963 l 1,30,-1
 859.091796875 963 l 1,31,-1
 679.091796875 -101 l 2,32,33
 669.091796875 -159 669.091796875 -159 646.091796875 -218.5 c 128,-1,34
 623.091796875 -278 623.091796875 -278 583.091796875 -325 c 128,-1,35
 543.091796875 -372 543.091796875 -372 485.091796875 -401.5 c 128,-1,36
 427.091796875 -431 427.091796875 -431 346.091796875 -431 c 2,37,-1
 326.091796875 -431 l 2,38,39
 317.091796875 -431 317.091796875 -431 306.091796875 -430 c 0,40,41
 245.091796875 -425 245.091796875 -425 211.591796875 -411 c 128,-1,42
 178.091796875 -397 178.091796875 -397 166.091796875 -391 c 1,43,-1
 233.091796875 -244 l 1,44,45
 244.091796875 -248 244.091796875 -248 268.591796875 -256.5 c 128,-1,46
 293.091796875 -265 293.091796875 -265 324.091796875 -266 c 2,47,-1
 331.091796875 -266 l 2,48,49
 368.091796875 -266 368.091796875 -266 395.591796875 -247.5 c 128,-1,50
 423.091796875 -229 423.091796875 -229 443.591796875 -195 c 128,-1,51
 464.091796875 -161 464.091796875 -161 478.091796875 -111 c 128,-1,52
 492.091796875 -61 492.091796875 -61 503.091796875 0 c 2,53,-1
 672.091796875 963 l 1,0,-1
EndSplineSet
EndChar

StartChar: g
Encoding: 103 103 75
Width: 1331
GlyphClass: 1
Flags: W
LayerCount: 2
Fore
SplineSet
957.530273438 138 m 1,0,-1
 848.530273438 26 l 2,1,2
 839.530273438 21 839.530273438 21 824.530273438 13 c 128,-1,3
 809.530273438 5 809.530273438 5 788.030273438 -1.5 c 128,-1,4
 766.530273438 -8 766.530273438 -8 739.030273438 -12.5 c 128,-1,5
 711.530273438 -17 711.530273438 -17 677.530273438 -17 c 0,6,7
 590.530273438 -17 590.530273438 -17 522.030273438 18 c 128,-1,8
 453.530273438 53 453.530273438 53 406.030273438 117 c 128,-1,9
 358.530273438 181 358.530273438 181 333.530273438 270.5 c 128,-1,10
 308.530273438 360 308.530273438 360 308.530273438 469 c 0,11,12
 308.530273438 556 308.530273438 556 325.030273438 640 c 128,-1,13
 341.530273438 724 341.530273438 724 373.530273438 798.5 c 128,-1,14
 405.530273438 873 405.530273438 873 452.530273438 936.5 c 128,-1,15
 499.530273438 1000 499.530273438 1000 561.530273438 1046.5 c 128,-1,16
 623.530273438 1093 623.530273438 1093 699.530273438 1118.5 c 128,-1,17
 775.530273438 1144 775.530273438 1144 865.530273438 1144 c 0,18,19
 887.530273438 1144 887.530273438 1144 912.530273438 1141 c 128,-1,20
 937.530273438 1138 937.530273438 1138 962.030273438 1132 c 128,-1,21
 986.530273438 1126 986.530273438 1126 1009.03027344 1117 c 128,-1,22
 1031.53027344 1108 1031.53027344 1108 1049.53027344 1096 c 1,23,-1
 1105.53027344 981 l 1,24,-1
 1136.53027344 1148 l 1,25,-1
 1317.53027344 1126 l 1,26,-1
 1110.53027344 -47 l 2,27,28
 1091.53027344 -155 1091.53027344 -155 1047.03027344 -243.5 c 128,-1,29
 1002.53027344 -332 1002.53027344 -332 935.030273438 -396 c 128,-1,30
 867.530273438 -460 867.530273438 -460 780.030273438 -494.5 c 128,-1,31
 692.530273438 -529 692.530273438 -529 588.530273438 -529 c 0,32,33
 509.530273438 -529 509.530273438 -529 447.530273438 -513 c 128,-1,34
 385.530273438 -497 385.530273438 -497 341.030273438 -475 c 128,-1,35
 296.530273438 -453 296.530273438 -453 268.030273438 -430.5 c 128,-1,36
 239.530273438 -408 239.530273438 -408 226.530273438 -395 c 1,37,-1
 346.530273438 -283 l 1,38,39
 353.530273438 -289 353.530273438 -289 376.030273438 -302.5 c 128,-1,40
 398.530273438 -316 398.530273438 -316 433.030273438 -330 c 128,-1,41
 467.530273438 -344 467.530273438 -344 511.030273438 -355 c 128,-1,42
 554.530273438 -366 554.530273438 -366 603.530273438 -366 c 0,43,44
 666.530273438 -366 666.530273438 -366 720.530273438 -341.5 c 128,-1,45
 774.530273438 -317 774.530273438 -317 816.030273438 -273 c 128,-1,46
 857.530273438 -229 857.530273438 -229 886.030273438 -167.5 c 128,-1,47
 914.530273438 -106 914.530273438 -106 927.530273438 -32 c 2,48,-1
 957.530273438 138 l 1,0,-1
1083.53027344 854 m 1,49,50
 1068.53027344 876 1068.53027344 876 1046.03027344 898.5 c 128,-1,51
 1023.53027344 921 1023.53027344 921 993.530273438 939 c 128,-1,52
 963.530273438 957 963.530273438 957 924.530273438 969 c 128,-1,53
 885.530273438 981 885.530273438 981 838.530273438 981 c 0,54,55
 773.530273438 981 773.530273438 981 723.030273438 957.5 c 128,-1,56
 672.530273438 934 672.530273438 934 634.030273438 894.5 c 128,-1,57
 595.530273438 855 595.530273438 855 568.530273438 802.5 c 128,-1,58
 541.530273438 750 541.530273438 750 524.530273438 692 c 128,-1,59
 507.530273438 634 507.530273438 634 500.030273438 573.5 c 128,-1,60
 492.530273438 513 492.530273438 513 492.530273438 459 c 0,61,62
 492.530273438 320 492.530273438 320 539.530273438 241 c 128,-1,63
 586.530273438 162 586.530273438 162 688.530273438 148 c 0,64,65
 710.530273438 145 710.530273438 145 730.530273438 145 c 0,66,67
 773.530273438 145 773.530273438 145 810.030273438 156.5 c 128,-1,68
 846.530273438 168 846.530273438 168 877.030273438 187 c 128,-1,69
 907.530273438 206 907.530273438 206 934.030273438 230.5 c 128,-1,70
 960.530273438 255 960.530273438 255 982.530273438 282 c 1,71,-1
 1083.53027344 854 l 1,49,50
EndSplineSet
EndChar

StartChar: h
Encoding: 104 104 76
Width: 1331
GlyphClass: 1
Flags: W
LayerCount: 2
Fore
SplineSet
414.912109375 0 m 1,0,-1
 220.912109375 0 l 1,1,-1
 473.912109375 1434 l 1,2,-1
 488.912109375 1638 l 1,3,-1
 706.912109375 1659 l 1,4,-1
 585.912109375 973 l 1,5,-1
 697.912109375 1091 l 1,6,7
 742.912109375 1114 742.912109375 1114 819.912109375 1129 c 128,-1,8
 896.912109375 1144 896.912109375 1144 1014.91210938 1144 c 0,9,10
 1142.91210938 1144 1142.91210938 1144 1207.91210938 1074 c 128,-1,11
 1272.91210938 1004 1272.91210938 1004 1272.91210938 869 c 0,12,13
 1272.91210938 841 1272.91210938 841 1270.41210938 810.5 c 128,-1,14
 1267.91210938 780 1267.91210938 780 1261.91210938 748 c 2,15,-1
 1130.91210938 0 l 1,16,-1
 935.912109375 0 l 1,17,-1
 1063.91210938 726 l 2,18,19
 1072.91210938 779 1072.91210938 779 1073.91210938 822 c 0,20,21
 1073.91210938 907 1073.91210938 907 1038.41210938 943.5 c 128,-1,22
 1002.91210938 980 1002.91210938 980 937.912109375 980 c 0,23,24
 876.912109375 980 876.912109375 980 818.912109375 967.5 c 128,-1,25
 760.912109375 955 760.912109375 955 711.412109375 936.5 c 128,-1,26
 661.912109375 918 661.912109375 918 623.912109375 895 c 128,-1,27
 585.912109375 872 585.912109375 872 565.912109375 853 c 1,28,-1
 414.912109375 0 l 1,0,-1
EndSplineSet
EndChar

StartChar: i
Encoding: 105 105 77
Width: 1331
GlyphClass: 1
Flags: W
LayerCount: 2
Fore
SplineSet
753.116210938 1536 m 1,0,-1
 960.116210938 1536 l 1,1,-1
 924.116210938 1331 l 1,2,-1
 717.116210938 1331 l 1,3,-1
 753.116210938 1536 l 1,0,-1
697.116210938 1004 m 1,4,-1
 574.116210938 963 l 1,5,-1
 338.116210938 963 l 1,6,-1
 364.116210938 1126 l 1,7,-1
 882.116210938 1126 l 1,8,9
 856.116210938 983 856.116210938 983 838.116210938 879.5 c 128,-1,10
 820.116210938 776 820.116210938 776 807.116210938 703.5 c 128,-1,11
 794.116210938 631 794.116210938 631 786.616210938 586 c 128,-1,12
 779.116210938 541 779.116210938 541 774.616210938 514 c 128,-1,13
 770.116210938 487 770.116210938 487 767.616210938 475.5 c 128,-1,14
 765.116210938 464 765.116210938 464 764.116210938 459.5 c 128,-1,15
 763.116210938 455 763.116210938 455 762.616210938 452.5 c 128,-1,16
 762.116210938 450 762.116210938 450 761.116210938 441 c 0,17,18
 759.116210938 427 759.116210938 427 755.616210938 403.5 c 128,-1,19
 752.116210938 380 752.116210938 380 748.616210938 355.5 c 128,-1,20
 745.116210938 331 745.116210938 331 742.616210938 309 c 128,-1,21
 740.116210938 287 740.116210938 287 740.116210938 275 c 0,22,23
 740.116210938 197 740.116210938 197 784.116210938 166.5 c 128,-1,24
 828.116210938 136 828.116210938 136 908.116210938 136 c 0,25,26
 935.116210938 136 935.116210938 136 968.116210938 148.5 c 128,-1,27
 1001.11621094 161 1001.11621094 161 1033.61621094 178 c 128,-1,28
 1066.11621094 195 1066.11621094 195 1094.11621094 213.5 c 128,-1,29
 1122.11621094 232 1122.11621094 232 1138.11621094 247 c 1,30,-1
 1187.11621094 123 l 1,31,32
 1178.11621094 115 1178.11621094 115 1148.11621094 92 c 128,-1,33
 1118.11621094 69 1118.11621094 69 1075.11621094 44.5 c 128,-1,34
 1032.11621094 20 1032.11621094 20 978.616210938 1.5 c 128,-1,35
 925.116210938 -17 925.116210938 -17 869.116210938 -17 c 0,36,37
 798.116210938 -17 798.116210938 -17 738.616210938 3 c 128,-1,38
 679.116210938 23 679.116210938 23 636.116210938 58 c 128,-1,39
 593.116210938 93 593.116210938 93 568.616210938 142 c 128,-1,40
 544.116210938 191 544.116210938 191 544.116210938 250 c 0,41,42
 544.116210938 268 544.116210938 268 546.116210938 295 c 128,-1,43
 548.116210938 322 548.116210938 322 551.116210938 351 c 128,-1,44
 554.116210938 380 554.116210938 380 558.616210938 408 c 128,-1,45
 563.116210938 436 563.116210938 436 567.116210938 458 c 2,46,-1
 653.116210938 941 l 1,47,-1
 697.116210938 1004 l 1,4,-1
EndSplineSet
EndChar

StartChar: j
Encoding: 106 106 78
Width: 1331
GlyphClass: 1
Flags: W
LayerCount: 2
Fore
SplineSet
1061.23144531 1536 m 1,0,-1
 1268.23144531 1536 l 1,1,-1
 1232.23144531 1331 l 1,2,-1
 1025.23144531 1331 l 1,3,-1
 1061.23144531 1536 l 1,0,-1
1010.23144531 1019 m 1,4,-1
 887.231445312 978 l 1,5,-1
 653.231445312 978 l 1,6,-1
 679.231445312 1126 l 1,7,-1
 1190.23144531 1126 l 1,8,-1
 974.231445312 -99 l 2,9,10
 958.231445312 -190 958.231445312 -190 932.731445312 -269 c 128,-1,11
 907.231445312 -348 907.231445312 -348 862.231445312 -406 c 128,-1,12
 817.231445312 -464 817.231445312 -464 749.231445312 -496.5 c 128,-1,13
 681.231445312 -529 681.231445312 -529 581.231445312 -529 c 0,14,15
 513.231445312 -529 513.231445312 -529 455.731445312 -518.5 c 128,-1,16
 398.231445312 -508 398.231445312 -508 355.231445312 -495 c 128,-1,17
 312.231445312 -482 312.231445312 -482 285.231445312 -470 c 128,-1,18
 258.231445312 -458 258.231445312 -458 253.231445312 -455 c 1,19,-1
 321.231445312 -297 l 1,20,21
 326.231445312 -301 326.231445312 -301 345.731445312 -312 c 128,-1,22
 365.231445312 -323 365.231445312 -323 395.731445312 -334.5 c 128,-1,23
 426.231445312 -346 426.231445312 -346 467.231445312 -355 c 128,-1,24
 508.231445312 -364 508.231445312 -364 557.231445312 -364 c 0,25,26
 605.231445312 -364 605.231445312 -364 641.731445312 -347.5 c 128,-1,27
 678.231445312 -331 678.231445312 -331 704.731445312 -299 c 128,-1,28
 731.231445312 -267 731.231445312 -267 748.731445312 -219.5 c 128,-1,29
 766.231445312 -172 766.231445312 -172 778.231445312 -110 c 2,30,-1
 966.231445312 956 l 1,31,-1
 1010.23144531 1019 l 1,4,-1
EndSplineSet
EndChar

StartChar: k
Encoding: 107 107 79
Width: 1331
GlyphClass: 1
Flags: W
LayerCount: 2
Fore
SplineSet
219.412109375 0 m 1,0,-1
 475.412109375 1454 l 1,1,-1
 487.412109375 1638 l 1,2,-1
 697.412109375 1659 l 1,3,-1
 529.412109375 707 l 1,4,-1
 982.412109375 1126 l 1,5,-1
 1216.41210938 1126 l 1,6,-1
 764.412109375 707 l 1,7,-1
 580.412109375 642 l 1,8,-1
 741.412109375 581 l 1,9,-1
 1132.41210938 0 l 1,10,-1
 891.412109375 0 l 1,11,-1
 506.412109375 570 l 1,12,-1
 405.412109375 0 l 1,13,-1
 219.412109375 0 l 1,0,-1
EndSplineSet
EndChar

StartChar: l
Encoding: 108 108 80
Width: 1331
GlyphClass: 1
Flags: W
LayerCount: 2
Fore
SplineSet
772.755859375 1510 m 1,0,-1
 649.755859375 1469 l 1,1,-1
 434.755859375 1469 l 1,2,-1
 463.755859375 1638 l 1,3,-1
 961.755859375 1638 l 1,4,-1
 739.755859375 385 l 2,5,6
 733.755859375 352 733.755859375 352 731.755859375 325 c 128,-1,7
 729.755859375 298 729.755859375 298 729.755859375 275 c 0,8,9
 729.755859375 197 729.755859375 197 773.755859375 166.5 c 128,-1,10
 817.755859375 136 817.755859375 136 897.755859375 136 c 0,11,12
 924.755859375 136 924.755859375 136 957.755859375 148.5 c 128,-1,13
 990.755859375 161 990.755859375 161 1023.75585938 178 c 128,-1,14
 1056.75585938 195 1056.75585938 195 1084.25585938 213.5 c 128,-1,15
 1111.75585938 232 1111.75585938 232 1128.75585938 247 c 1,16,-1
 1177.75585938 123 l 1,17,18
 1168.75585938 115 1168.75585938 115 1138.25585938 92 c 128,-1,19
 1107.75585938 69 1107.75585938 69 1064.75585938 44.5 c 128,-1,20
 1021.75585938 20 1021.75585938 20 968.755859375 1.5 c 128,-1,21
 915.755859375 -17 915.755859375 -17 858.755859375 -17 c 0,22,23
 787.755859375 -17 787.755859375 -17 728.755859375 3 c 128,-1,24
 669.755859375 23 669.755859375 23 626.755859375 58 c 128,-1,25
 583.755859375 93 583.755859375 93 559.255859375 142 c 128,-1,26
 534.755859375 191 534.755859375 191 534.755859375 250 c 0,27,28
 534.755859375 287 534.755859375 287 538.755859375 327 c 128,-1,29
 542.755859375 367 542.755859375 367 550.755859375 410 c 2,30,-1
 728.755859375 1448 l 1,31,-1
 772.755859375 1510 l 1,0,-1
EndSplineSet
EndChar

StartChar: m
Encoding: 109 109 81
Width: 1331
GlyphClass: 1
Flags: W
LayerCount: 2
Fore
SplineSet
286.771484375 0 m 1,0,-1
 105.771484375 0 l 1,1,-1
 302.771484375 1126 l 1,2,-1
 488.771484375 1148 l 1,3,-1
 455.771484375 959 l 1,4,5
 484.771484375 1000 484.771484375 1000 499.771484375 1023.5 c 128,-1,6
 514.771484375 1047 514.771484375 1047 522.771484375 1057.5 c 128,-1,7
 530.771484375 1068 530.771484375 1068 532.771484375 1070.5 c 128,-1,8
 534.771484375 1073 534.771484375 1073 535.771484375 1073 c 0,9,10
 546.771484375 1082 546.771484375 1082 562.771484375 1094.5 c 128,-1,11
 578.771484375 1107 578.771484375 1107 600.771484375 1117.5 c 128,-1,12
 622.771484375 1128 622.771484375 1128 652.771484375 1136 c 128,-1,13
 682.771484375 1144 682.771484375 1144 722.771484375 1144 c 0,14,15
 779.771484375 1144 779.771484375 1144 814.271484375 1129 c 128,-1,16
 848.771484375 1114 848.771484375 1114 867.271484375 1088 c 128,-1,17
 885.771484375 1062 885.771484375 1062 893.271484375 1025 c 128,-1,18
 900.771484375 988 900.771484375 988 903.771484375 945 c 1,19,-1
 989.771484375 1068 l 2,20,21
 1000.77148438 1077 1000.77148438 1077 1023.27148438 1090.5 c 128,-1,22
 1045.77148438 1104 1045.77148438 1104 1074.27148438 1115.5 c 128,-1,23
 1102.77148438 1127 1102.77148438 1127 1134.77148438 1135.5 c 128,-1,24
 1166.77148438 1144 1166.77148438 1144 1199.77148438 1144 c 0,25,26
 1277.77148438 1144 1277.77148438 1144 1318.77148438 1118 c 128,-1,27
 1359.77148438 1092 1359.77148438 1092 1374.27148438 1042.5 c 128,-1,28
 1388.77148438 993 1388.77148438 993 1382.77148438 923.5 c 128,-1,29
 1376.77148438 854 1376.77148438 854 1361.77148438 768 c 2,30,-1
 1226.77148438 0 l 1,31,-1
 1044.77148438 0 l 1,32,-1
 1177.77148438 758 l 2,33,34
 1187.77148438 813 1187.77148438 813 1193.27148438 854.5 c 128,-1,35
 1198.77148438 896 1198.77148438 896 1193.27148438 924 c 128,-1,36
 1187.77148438 952 1187.77148438 952 1167.27148438 966 c 128,-1,37
 1146.77148438 980 1146.77148438 980 1104.77148438 980 c 0,38,39
 1084.77148438 980 1084.77148438 980 1055.77148438 967 c 128,-1,40
 1026.77148438 954 1026.77148438 954 997.771484375 934 c 128,-1,41
 968.771484375 914 968.771484375 914 942.771484375 889 c 128,-1,42
 916.771484375 864 916.771484375 864 900.771484375 839 c 0,43,44
 899.771484375 833 899.771484375 833 897.771484375 819 c 128,-1,45
 895.771484375 805 895.771484375 805 893.771484375 790 c 128,-1,46
 891.771484375 775 891.771484375 775 889.771484375 762.5 c 128,-1,47
 887.771484375 750 887.771484375 750 886.771484375 744 c 2,48,-1
 755.771484375 0 l 1,49,-1
 571.771484375 0 l 1,50,-1
 702.771484375 737 l 2,51,52
 711.771484375 792 711.771484375 792 717.771484375 837.5 c 128,-1,53
 723.771484375 883 723.771484375 883 718.771484375 914 c 128,-1,54
 713.771484375 945 713.771484375 945 692.771484375 962.5 c 128,-1,55
 671.771484375 980 671.771484375 980 627.771484375 980 c 0,56,57
 611.771484375 980 611.771484375 980 587.271484375 971 c 128,-1,58
 562.771484375 962 562.771484375 962 536.271484375 944 c 128,-1,59
 509.771484375 926 509.771484375 926 483.271484375 901 c 128,-1,60
 456.771484375 876 456.771484375 876 434.771484375 844 c 1,61,-1
 286.771484375 0 l 1,0,-1
EndSplineSet
EndChar

StartChar: n
Encoding: 110 110 82
Width: 1331
GlyphClass: 1
Flags: W
LayerCount: 2
Fore
SplineSet
400 0 m 1,0,-1
 205 0 l 1,1,-1
 404 1126 l 1,2,-1
 602 1148 l 1,3,-1
 567 949 l 1,4,-1
 651 1069 l 1,5,6
 671 1081 671 1081 701 1094.5 c 128,-1,7
 731 1108 731 1108 772 1118.5 c 128,-1,8
 813 1129 813 1129 865.5 1136.5 c 128,-1,9
 918 1144 918 1144 985 1144 c 0,10,11
 1125 1144 1125 1144 1197.5 1069.5 c 128,-1,12
 1270 995 1270 995 1270 864 c 0,13,14
 1270 818 1270 818 1261 768 c 2,15,-1
 1126 0 l 1,16,-1
 931 0 l 1,17,-1
 1067 768 l 2,18,19
 1069 782 1069 782 1070.5 795.5 c 128,-1,20
 1072 809 1072 809 1072 821 c 0,21,22
 1072 871 1072 871 1059 902.5 c 128,-1,23
 1046 934 1046 934 1022 951.5 c 128,-1,24
 998 969 998 969 964 974.5 c 128,-1,25
 930 980 930 980 889 980 c 0,26,27
 835 980 835 980 787 967.5 c 128,-1,28
 739 955 739 955 696.5 936.5 c 128,-1,29
 654 918 654 918 617.5 895.5 c 128,-1,30
 581 873 581 873 551 854 c 1,31,-1
 400 0 l 1,0,-1
EndSplineSet
EndChar

StartChar: o
Encoding: 111 111 83
Width: 1331
GlyphClass: 1
Flags: W
LayerCount: 2
Fore
SplineSet
679.831054688 -17 m 0,0,1
 578.831054688 -17 578.831054688 -17 494.831054688 18.5 c 128,-1,2
 410.831054688 54 410.831054688 54 351.331054688 119.5 c 128,-1,3
 291.831054688 185 291.831054688 185 258.831054688 278 c 128,-1,4
 225.831054688 371 225.831054688 371 225.831054688 484 c 0,5,6
 225.831054688 630 225.831054688 630 271.331054688 751.5 c 128,-1,7
 316.831054688 873 316.831054688 873 398.331054688 960.5 c 128,-1,8
 479.831054688 1048 479.831054688 1048 592.831054688 1096 c 128,-1,9
 705.831054688 1144 705.831054688 1144 841.831054688 1144 c 0,10,11
 945.831054688 1144 945.831054688 1144 1031.33105469 1110 c 128,-1,12
 1116.83105469 1076 1116.83105469 1076 1177.33105469 1012 c 128,-1,13
 1237.83105469 948 1237.83105469 948 1270.33105469 855.5 c 128,-1,14
 1302.83105469 763 1302.83105469 763 1302.83105469 646 c 0,15,16
 1302.83105469 493 1302.83105469 493 1259.33105469 370.5 c 128,-1,17
 1215.83105469 248 1215.83105469 248 1134.83105469 162 c 128,-1,18
 1053.83105469 76 1053.83105469 76 938.831054688 29.5 c 128,-1,19
 823.831054688 -17 823.831054688 -17 679.831054688 -17 c 0,0,1
1115.83105469 637 m 0,20,21
 1115.83105469 714 1115.83105469 714 1097.33105469 778 c 128,-1,22
 1078.83105469 842 1078.83105469 842 1041.83105469 888.5 c 128,-1,23
 1004.83105469 935 1004.83105469 935 950.331054688 960.5 c 128,-1,24
 895.831054688 986 895.831054688 986 821.831054688 986 c 0,25,26
 754.831054688 986 754.831054688 986 698.831054688 966 c 128,-1,27
 642.831054688 946 642.831054688 946 597.831054688 911.5 c 128,-1,28
 552.831054688 877 552.831054688 877 517.831054688 829 c 128,-1,29
 482.831054688 781 482.831054688 781 459.831054688 726.5 c 128,-1,30
 436.831054688 672 436.831054688 672 424.831054688 611.5 c 128,-1,31
 412.831054688 551 412.831054688 551 412.831054688 492 c 0,32,33
 412.831054688 415 412.831054688 415 430.331054688 350.5 c 128,-1,34
 447.831054688 286 447.831054688 286 483.331054688 239.5 c 128,-1,35
 518.831054688 193 518.831054688 193 572.331054688 167 c 128,-1,36
 625.831054688 141 625.831054688 141 698.831054688 141 c 0,37,38
 764.831054688 141 764.831054688 141 820.831054688 161 c 128,-1,39
 876.831054688 181 876.831054688 181 922.831054688 216.5 c 128,-1,40
 968.831054688 252 968.831054688 252 1004.83105469 299.5 c 128,-1,41
 1040.83105469 347 1040.83105469 347 1065.33105469 402.5 c 128,-1,42
 1089.83105469 458 1089.83105469 458 1102.83105469 518 c 128,-1,43
 1115.83105469 578 1115.83105469 578 1115.83105469 637 c 0,20,21
EndSplineSet
EndChar

StartChar: p
Encoding: 112 112 84
Width: 1331
GlyphClass: 1
Flags: W
LayerCount: 2
Fore
SplineSet
614.484375 164 m 2,0,1
 731.484375 164 731.484375 164 812.484375 207 c 128,-1,2
 893.484375 250 893.484375 250 944.984375 323 c 128,-1,3
 996.484375 396 996.484375 396 1019.984375 492 c 128,-1,4
 1043.484375 588 1043.484375 588 1043.484375 693 c 0,5,6
 1043.484375 834 1043.484375 834 982.484375 908.5 c 128,-1,7
 921.484375 983 921.484375 983 814.484375 983 c 0,8,9
 737.484375 983 737.484375 983 673.484375 944.5 c 128,-1,10
 609.484375 906 609.484375 906 547.484375 847 c 1,11,-1
 427.484375 164 l 1,12,-1
 614.484375 164 l 2,0,1
308.484375 -512 m 1,13,-1
 121.484375 -512 l 1,14,-1
 410.484375 1126 l 1,15,-1
 600.484375 1148 l 1,16,-1
 569.484375 967 l 1,17,-1
 666.484375 1072 l 1,18,19
 686.484375 1085 686.484375 1085 707.984375 1098 c 128,-1,20
 729.484375 1111 729.484375 1111 754.984375 1121.5 c 128,-1,21
 780.484375 1132 780.484375 1132 811.484375 1138 c 128,-1,22
 842.484375 1144 842.484375 1144 882.484375 1144 c 0,23,24
 957.484375 1144 957.484375 1144 1021.484375 1115 c 128,-1,25
 1085.484375 1086 1085.484375 1086 1131.484375 1031 c 128,-1,26
 1177.484375 976 1177.484375 976 1203.484375 895.5 c 128,-1,27
 1229.484375 815 1229.484375 815 1229.484375 712 c 0,28,29
 1229.484375 567 1229.484375 567 1189.484375 437.5 c 128,-1,30
 1149.484375 308 1149.484375 308 1065.984375 211 c 128,-1,31
 982.484375 114 982.484375 114 853.984375 57 c 128,-1,32
 725.484375 0 725.484375 0 548.484375 0 c 2,33,-1
 399.484375 0 l 1,34,-1
 308.484375 -512 l 1,13,-1
EndSplineSet
EndChar

StartChar: q
Encoding: 113 113 85
Width: 1331
GlyphClass: 1
Flags: W
LayerCount: 2
Fore
SplineSet
1100.66113281 957 m 1,0,1
 1080.66113281 961 1080.66113281 961 1054.16113281 965.5 c 128,-1,2
 1027.66113281 970 1027.66113281 970 997.161132812 973 c 128,-1,3
 966.661132812 976 966.661132812 976 935.661132812 978 c 128,-1,4
 904.661132812 980 904.661132812 980 875.661132812 980 c 0,5,6
 798.661132812 980 798.661132812 980 741.161132812 954.5 c 128,-1,7
 683.661132812 929 683.661132812 929 641.161132812 886.5 c 128,-1,8
 598.661132812 844 598.661132812 844 570.161132812 788.5 c 128,-1,9
 541.661132812 733 541.661132812 733 524.661132812 672.5 c 128,-1,10
 507.661132812 612 507.661132812 612 500.661132812 550.5 c 128,-1,11
 493.661132812 489 493.661132812 489 493.661132812 435 c 0,12,13
 493.661132812 283 493.661132812 283 549.161132812 213 c 128,-1,14
 604.661132812 143 604.661132812 143 703.661132812 143 c 0,15,16
 775.661132812 143 775.661132812 143 847.161132812 181 c 128,-1,17
 918.661132812 219 918.661132812 219 981.661132812 276 c 1,18,-1
 1100.66113281 957 l 1,0,1
956.661132812 139 m 1,19,-1
 830.661132812 30 l 1,20,21
 801.661132812 18 801.661132812 18 778.161132812 9 c 128,-1,22
 754.661132812 0 754.661132812 0 731.661132812 -6 c 128,-1,23
 708.661132812 -12 708.661132812 -12 683.661132812 -14.5 c 128,-1,24
 658.661132812 -17 658.661132812 -17 626.661132812 -17 c 0,25,26
 551.661132812 -17 551.661132812 -17 492.161132812 14 c 128,-1,27
 432.661132812 45 432.661132812 45 391.161132812 104 c 128,-1,28
 349.661132812 163 349.661132812 163 327.161132812 248.5 c 128,-1,29
 304.661132812 334 304.661132812 334 304.661132812 442 c 0,30,31
 304.661132812 590 304.661132812 590 347.661132812 718.5 c 128,-1,32
 390.661132812 847 390.661132812 847 467.661132812 941 c 128,-1,33
 544.661132812 1035 544.661132812 1035 652.661132812 1089.5 c 128,-1,34
 760.661132812 1144 760.661132812 1144 889.661132812 1144 c 0,35,36
 957.661132812 1144 957.661132812 1144 1011.16113281 1140 c 128,-1,37
 1064.66113281 1136 1064.66113281 1136 1112.16113281 1128 c 128,-1,38
 1159.66113281 1120 1159.66113281 1120 1207.16113281 1110.5 c 128,-1,39
 1254.66113281 1101 1254.66113281 1101 1310.66113281 1091 c 1,40,-1
 1028.66113281 -512 l 1,41,-1
 841.661132812 -512 l 1,42,-1
 956.661132812 139 l 1,19,-1
EndSplineSet
EndChar

StartChar: r
Encoding: 114 114 86
Width: 1331
GlyphClass: 1
Flags: W
LayerCount: 2
Fore
SplineSet
569.706054688 916 m 1,0,-1
 690.706054688 1078 l 1,1,2
 723.706054688 1100 723.706054688 1100 762.206054688 1113 c 128,-1,3
 800.706054688 1126 800.706054688 1126 841.206054688 1133 c 128,-1,4
 881.706054688 1140 881.706054688 1140 921.706054688 1142 c 128,-1,5
 961.706054688 1144 961.706054688 1144 997.706054688 1144 c 0,6,7
 1050.70605469 1144 1050.70605469 1144 1094.70605469 1136.5 c 128,-1,8
 1138.70605469 1129 1138.70605469 1129 1172.70605469 1119 c 128,-1,9
 1206.70605469 1109 1206.70605469 1109 1229.20605469 1097.5 c 128,-1,10
 1251.70605469 1086 1251.70605469 1086 1262.70605469 1078 c 1,11,-1
 1262.70605469 819 l 1,12,-1
 1114.70605469 798 l 1,13,-1
 1094.70605469 971 l 1,14,15
 1080.70605469 976 1080.70605469 976 1051.70605469 983.5 c 128,-1,16
 1022.70605469 991 1022.70605469 991 976.706054688 991 c 0,17,18
 906.706054688 991 906.706054688 991 843.706054688 971.5 c 128,-1,19
 780.706054688 952 780.706054688 952 725.206054688 920.5 c 128,-1,20
 669.706054688 889 669.706054688 889 623.706054688 849 c 128,-1,21
 577.706054688 809 577.706054688 809 542.706054688 768 c 1,22,-1
 407.706054688 0 l 1,23,-1
 212.706054688 0 l 1,24,-1
 411.706054688 1126 l 1,25,-1
 609.706054688 1148 l 1,26,-1
 569.706054688 916 l 1,0,-1
EndSplineSet
EndChar

StartChar: s
Encoding: 115 115 87
Width: 1331
GlyphClass: 1
Flags: W
LayerCount: 2
Fore
SplineSet
1158.45800781 931 m 1,0,1
 1141.45800781 940 1141.45800781 940 1107.95800781 951 c 128,-1,2
 1074.45800781 962 1074.45800781 962 1036.95800781 971 c 128,-1,3
 999.458007812 980 999.458007812 980 962.458007812 985.5 c 128,-1,4
 925.458007812 991 925.458007812 991 900.458007812 991 c 0,5,6
 846.458007812 991 846.458007812 991 784.958007812 985.5 c 128,-1,7
 723.458007812 980 723.458007812 980 671.958007812 963 c 128,-1,8
 620.458007812 946 620.458007812 946 586.458007812 916 c 128,-1,9
 552.458007812 886 552.458007812 886 552.458007812 837 c 0,10,11
 552.458007812 803 552.458007812 803 577.958007812 778.5 c 128,-1,12
 603.458007812 754 603.458007812 754 643.458007812 735.5 c 128,-1,13
 683.458007812 717 683.458007812 717 735.458007812 702.5 c 128,-1,14
 787.458007812 688 787.458007812 688 839.458007812 676 c 128,-1,15
 891.458007812 664 891.458007812 664 939.958007812 651.5 c 128,-1,16
 988.458007812 639 988.458007812 639 1022.45800781 625 c 0,17,18
 1060.45800781 610 1060.45800781 610 1094.45800781 587 c 128,-1,19
 1128.45800781 564 1128.45800781 564 1152.95800781 535 c 128,-1,20
 1177.45800781 506 1177.45800781 506 1191.95800781 470 c 128,-1,21
 1206.45800781 434 1206.45800781 434 1206.45800781 392 c 0,22,23
 1206.45800781 312 1206.45800781 312 1174.95800781 250.5 c 128,-1,24
 1143.45800781 189 1143.45800781 189 1090.95800781 143.5 c 128,-1,25
 1038.45800781 98 1038.45800781 98 970.958007812 67.5 c 128,-1,26
 903.458007812 37 903.458007812 37 830.958007812 18 c 128,-1,27
 758.458007812 -1 758.458007812 -1 686.458007812 -9 c 128,-1,28
 614.458007812 -17 614.458007812 -17 553.458007812 -17 c 0,29,30
 518.458007812 -17 518.458007812 -17 467.958007812 -10.5 c 128,-1,31
 417.458007812 -4 417.458007812 -4 365.958007812 7.5 c 128,-1,32
 314.458007812 19 314.458007812 19 269.458007812 35.5 c 128,-1,33
 224.458007812 52 224.458007812 52 200.458007812 71 c 1,34,-1
 293.458007812 216 l 1,35,36
 316.458007812 204 316.458007812 204 354.458007812 191.5 c 128,-1,37
 392.458007812 179 392.458007812 179 434.458007812 169 c 128,-1,38
 476.458007812 159 476.458007812 159 516.458007812 152.5 c 128,-1,39
 556.458007812 146 556.458007812 146 584.458007812 146 c 0,40,41
 615.458007812 146 615.458007812 146 656.458007812 150.5 c 128,-1,42
 697.458007812 155 697.458007812 155 740.458007812 164.5 c 128,-1,43
 783.458007812 174 783.458007812 174 825.958007812 190 c 128,-1,44
 868.458007812 206 868.458007812 206 900.958007812 230.5 c 128,-1,45
 933.458007812 255 933.458007812 255 953.958007812 289 c 128,-1,46
 974.458007812 323 974.458007812 323 974.458007812 368 c 0,47,48
 974.458007812 404 974.458007812 404 951.458007812 429 c 128,-1,49
 928.458007812 454 928.458007812 454 890.958007812 471.5 c 128,-1,50
 853.458007812 489 853.458007812 489 805.458007812 502.5 c 128,-1,51
 757.458007812 516 757.458007812 516 706.958007812 528 c 128,-1,52
 656.458007812 540 656.458007812 540 607.958007812 551.5 c 128,-1,53
 559.458007812 563 559.458007812 563 520.458007812 580 c 0,54,55
 474.458007812 599 474.458007812 599 442.458007812 623 c 128,-1,56
 410.458007812 647 410.458007812 647 390.958007812 674.5 c 128,-1,57
 371.458007812 702 371.458007812 702 362.958007812 733.5 c 128,-1,58
 354.458007812 765 354.458007812 765 354.458007812 798 c 0,59,60
 354.458007812 896 354.458007812 896 401.458007812 962 c 128,-1,61
 448.458007812 1028 448.458007812 1028 526.958007812 1068.5 c 128,-1,62
 605.458007812 1109 605.458007812 1109 707.458007812 1126.5 c 128,-1,63
 809.458007812 1144 809.458007812 1144 920.458007812 1144 c 0,64,65
 959.458007812 1144 959.458007812 1144 1007.45800781 1138 c 128,-1,66
 1055.45800781 1132 1055.45800781 1132 1101.45800781 1121.5 c 128,-1,67
 1147.45800781 1111 1147.45800781 1111 1185.45800781 1098 c 128,-1,68
 1223.45800781 1085 1223.45800781 1085 1242.45800781 1072 c 1,69,-1
 1158.45800781 931 l 1,0,1
EndSplineSet
EndChar

StartChar: t
Encoding: 116 116 88
Width: 1331
GlyphClass: 1
Flags: W
LayerCount: 2
Fore
SplineSet
738.275390625 385 m 2,0,1
 726.275390625 314 726.275390625 314 726.275390625 267 c 0,2,3
 726.275390625 199 726.275390625 199 748.775390625 172.5 c 128,-1,4
 771.275390625 146 771.275390625 146 814.275390625 146 c 0,5,6
 862.275390625 146 862.275390625 146 911.275390625 157.5 c 128,-1,7
 960.275390625 169 960.275390625 169 1003.77539062 184 c 128,-1,8
 1047.27539062 199 1047.27539062 199 1081.77539062 213.5 c 128,-1,9
 1116.27539062 228 1116.27539062 228 1134.27539062 236 c 1,10,-1
 1183.27539062 112 l 1,11,12
 1172.27539062 104 1172.27539062 104 1133.27539062 82.5 c 128,-1,13
 1094.27539062 61 1094.27539062 61 1036.27539062 38.5 c 128,-1,14
 978.275390625 16 978.275390625 16 908.275390625 -0.5 c 128,-1,15
 838.275390625 -17 838.275390625 -17 764.275390625 -17 c 0,16,17
 696.275390625 -17 696.275390625 -17 651.275390625 1 c 128,-1,18
 606.275390625 19 606.275390625 19 578.775390625 53 c 128,-1,19
 551.275390625 87 551.275390625 87 540.275390625 133 c 128,-1,20
 529.275390625 179 529.275390625 179 529.275390625 234 c 0,21,22
 529.275390625 274 529.275390625 274 534.275390625 318 c 128,-1,23
 539.275390625 362 539.275390625 362 547.275390625 410 c 2,24,-1
 646.275390625 963 l 1,25,-1
 337.275390625 963 l 1,26,-1
 366.275390625 1126 l 1,27,-1
 674.275390625 1126 l 1,28,-1
 712.275390625 1340 l 1,29,-1
 921.275390625 1454 l 1,30,-1
 864.275390625 1126 l 1,31,-1
 1314.27539062 1126 l 1,32,-1
 1265.27539062 963 l 1,33,-1
 840.275390625 963 l 1,34,-1
 738.275390625 385 l 2,0,1
EndSplineSet
EndChar

StartChar: u
Encoding: 117 117 89
Width: 1331
GlyphClass: 1
Flags: W
LayerCount: 2
Fore
SplineSet
1132.45019531 1126 m 1,0,-1
 1331.45019531 1148 l 1,1,-1
 1128.45019531 0 l 1,2,-1
 934.450195312 0 l 1,3,-1
 963.450195312 167 l 1,4,-1
 881.450195312 57 l 1,5,6
 856.450195312 43 856.450195312 43 833.450195312 29.5 c 128,-1,7
 810.450195312 16 810.450195312 16 777.950195312 6 c 128,-1,8
 745.450195312 -4 745.450195312 -4 697.950195312 -10.5 c 128,-1,9
 650.450195312 -17 650.450195312 -17 577.450195312 -17 c 0,10,11
 506.450195312 -17 506.450195312 -17 449.450195312 9.5 c 128,-1,12
 392.450195312 36 392.450195312 36 351.950195312 82.5 c 128,-1,13
 311.450195312 129 311.450195312 129 289.450195312 191.5 c 128,-1,14
 267.450195312 254 267.450195312 254 267.450195312 326 c 0,15,16
 267.450195312 346 267.450195312 346 268.950195312 367.5 c 128,-1,17
 270.450195312 389 270.450195312 389 274.450195312 411 c 2,18,-1
 405.450195312 1126 l 1,19,-1
 604.450195312 1148 l 1,20,-1
 469.450195312 411 l 2,21,22
 465.450195312 391 465.450195312 391 463.450195312 371.5 c 128,-1,23
 461.450195312 352 461.450195312 352 461.450195312 334 c 0,24,25
 461.450195312 293 461.450195312 293 471.950195312 258.5 c 128,-1,26
 482.450195312 224 482.450195312 224 505.450195312 199 c 128,-1,27
 528.450195312 174 528.450195312 174 564.950195312 160 c 128,-1,28
 601.450195312 146 601.450195312 146 652.450195312 146 c 0,29,30
 720.450195312 146 720.450195312 146 769.950195312 156.5 c 128,-1,31
 819.450195312 167 819.450195312 167 857.450195312 184 c 128,-1,32
 895.450195312 201 895.450195312 201 924.450195312 222 c 128,-1,33
 953.450195312 243 953.450195312 243 981.450195312 264 c 1,34,-1
 1132.45019531 1126 l 1,0,-1
EndSplineSet
EndChar

StartChar: v
Encoding: 118 118 90
Width: 1331
GlyphClass: 1
Flags: W
LayerCount: 2
Fore
SplineSet
1397.484375 1148 m 1,0,-1
 709.484375 -20 l 1,1,-1
 502.484375 0 l 1,2,-1
 334.484375 1126 l 1,3,-1
 525.484375 1148 l 1,4,-1
 637.484375 390 l 1,5,-1
 649.484375 153 l 1,6,-1
 743.484375 390 l 1,7,-1
 1173.484375 1126 l 1,8,-1
 1397.484375 1148 l 1,0,-1
EndSplineSet
EndChar

StartChar: w
Encoding: 119 119 91
Width: 1331
GlyphClass: 1
Flags: W
LayerCount: 2
Fore
SplineSet
916.984375 410 m 1,0,-1
 933.984375 154 l 1,1,-1
 1004.984375 492 l 1,2,-1
 1250.984375 1126 l 1,3,-1
 1419.984375 1148 l 1,4,-1
 994.984375 0 l 1,5,-1
 843.984375 0 l 1,6,-1
 770.984375 356 l 1,7,-1
 786.984375 768 l 1,8,-1
 658.984375 358 l 1,9,-1
 461.984375 0 l 1,10,-1
 311.984375 0 l 1,11,-1
 311.984375 1126 l 1,12,-1
 467.984375 1148 l 1,13,-1
 468.984375 492 l 1,14,-1
 430.984375 154 l 1,15,-1
 732.984375 906 l 1,16,-1
 889.984375 906 l 1,17,-1
 916.984375 410 l 1,0,-1
EndSplineSet
EndChar

StartChar: x
Encoding: 120 120 92
Width: 1331
GlyphClass: 1
Flags: W
LayerCount: 2
Fore
SplineSet
972 0 m 1,0,-1
 767 391 l 1,1,-1
 742 512 l 1,2,-1
 674 391 l 1,3,-1
 331 0 l 1,4,-1
 128 0 l 1,5,-1
 655 602 l 1,6,-1
 381 1126 l 1,7,-1
 600 1148 l 1,8,-1
 780 800 l 1,9,-1
 800 686 l 1,10,-1
 859 800 l 1,11,-1
 1147 1126 l 1,12,-1
 1367 1148 l 1,13,-1
 886 597 l 1,14,-1
 1203 0 l 1,15,-1
 972 0 l 1,0,-1
EndSplineSet
EndChar

StartChar: y
Encoding: 121 121 93
Width: 1331
GlyphClass: 1
Flags: W
LayerCount: 2
Fore
SplineSet
777.984375 373 m 1,0,-1
 1185.984375 1126 l 1,1,-1
 1382.984375 1148 l 1,2,-1
 754.984375 -17 l 2,3,4
 688.984375 -139 688.984375 -139 637.484375 -228 c 128,-1,5
 585.984375 -317 585.984375 -317 535.984375 -375.5 c 128,-1,6
 485.984375 -434 485.984375 -434 431.484375 -463 c 128,-1,7
 376.984375 -492 376.984375 -492 304.984375 -492 c 2,8,-1
 300.984375 -492 l 2,9,10
 233.984375 -492 233.984375 -492 186.984375 -471 c 128,-1,11
 139.984375 -450 139.984375 -450 103.984375 -413 c 1,12,-1
 197.984375 -303 l 1,13,14
 211.984375 -315 211.984375 -315 239.984375 -325 c 128,-1,15
 267.984375 -335 267.984375 -335 292.984375 -336 c 2,16,-1
 296.984375 -336 l 2,17,18
 333.984375 -336 333.984375 -336 362.484375 -321.5 c 128,-1,19
 390.984375 -307 390.984375 -307 420.484375 -274 c 128,-1,20
 449.984375 -241 449.984375 -241 484.984375 -185.5 c 128,-1,21
 519.984375 -130 519.984375 -130 568.984375 -48 c 1,22,-1
 348.984375 1126 l 1,23,-1
 525.984375 1148 l 1,24,25
 536.984375 1090 536.984375 1090 548.984375 1026 c 2,26,-1
 570.984375 901 l 2,27,28
 583.984375 832 583.984375 832 598.984375 760 c 0,29,30
 630.984375 590 630.984375 590 670.984375 373 c 1,31,-1
 682.984375 135 l 1,32,-1
 777.984375 373 l 1,0,-1
EndSplineSet
EndChar

StartChar: z
Encoding: 122 122 94
Width: 1331
GlyphClass: 1
Flags: W
LayerCount: 2
Fore
SplineSet
1120.27148438 164 m 1,0,-1
 1112.27148438 0 l 1,1,-1
 273.271484375 0 l 1,2,-1
 261.271484375 51 l 1,3,-1
 875.271484375 846 l 1,4,-1
 1059.27148438 1004 l 1,5,-1
 842.271484375 963 l 1,6,-1
 409.271484375 963 l 1,7,-1
 417.271484375 1126 l 1,8,-1
 1240.27148438 1126 l 1,9,-1
 1252.27148438 1076 l 1,10,-1
 653.271484375 287 l 1,11,-1
 470.271484375 123 l 1,12,-1
 687.271484375 164 l 1,13,-1
 1120.27148438 164 l 1,0,-1
EndSplineSet
EndChar

StartChar: braceleft
Encoding: 123 123 95
Width: 1331
GlyphClass: 1
Flags: W
LayerCount: 2
Fore
SplineSet
361.169921875 640 m 1,0,-1
 485.169921875 640 l 1,1,2
 544.169921875 646 544.169921875 646 578.669921875 664 c 128,-1,3
 613.169921875 682 613.169921875 682 633.169921875 713 c 128,-1,4
 653.169921875 744 653.169921875 744 663.669921875 791 c 128,-1,5
 674.169921875 838 674.169921875 838 685.169921875 901 c 2,6,-1
 728.169921875 1146 l 2,7,8
 747.169921875 1257 747.169921875 1257 777.169921875 1336 c 128,-1,9
 807.169921875 1415 807.169921875 1415 853.669921875 1466 c 128,-1,10
 900.169921875 1517 900.169921875 1517 966.669921875 1538.5 c 128,-1,11
 1033.16992188 1560 1033.16992188 1560 1128.16992188 1555 c 0,12,13
 1174.16992188 1553 1174.16992188 1553 1205.66992188 1549 c 128,-1,14
 1237.16992188 1545 1237.16992188 1545 1261.16992188 1539.5 c 128,-1,15
 1285.16992188 1534 1285.16992188 1534 1305.66992188 1526 c 128,-1,16
 1326.16992188 1518 1326.16992188 1518 1349.16992188 1507 c 1,17,-1
 1262.16992188 1381 l 1,18,19
 1232.16992188 1396 1232.16992188 1396 1193.16992188 1402 c 128,-1,20
 1154.16992188 1408 1154.16992188 1408 1122.16992188 1407 c 0,21,22
 1069.16992188 1405 1069.16992188 1405 1036.16992188 1388.5 c 128,-1,23
 1003.16992188 1372 1003.16992188 1372 981.669921875 1340.5 c 128,-1,24
 960.169921875 1309 960.169921875 1309 947.169921875 1260 c 128,-1,25
 934.169921875 1211 934.169921875 1211 923.169921875 1146 c 2,26,-1
 880.169921875 901 l 2,27,28
 868.169921875 828 868.169921875 828 855.669921875 777 c 128,-1,29
 843.169921875 726 843.169921875 726 824.669921875 687.5 c 128,-1,30
 806.169921875 649 806.169921875 649 779.169921875 620 c 128,-1,31
 752.169921875 591 752.169921875 591 710.169921875 563 c 1,32,33
 728.169921875 541 728.169921875 541 741.669921875 502 c 128,-1,34
 755.169921875 463 755.169921875 463 761.669921875 416 c 128,-1,35
 768.169921875 369 768.169921875 369 767.669921875 318.5 c 128,-1,36
 767.169921875 268 767.169921875 268 760.169921875 225 c 2,37,-1
 717.169921875 -20 l 2,38,39
 706.169921875 -83 706.169921875 -83 700.169921875 -132.5 c 128,-1,40
 694.169921875 -182 694.169921875 -182 703.669921875 -215 c 128,-1,41
 713.169921875 -248 713.169921875 -248 741.169921875 -265 c 128,-1,42
 769.169921875 -282 769.169921875 -282 824.169921875 -282 c 0,43,44
 832.169921875 -284 832.169921875 -284 841.169921875 -284 c 2,45,-1
 857.169921875 -284 l 2,46,47
 869.169921875 -284 869.169921875 -284 885.169921875 -282 c 128,-1,48
 901.169921875 -280 901.169921875 -280 917.169921875 -275.5 c 128,-1,49
 933.169921875 -271 933.169921875 -271 948.169921875 -266.5 c 128,-1,50
 963.169921875 -262 963.169921875 -262 973.169921875 -256 c 1,51,-1
 1016.16992188 -382 l 1,52,53
 992.169921875 -392 992.169921875 -392 969.669921875 -402 c 128,-1,54
 947.169921875 -412 947.169921875 -412 920.169921875 -418.5 c 128,-1,55
 893.169921875 -425 893.169921875 -425 858.669921875 -428.5 c 128,-1,56
 824.169921875 -432 824.169921875 -432 777.169921875 -430 c 0,57,58
 684.169921875 -427 684.169921875 -427 627.669921875 -389.5 c 128,-1,59
 571.169921875 -352 571.169921875 -352 543.669921875 -294.5 c 128,-1,60
 516.169921875 -237 516.169921875 -237 513.169921875 -165 c 128,-1,61
 510.169921875 -93 510.169921875 -93 522.169921875 -20 c 2,62,-1
 565.169921875 225 l 2,63,64
 576.169921875 291 576.169921875 291 581.169921875 340 c 128,-1,65
 586.169921875 389 586.169921875 389 576.169921875 421.5 c 128,-1,66
 566.169921875 454 566.169921875 454 538.669921875 470 c 128,-1,67
 511.169921875 486 511.169921875 486 458.169921875 486 c 2,68,-1
 333.169921875 486 l 1,69,-1
 361.169921875 640 l 1,0,-1
EndSplineSet
EndChar

StartChar: bar
Encoding: 124 124 96
Width: 1331
GlyphClass: 1
Flags: W
LayerCount: 2
Fore
SplineSet
1039.53515625 1556 m 1,0,-1
 692.53515625 -410 l 1,1,-1
 493.53515625 -410 l 1,2,-1
 837.53515625 1536 l 1,3,-1
 1039.53515625 1556 l 1,0,-1
EndSplineSet
EndChar

StartChar: braceright
Encoding: 125 125 97
Width: 1331
GlyphClass: 1
Flags: W
LayerCount: 2
Fore
SplineSet
1169.43359375 493 m 1,0,-1
 1044.43359375 493 l 1,1,2
 985.43359375 487 985.43359375 487 950.93359375 469 c 128,-1,3
 916.43359375 451 916.43359375 451 896.43359375 419.5 c 128,-1,4
 876.43359375 388 876.43359375 388 866.43359375 341.5 c 128,-1,5
 856.43359375 295 856.43359375 295 845.43359375 231 c 2,6,-1
 802.43359375 -13 l 2,7,8
 783.43359375 -124 783.43359375 -124 753.43359375 -203.5 c 128,-1,9
 723.43359375 -283 723.43359375 -283 676.43359375 -333.5 c 128,-1,10
 629.43359375 -384 629.43359375 -384 562.43359375 -406 c 128,-1,11
 495.43359375 -428 495.43359375 -428 402.43359375 -423 c 0,12,13
 356.43359375 -421 356.43359375 -421 324.93359375 -417 c 128,-1,14
 293.43359375 -413 293.43359375 -413 268.93359375 -407 c 128,-1,15
 244.43359375 -401 244.43359375 -401 223.93359375 -393 c 128,-1,16
 203.43359375 -385 203.43359375 -385 181.43359375 -375 c 1,17,-1
 268.43359375 -249 l 1,18,19
 298.43359375 -264 298.43359375 -264 337.43359375 -269.5 c 128,-1,20
 376.43359375 -275 376.43359375 -275 407.43359375 -274 c 0,21,22
 460.43359375 -272 460.43359375 -272 493.93359375 -256 c 128,-1,23
 527.43359375 -240 527.43359375 -240 548.93359375 -208 c 128,-1,24
 570.43359375 -176 570.43359375 -176 583.43359375 -128 c 128,-1,25
 596.43359375 -80 596.43359375 -80 607.43359375 -13 c 2,26,-1
 650.43359375 231 l 2,27,28
 662.43359375 303 662.43359375 303 674.93359375 355 c 128,-1,29
 687.43359375 407 687.43359375 407 705.93359375 445 c 128,-1,30
 724.43359375 483 724.43359375 483 751.43359375 512.5 c 128,-1,31
 778.43359375 542 778.43359375 542 820.43359375 569 c 1,32,33
 802.43359375 591 802.43359375 591 788.93359375 630.5 c 128,-1,34
 775.43359375 670 775.43359375 670 768.93359375 717 c 128,-1,35
 762.43359375 764 762.43359375 764 762.43359375 814 c 128,-1,36
 762.43359375 864 762.43359375 864 770.43359375 907 c 2,37,-1
 813.43359375 1153 l 2,38,39
 824.43359375 1216 824.43359375 1216 829.93359375 1265 c 128,-1,40
 835.43359375 1314 835.43359375 1314 826.43359375 1347 c 128,-1,41
 817.43359375 1380 817.43359375 1380 789.43359375 1397 c 128,-1,42
 761.43359375 1414 761.43359375 1414 705.43359375 1414 c 0,43,44
 697.43359375 1416 697.43359375 1416 689.43359375 1416 c 2,45,-1
 672.43359375 1416 l 2,46,47
 660.43359375 1416 660.43359375 1416 644.43359375 1414 c 128,-1,48
 628.43359375 1412 628.43359375 1412 612.93359375 1408 c 128,-1,49
 597.43359375 1404 597.43359375 1404 582.43359375 1399.5 c 128,-1,50
 567.43359375 1395 567.43359375 1395 557.43359375 1389 c 1,51,-1
 514.43359375 1514 l 1,52,53
 538.43359375 1524 538.43359375 1524 560.43359375 1534 c 128,-1,54
 582.43359375 1544 582.43359375 1544 609.93359375 1551 c 128,-1,55
 637.43359375 1558 637.43359375 1558 671.43359375 1561.5 c 128,-1,56
 705.43359375 1565 705.43359375 1565 752.43359375 1563 c 0,57,58
 845.43359375 1560 845.43359375 1560 901.93359375 1522.5 c 128,-1,59
 958.43359375 1485 958.43359375 1485 985.93359375 1427 c 128,-1,60
 1013.43359375 1369 1013.43359375 1369 1016.93359375 1297.5 c 128,-1,61
 1020.43359375 1226 1020.43359375 1226 1007.43359375 1153 c 2,62,-1
 964.43359375 907 l 2,63,64
 953.43359375 841 953.43359375 841 948.93359375 792 c 128,-1,65
 944.43359375 743 944.43359375 743 953.93359375 711 c 128,-1,66
 963.43359375 679 963.43359375 679 991.43359375 662.5 c 128,-1,67
 1019.43359375 646 1019.43359375 646 1072.43359375 646 c 2,68,-1
 1197.43359375 646 l 1,69,-1
 1169.43359375 493 l 1,0,-1
EndSplineSet
EndChar

StartChar: asciitilde
Encoding: 126 126 98
Width: 1331
GlyphClass: 1
Flags: W
LayerCount: 2
Fore
SplineSet
183.318359375 496 m 1,0,1
 202.318359375 564 202.318359375 564 242.818359375 626.5 c 128,-1,2
 283.318359375 689 283.318359375 689 337.318359375 736 c 128,-1,3
 391.318359375 783 391.318359375 783 455.318359375 808 c 128,-1,4
 519.318359375 833 519.318359375 833 586.318359375 824 c 0,5,6
 632.318359375 818 632.318359375 818 671.818359375 799.5 c 128,-1,7
 711.318359375 781 711.318359375 781 746.818359375 757.5 c 128,-1,8
 782.318359375 734 782.318359375 734 815.318359375 709 c 128,-1,9
 848.318359375 684 848.318359375 684 881.318359375 664.5 c 128,-1,10
 914.318359375 645 914.318359375 645 948.318359375 635 c 128,-1,11
 982.318359375 625 982.318359375 625 1019.31835938 631 c 0,12,13
 1093.31835938 643 1093.31835938 643 1143.31835938 686 c 128,-1,14
 1193.31835938 729 1193.31835938 729 1228.31835938 811 c 1,15,-1
 1375.31835938 795 l 1,16,17
 1355.31835938 720 1355.31835938 720 1312.81835938 649.5 c 128,-1,18
 1270.31835938 579 1270.31835938 579 1214.81835938 526.5 c 128,-1,19
 1159.31835938 474 1159.31835938 474 1093.31835938 447 c 128,-1,20
 1027.31835938 420 1027.31835938 420 959.318359375 432 c 0,21,22
 922.318359375 438 922.318359375 438 886.818359375 457 c 128,-1,23
 851.318359375 476 851.318359375 476 815.318359375 499.5 c 128,-1,24
 779.318359375 523 779.318359375 523 743.318359375 548 c 128,-1,25
 707.318359375 573 707.318359375 573 671.318359375 592 c 128,-1,26
 635.318359375 611 635.318359375 611 599.818359375 621.5 c 128,-1,27
 564.318359375 632 564.318359375 632 527.318359375 626 c 0,28,29
 465.318359375 615 465.318359375 615 414.818359375 581 c 128,-1,30
 364.318359375 547 364.318359375 547 332.318359375 479 c 1,31,-1
 183.318359375 496 l 1,0,1
EndSplineSet
EndChar

StartChar: exclamdown
Encoding: 161 161 100
Width: 1331
GlyphClass: 1
Flags: W
LayerCount: 2
Fore
SplineSet
491.172851562 -406 m 1,0,-1
 680.172851562 670 l 1,1,-1
 889.172851562 691 l 1,2,-1
 696.172851562 -406 l 1,3,-1
 491.172851562 -406 l 1,0,-1
970.172851562 1022 m 0,4,5
 970.172851562 991 970.172851562 991 956.672851562 966.5 c 128,-1,6
 943.172851562 942 943.172851562 942 921.672851562 925.5 c 128,-1,7
 900.172851562 909 900.172851562 909 874.172851562 901.5 c 128,-1,8
 848.172851562 894 848.172851562 894 824.172851562 898 c 256,9,10
 799.172851562 902 799.172851562 902 780.672851562 914.5 c 128,-1,11
 762.172851562 927 762.172851562 927 749.172851562 945 c 128,-1,12
 736.172851562 963 736.172851562 963 729.672851562 982.5 c 128,-1,13
 723.172851562 1002 723.172851562 1002 722.172851562 1022 c 0,14,15
 721.172851562 1053 721.172851562 1053 733.172851562 1078 c 128,-1,16
 745.172851562 1103 745.172851562 1103 765.172851562 1120 c 128,-1,17
 785.172851562 1137 785.172851562 1137 811.672851562 1144.5 c 128,-1,18
 838.172851562 1152 838.172851562 1152 867.172851562 1148 c 0,19,20
 915.172851562 1142 915.172851562 1142 942.672851562 1108 c 128,-1,21
 970.172851562 1074 970.172851562 1074 970.172851562 1022 c 0,4,5
EndSplineSet
EndChar

StartChar: cent
Encoding: 162 162 101
Width: 1331
GlyphClass: 1
Flags: W
LayerCount: 2
Fore
SplineSet
1078.6640625 1352 m 1,0,-1
 1041.6640625 1140 l 1,1,2
 1093.6640625 1132 1093.6640625 1132 1135.6640625 1114 c 0,3,4
 1205.6640625 1085 1205.6640625 1085 1257.6640625 1015 c 1,5,-1
 1135.6640625 899 l 1,6,7
 1100.6640625 935 1100.6640625 935 1050.6640625 957 c 0,8,9
 1038.6640625 962 1038.6640625 962 1025.6640625 967 c 128,-1,10
 1012.6640625 972 1012.6640625 972 998.6640625 974 c 1,11,-1
 853.6640625 157 l 1,12,13
 879.6640625 159 879.6640625 159 901.6640625 163 c 128,-1,14
 923.6640625 167 923.6640625 167 944.6640625 174 c 0,15,16
 1002.6640625 192 1002.6640625 192 1036.6640625 213 c 1,17,-1
 1084.6640625 69 l 1,18,19
 1019.6640625 29 1019.6640625 29 939.6640625 6 c 0,20,21
 915.6640625 -1 915.6640625 -1 890.6640625 -6 c 128,-1,22
 865.6640625 -11 865.6640625 -11 837.6640625 -13 c 1,23,-1
 803.6640625 -205 l 1,24,-1
 654.6640625 -205 l 1,25,-1
 688.6640625 -12 l 1,26,27
 649.6640625 -7 649.6640625 -7 613.6640625 4 c 128,-1,28
 577.6640625 15 577.6640625 15 547.6640625 33 c 0,29,30
 480.6640625 80 480.6640625 80 440.1640625 143.5 c 128,-1,31
 399.6640625 207 399.6640625 207 379.1640625 282 c 128,-1,32
 358.6640625 357 358.6640625 357 356.1640625 441.5 c 128,-1,33
 353.6640625 526 353.6640625 526 362.6640625 615 c 0,34,35
 374.6640625 733 374.6640625 733 422.6640625 825.5 c 128,-1,36
 470.6640625 918 470.6640625 918 543.1640625 983.5 c 128,-1,37
 615.6640625 1049 615.6640625 1049 705.6640625 1087.5 c 128,-1,38
 795.6640625 1126 795.6640625 1126 891.6640625 1139 c 1,39,-1
 925.6640625 1331 l 1,40,-1
 1078.6640625 1352 l 1,0,-1
537.6640625 588 m 0,41,42
 527.6640625 508 527.6640625 508 534.1640625 437.5 c 128,-1,43
 540.6640625 367 540.6640625 367 564.1640625 311 c 128,-1,44
 587.6640625 255 587.6640625 255 629.1640625 216.5 c 128,-1,45
 670.6640625 178 670.6640625 178 731.6640625 162 c 1,46,-1
 874.6640625 975 l 1,47,48
 800.6640625 961 800.6640625 961 742.1640625 926 c 128,-1,49
 683.6640625 891 683.6640625 891 641.1640625 840.5 c 128,-1,50
 598.6640625 790 598.6640625 790 572.6640625 725.5 c 128,-1,51
 546.6640625 661 546.6640625 661 537.6640625 588 c 0,41,42
EndSplineSet
EndChar

StartChar: sterling
Encoding: 163 163 102
Width: 1331
GlyphClass: 1
Flags: W
LayerCount: 2
Fore
SplineSet
511.130859375 870 m 1,0,-1
 676.130859375 870 l 1,1,-1
 779.130859375 1193 l 2,2,3
 813.130859375 1297 813.130859375 1297 846.630859375 1366.5 c 128,-1,4
 880.130859375 1436 880.130859375 1436 923.630859375 1477 c 128,-1,5
 967.130859375 1518 967.130859375 1518 1025.63085938 1535 c 128,-1,6
 1084.13085938 1552 1084.13085938 1552 1167.13085938 1553 c 0,7,8
 1219.13085938 1554 1219.13085938 1554 1261.63085938 1545.5 c 128,-1,9
 1304.13085938 1537 1304.13085938 1537 1337.13085938 1520 c 0,10,11
 1406.13085938 1486 1406.13085938 1486 1430.13085938 1459 c 1,12,-1
 1319.13085938 1356 l 1,13,14
 1311.13085938 1361 1311.13085938 1361 1296.13085938 1368.5 c 128,-1,15
 1281.13085938 1376 1281.13085938 1376 1262.63085938 1383.5 c 128,-1,16
 1244.13085938 1391 1244.13085938 1391 1224.63085938 1396 c 128,-1,17
 1205.13085938 1401 1205.13085938 1401 1188.13085938 1402 c 0,18,19
 1142.13085938 1404 1142.13085938 1404 1109.13085938 1396.5 c 128,-1,20
 1076.13085938 1389 1076.13085938 1389 1050.63085938 1363.5 c 128,-1,21
 1025.13085938 1338 1025.13085938 1338 1003.63085938 1291.5 c 128,-1,22
 982.130859375 1245 982.130859375 1245 958.130859375 1168 c 2,23,-1
 862.130859375 870 l 1,24,-1
 1074.13085938 870 l 1,25,-1
 1027.13085938 717 l 1,26,-1
 814.130859375 717 l 1,27,28
 679.130859375 270 679.130859375 270 642.130859375 229 c 2,29,-1
 531.130859375 106 l 1,30,-1
 704.130859375 151 l 1,31,-1
 1152.13085938 151 l 1,32,-1
 1127.13085938 0 l 1,33,-1
 158.130859375 0 l 1,34,-1
 204.130859375 151 l 1,35,-1
 345.130859375 151 l 2,36,37
 381.130859375 151 381.130859375 151 430.130859375 202 c 0,38,39
 478.130859375 251 478.130859375 251 628.130859375 717 c 1,40,-1
 484.130859375 717 l 1,41,-1
 511.130859375 870 l 1,0,-1
EndSplineSet
EndChar

StartChar: currency
Encoding: 164 164 103
Width: 1331
GlyphClass: 1
Flags: W
LayerCount: 2
Fore
SplineSet
1176.9140625 227 m 1,0,-1
 1054.9140625 124 l 1,1,-1
 923.9140625 285 l 1,2,3
 910.9140625 267 910.9140625 267 882.4140625 251.5 c 128,-1,4
 853.9140625 236 853.9140625 236 817.4140625 226 c 128,-1,5
 780.9140625 216 780.9140625 216 738.4140625 212.5 c 128,-1,6
 695.9140625 209 695.9140625 209 653.9140625 215 c 128,-1,7
 611.9140625 221 611.9140625 221 573.9140625 238 c 128,-1,8
 535.9140625 255 535.9140625 255 507.9140625 285 c 1,9,-1
 319.9140625 124 l 1,10,-1
 234.9140625 227 l 1,11,-1
 422.9140625 387 l 1,12,13
 393.9140625 447 393.9140625 447 387.9140625 508.5 c 128,-1,14
 381.9140625 570 381.9140625 570 393.9140625 626 c 128,-1,15
 405.9140625 682 405.9140625 682 432.9140625 727.5 c 128,-1,16
 459.9140625 773 459.9140625 773 496.9140625 803 c 1,17,-1
 363.9140625 963 l 1,18,-1
 485.9140625 1067 l 1,19,-1
 617.9140625 906 l 1,20,21
 637.9140625 931 637.9140625 931 672.4140625 945 c 128,-1,22
 706.9140625 959 706.9140625 959 747.4140625 965 c 128,-1,23
 787.9140625 971 787.9140625 971 831.9140625 969.5 c 128,-1,24
 875.9140625 968 875.9140625 968 915.4140625 959.5 c 128,-1,25
 954.9140625 951 954.9140625 951 985.9140625 937.5 c 128,-1,26
 1016.9140625 924 1016.9140625 924 1033.9140625 906 c 1,27,-1
 1220.9140625 1067 l 1,28,-1
 1305.9140625 963 l 1,29,-1
 1118.9140625 803 l 1,30,31
 1140.9140625 778 1140.9140625 778 1151.9140625 728.5 c 128,-1,32
 1162.9140625 679 1162.9140625 679 1156.4140625 619.5 c 128,-1,33
 1149.9140625 560 1149.9140625 560 1123.4140625 498 c 128,-1,34
 1096.9140625 436 1096.9140625 436 1044.9140625 387 c 1,35,-1
 1176.9140625 227 l 1,0,-1
580.9140625 434 m 0,36,37
 615.9140625 395 615.9140625 395 657.9140625 378 c 128,-1,38
 699.9140625 361 699.9140625 361 744.4140625 363 c 128,-1,39
 788.9140625 365 788.9140625 365 832.4140625 383 c 128,-1,40
 875.9140625 401 875.9140625 401 912.9140625 434 c 0,41,42
 946.9140625 463 946.9140625 463 970.4140625 504 c 128,-1,43
 993.9140625 545 993.9140625 545 1002.4140625 589.5 c 128,-1,44
 1010.9140625 634 1010.9140625 634 1001.4140625 677.5 c 128,-1,45
 991.9140625 721 991.9140625 721 959.9140625 756 c 0,46,47
 925.9140625 792 925.9140625 792 882.9140625 804.5 c 128,-1,48
 839.9140625 817 839.9140625 817 795.4140625 813.5 c 128,-1,49
 750.9140625 810 750.9140625 810 709.4140625 793.5 c 128,-1,50
 667.9140625 777 667.9140625 777 637.9140625 756 c 0,51,52
 596.9140625 725 596.9140625 725 574.4140625 680.5 c 128,-1,53
 551.9140625 636 551.9140625 636 545.9140625 590 c 128,-1,54
 539.9140625 544 539.9140625 544 548.9140625 502 c 128,-1,55
 557.9140625 460 557.9140625 460 580.9140625 434 c 0,36,37
EndSplineSet
EndChar

StartChar: yen
Encoding: 165 165 104
Width: 1331
GlyphClass: 1
Flags: W
LayerCount: 2
Fore
SplineSet
252.837890625 563 m 1,0,-1
 657.837890625 563 l 1,1,-1
 674.837890625 660 l 1,2,-1
 656.837890625 717 l 1,3,-1
 280.837890625 717 l 1,4,-1
 307.837890625 870 l 1,5,-1
 604.837890625 870 l 1,6,-1
 382.837890625 1536 l 1,7,-1
 595.837890625 1556 l 1,8,-1
 788.837890625 977 l 1,9,-1
 824.837890625 722 l 1,10,-1
 895.837890625 957 l 1,11,-1
 1293.83789062 1536 l 1,12,-1
 1489.83789062 1536 l 1,13,-1
 1033.83789062 870 l 1,14,-1
 1331.83789062 870 l 1,15,-1
 1304.83789062 717 l 1,16,-1
 927.837890625 717 l 1,17,-1
 889.837890625 662 l 1,18,-1
 872.837890625 563 l 1,19,-1
 1276.83789062 563 l 1,20,-1
 1250.83789062 410 l 1,21,-1
 845.837890625 410 l 1,22,-1
 774.837890625 0 l 1,23,-1
 559.837890625 0 l 1,24,-1
 630.837890625 410 l 1,25,-1
 226.837890625 410 l 1,26,-1
 252.837890625 563 l 1,0,-1
EndSplineSet
EndChar

StartChar: brokenbar
Encoding: 166 166 105
Width: 1331
GlyphClass: 1
Flags: W
LayerCount: 2
Fore
SplineSet
1042.39648438 1556 m 1,0,-1
 894.396484375 717 l 1,1,-1
 689.396484375 717 l 1,2,-1
 834.396484375 1536 l 1,3,-1
 1042.39648438 1556 l 1,0,-1
833.396484375 371 m 1,4,-1
 695.396484375 -410 l 1,5,-1
 491.396484375 -410 l 1,6,-1
 628.396484375 371 l 1,7,-1
 833.396484375 371 l 1,4,-1
EndSplineSet
EndChar

StartChar: section
Encoding: 167 167 106
Width: 1331
GlyphClass: 1
Flags: W
LayerCount: 2
Fore
SplineSet
1190.21484375 1383 m 1,0,1
 1145.21484375 1410 1145.21484375 1410 1093.71484375 1417 c 128,-1,2
 1042.21484375 1424 1042.21484375 1424 983.21484375 1426 c 0,3,4
 926.21484375 1428 926.21484375 1428 874.71484375 1416.5 c 128,-1,5
 823.21484375 1405 823.21484375 1405 784.21484375 1380 c 128,-1,6
 745.21484375 1355 745.21484375 1355 722.71484375 1316.5 c 128,-1,7
 700.21484375 1278 700.21484375 1278 700.21484375 1226 c 0,8,9
 700.21484375 1175 700.21484375 1175 720.71484375 1134 c 128,-1,10
 741.21484375 1093 741.21484375 1093 773.71484375 1057.5 c 128,-1,11
 806.21484375 1022 806.21484375 1022 847.21484375 990 c 128,-1,12
 888.21484375 958 888.21484375 958 930.71484375 924.5 c 128,-1,13
 973.21484375 891 973.21484375 891 1013.21484375 853 c 128,-1,14
 1053.21484375 815 1053.21484375 815 1082.71484375 768 c 128,-1,15
 1112.21484375 721 1112.21484375 721 1128.21484375 662 c 128,-1,16
 1144.21484375 603 1144.21484375 603 1139.21484375 527 c 0,17,18
 1135.21484375 473 1135.21484375 473 1119.21484375 430 c 128,-1,19
 1103.21484375 387 1103.21484375 387 1078.21484375 355 c 128,-1,20
 1053.21484375 323 1053.21484375 323 1022.21484375 300.5 c 128,-1,21
 991.21484375 278 991.21484375 278 956.21484375 263 c 0,22,23
 931.21484375 252 931.21484375 252 907.21484375 240.5 c 128,-1,24
 883.21484375 229 883.21484375 229 856.21484375 221 c 1,25,-1
 884.21484375 197 l 2,26,27
 949.21484375 142 949.21484375 142 982.21484375 71.5 c 128,-1,28
 1015.21484375 1 1015.21484375 1 1010.21484375 -90 c 0,29,30
 1006.21484375 -172 1006.21484375 -172 969.71484375 -236 c 128,-1,31
 933.21484375 -300 933.21484375 -300 871.21484375 -344 c 128,-1,32
 809.21484375 -388 809.21484375 -388 724.71484375 -410 c 128,-1,33
 640.21484375 -432 640.21484375 -432 541.21484375 -430 c 0,34,35
 456.21484375 -428 456.21484375 -428 388.71484375 -413 c 128,-1,36
 321.21484375 -398 321.21484375 -398 260.21484375 -356 c 1,37,-1
 339.21484375 -257 l 1,38,39
 384.21484375 -284 384.21484375 -284 436.21484375 -292 c 128,-1,40
 488.21484375 -300 488.21484375 -300 546.21484375 -300 c 0,41,42
 596.21484375 -300 596.21484375 -300 647.71484375 -289 c 128,-1,43
 699.21484375 -278 699.21484375 -278 739.71484375 -253.5 c 128,-1,44
 780.21484375 -229 780.21484375 -229 805.71484375 -191.5 c 128,-1,45
 831.21484375 -154 831.21484375 -154 830.21484375 -99 c 0,46,47
 829.21484375 -48 829.21484375 -48 809.21484375 -7.5 c 128,-1,48
 789.21484375 33 789.21484375 33 756.21484375 67.5 c 128,-1,49
 723.21484375 102 723.21484375 102 682.21484375 133 c 128,-1,50
 641.21484375 164 641.21484375 164 599.21484375 197 c 128,-1,51
 557.21484375 230 557.21484375 230 517.71484375 268 c 128,-1,52
 478.21484375 306 478.21484375 306 448.21484375 353 c 128,-1,53
 418.21484375 400 418.21484375 400 401.71484375 460.5 c 128,-1,54
 385.21484375 521 385.21484375 521 390.21484375 599 c 0,55,56
 393.21484375 647 393.21484375 647 409.21484375 687 c 128,-1,57
 425.21484375 727 425.21484375 727 449.71484375 759.5 c 128,-1,58
 474.21484375 792 474.21484375 792 506.21484375 817.5 c 128,-1,59
 538.21484375 843 538.21484375 843 573.21484375 862 c 0,60,61
 621.21484375 890 621.21484375 890 672.21484375 904 c 1,62,-1
 644.21484375 929 l 2,63,64
 612.21484375 958 612.21484375 958 587.21484375 989 c 128,-1,65
 562.21484375 1020 562.21484375 1020 545.71484375 1056 c 128,-1,66
 529.21484375 1092 529.21484375 1092 521.71484375 1131.5 c 128,-1,67
 514.21484375 1171 514.21484375 1171 520.21484375 1217 c 0,68,69
 530.21484375 1308 530.21484375 1308 571.21484375 1372 c 128,-1,70
 612.21484375 1436 612.21484375 1436 675.21484375 1476.5 c 128,-1,71
 738.21484375 1517 738.21484375 1517 818.71484375 1535 c 128,-1,72
 899.21484375 1553 899.21484375 1553 989.21484375 1553 c 0,73,74
 1073.21484375 1553 1073.21484375 1553 1141.21484375 1539 c 128,-1,75
 1209.21484375 1525 1209.21484375 1525 1269.21484375 1483 c 1,76,-1
 1190.21484375 1383 l 1,0,1
688.21484375 785 m 0,77,78
 645.21484375 754 645.21484375 754 615.71484375 708.5 c 128,-1,79
 586.21484375 663 586.21484375 663 575.21484375 601 c 0,80,81
 568.21484375 562 568.21484375 562 575.71484375 527.5 c 128,-1,82
 583.21484375 493 583.21484375 493 601.71484375 461 c 128,-1,83
 620.21484375 429 620.21484375 429 646.71484375 400 c 128,-1,84
 673.21484375 371 673.21484375 371 706.21484375 344 c 2,85,-1
 761.21484375 298 l 1,86,87
 805.21484375 314 805.21484375 314 841.21484375 340 c 0,88,89
 884.21484375 372 884.21484375 372 913.71484375 418 c 128,-1,90
 943.21484375 464 943.21484375 464 955.21484375 525 c 0,91,92
 962.21484375 563 962.21484375 563 954.71484375 598.5 c 128,-1,93
 947.21484375 634 947.21484375 634 928.71484375 665.5 c 128,-1,94
 910.21484375 697 910.21484375 697 882.71484375 726 c 128,-1,95
 855.21484375 755 855.21484375 755 824.21484375 781 c 2,96,-1
 767.21484375 827 l 1,97,98
 745.21484375 819 745.21484375 819 725.71484375 808.5 c 128,-1,99
 706.21484375 798 706.21484375 798 688.21484375 785 c 0,77,78
EndSplineSet
EndChar

StartChar: dieresis
Encoding: 168 168 107
Width: 1331
GlyphClass: 1
Flags: W
LayerCount: 2
Fore
SplineSet
629.264648438 1536 m 1,0,-1
 833.264648438 1536 l 1,1,-1
 797.264648438 1331 l 1,2,-1
 593.264648438 1331 l 1,3,-1
 629.264648438 1536 l 1,0,-1
1038.26464844 1536 m 1,4,-1
 1243.26464844 1536 l 1,5,-1
 1207.26464844 1331 l 1,6,-1
 1002.26464844 1331 l 1,7,-1
 1038.26464844 1536 l 1,4,-1
EndSplineSet
EndChar

StartChar: copyright
Encoding: 169 169 108
Width: 1331
GlyphClass: 1
Flags: W
LayerCount: 2
Fore
SplineSet
940.4765625 1553 m 0,0,1
 1040.4765625 1546 1040.4765625 1546 1119.9765625 1510 c 128,-1,2
 1199.4765625 1474 1199.4765625 1474 1252.4765625 1412.5 c 128,-1,3
 1305.4765625 1351 1305.4765625 1351 1327.9765625 1265 c 128,-1,4
 1350.4765625 1179 1350.4765625 1179 1336.4765625 1072 c 0,5,6
 1323.4765625 970 1323.4765625 970 1275.9765625 881 c 128,-1,7
 1228.4765625 792 1228.4765625 792 1153.9765625 726 c 128,-1,8
 1079.4765625 660 1079.4765625 660 983.4765625 624 c 128,-1,9
 887.4765625 588 887.4765625 588 776.4765625 591 c 0,10,11
 677.4765625 593 677.4765625 593 598.9765625 631 c 128,-1,12
 520.4765625 669 520.4765625 669 468.4765625 733.5 c 128,-1,13
 416.4765625 798 416.4765625 798 391.4765625 884.5 c 128,-1,14
 366.4765625 971 366.4765625 971 374.4765625 1072 c 0,15,16
 379.4765625 1141 379.4765625 1141 403.4765625 1205 c 128,-1,17
 427.4765625 1269 427.4765625 1269 466.4765625 1324 c 128,-1,18
 505.4765625 1379 505.4765625 1379 556.9765625 1423.5 c 128,-1,19
 608.4765625 1468 608.4765625 1468 669.9765625 1499 c 128,-1,20
 731.4765625 1530 731.4765625 1530 799.4765625 1544 c 128,-1,21
 867.4765625 1558 867.4765625 1558 940.4765625 1553 c 0,0,1
791.4765625 679 m 0,22,23
 865.4765625 679 865.4765625 679 936.9765625 701.5 c 128,-1,24
 1008.4765625 724 1008.4765625 724 1069.9765625 771.5 c 128,-1,25
 1131.4765625 819 1131.4765625 819 1176.9765625 893.5 c 128,-1,26
 1222.4765625 968 1222.4765625 968 1243.4765625 1072 c 0,27,28
 1262.4765625 1164 1262.4765625 1164 1239.9765625 1238.5 c 128,-1,29
 1217.4765625 1313 1217.4765625 1313 1168.4765625 1365 c 128,-1,30
 1119.4765625 1417 1119.4765625 1417 1052.9765625 1445.5 c 128,-1,31
 986.4765625 1474 986.4765625 1474 919.4765625 1474 c 0,32,33
 831.4765625 1474 831.4765625 1474 750.9765625 1443.5 c 128,-1,34
 670.4765625 1413 670.4765625 1413 607.9765625 1359.5 c 128,-1,35
 545.4765625 1306 545.4765625 1306 505.9765625 1232.5 c 128,-1,36
 466.4765625 1159 466.4765625 1159 462.4765625 1072 c 0,37,38
 458.4765625 991 458.4765625 991 477.9765625 920 c 128,-1,39
 497.4765625 849 497.4765625 849 539.4765625 795 c 128,-1,40
 581.4765625 741 581.4765625 741 644.9765625 710 c 128,-1,41
 708.4765625 679 708.4765625 679 791.4765625 679 c 0,22,23
1057.4765625 1229 m 1,42,43
 1038.4765625 1244 1038.4765625 1244 1005.9765625 1253.5 c 128,-1,44
 973.4765625 1263 973.4765625 1263 919.4765625 1263 c 0,45,46
 876.4765625 1263 876.4765625 1263 839.4765625 1248 c 128,-1,47
 802.4765625 1233 802.4765625 1233 773.9765625 1208.5 c 128,-1,48
 745.4765625 1184 745.4765625 1184 726.4765625 1150.5 c 128,-1,49
 707.4765625 1117 707.4765625 1117 700.4765625 1081 c 0,50,51
 696.4765625 1058 696.4765625 1058 695.4765625 1037 c 0,52,53
 695.4765625 1006 695.4765625 1006 704.9765625 979.5 c 128,-1,54
 714.4765625 953 714.4765625 953 733.9765625 933 c 128,-1,55
 753.4765625 913 753.4765625 913 782.9765625 902 c 128,-1,56
 812.4765625 891 812.4765625 891 852.4765625 891 c 0,57,58
 874.4765625 891 874.4765625 891 897.9765625 897 c 128,-1,59
 921.4765625 903 921.4765625 903 942.9765625 911 c 128,-1,60
 964.4765625 919 964.4765625 919 981.4765625 927 c 2,61,-1
 1007.4765625 940 l 1,62,-1
 1034.4765625 874 l 1,63,64
 1019.4765625 864 1019.4765625 864 996.9765625 853.5 c 128,-1,65
 974.4765625 843 974.4765625 843 947.9765625 834 c 128,-1,66
 921.4765625 825 921.4765625 825 890.9765625 819 c 128,-1,67
 860.4765625 813 860.4765625 813 830.4765625 813 c 0,68,69
 774.4765625 813 774.4765625 813 730.4765625 831 c 128,-1,70
 686.4765625 849 686.4765625 849 656.9765625 879 c 128,-1,71
 627.4765625 909 627.4765625 909 611.9765625 949.5 c 128,-1,72
 596.4765625 990 596.4765625 990 596.4765625 1035 c 0,73,74
 596.4765625 1047 596.4765625 1047 597.4765625 1060.5 c 128,-1,75
 598.4765625 1074 598.4765625 1074 601.4765625 1087 c 0,76,77
 610.4765625 1134 610.4765625 1134 638.9765625 1179.5 c 128,-1,78
 667.4765625 1225 667.4765625 1225 711.4765625 1259.5 c 128,-1,79
 755.4765625 1294 755.4765625 1294 812.4765625 1315 c 128,-1,80
 869.4765625 1336 869.4765625 1336 934.4765625 1336 c 0,81,82
 996.4765625 1336 996.4765625 1336 1041.4765625 1323 c 128,-1,83
 1086.4765625 1310 1086.4765625 1310 1117.4765625 1282 c 1,84,-1
 1057.4765625 1229 l 1,42,43
EndSplineSet
EndChar

StartChar: ordfeminine
Encoding: 170 170 109
Width: 1331
GlyphClass: 1
Flags: W
LayerCount: 2
Fore
SplineSet
613.177734375 819 m 1,0,-1
 1022.17773438 819 l 1,1,-1
 1004.17773438 717 l 1,2,-1
 594.177734375 717 l 1,3,-1
 613.177734375 819 l 1,0,-1
1047.17773438 1461 m 1,4,5
 1038.17773438 1465 1038.17773438 1465 1025.17773438 1468 c 128,-1,6
 1012.17773438 1471 1012.17773438 1471 1000.17773438 1473 c 0,7,8
 987.177734375 1475 987.177734375 1475 971.177734375 1476 c 0,9,10
 919.177734375 1476 919.177734375 1476 880.177734375 1458 c 128,-1,11
 841.177734375 1440 841.177734375 1440 814.177734375 1408.5 c 128,-1,12
 787.177734375 1377 787.177734375 1377 771.177734375 1335.5 c 128,-1,13
 755.177734375 1294 755.177734375 1294 750.177734375 1247 c 0,14,15
 747.177734375 1221 747.177734375 1221 747.177734375 1200 c 0,16,17
 747.177734375 1165 747.177734375 1165 754.177734375 1138.5 c 128,-1,18
 761.177734375 1112 761.177734375 1112 774.177734375 1094 c 128,-1,19
 787.177734375 1076 787.177734375 1076 804.177734375 1067.5 c 128,-1,20
 821.177734375 1059 821.177734375 1059 840.177734375 1059 c 0,21,22
 867.177734375 1059 867.177734375 1059 889.677734375 1066 c 128,-1,23
 912.177734375 1073 912.177734375 1073 931.177734375 1085 c 128,-1,24
 950.177734375 1097 950.177734375 1097 965.177734375 1111.5 c 128,-1,25
 980.177734375 1126 980.177734375 1126 993.177734375 1142 c 1,26,-1
 1047.17773438 1461 l 1,4,5
966.177734375 985 m 1,27,-1
 980.177734375 1068 l 1,28,-1
 921.177734375 1010 l 2,29,30
 911.177734375 1002 911.177734375 1002 900.177734375 995 c 128,-1,31
 889.177734375 988 889.177734375 988 877.177734375 984 c 128,-1,32
 865.177734375 980 865.177734375 980 848.677734375 978 c 128,-1,33
 832.177734375 976 832.177734375 976 809.177734375 976 c 0,34,35
 772.177734375 976 772.177734375 976 743.677734375 992.5 c 128,-1,36
 715.177734375 1009 715.177734375 1009 695.177734375 1038.5 c 128,-1,37
 675.177734375 1068 675.177734375 1068 665.177734375 1109 c 128,-1,38
 655.177734375 1150 655.177734375 1150 655.177734375 1199 c 0,39,40
 655.177734375 1213 655.177734375 1213 655.677734375 1228.5 c 128,-1,41
 656.177734375 1244 656.177734375 1244 658.177734375 1260 c 0,42,43
 665.177734375 1316 665.177734375 1316 688.177734375 1369.5 c 128,-1,44
 711.177734375 1423 711.177734375 1423 751.177734375 1464.5 c 128,-1,45
 791.177734375 1506 791.177734375 1506 849.177734375 1531 c 128,-1,46
 907.177734375 1556 907.177734375 1556 982.177734375 1556 c 0,47,48
 1025.17773438 1556 1025.17773438 1556 1069.67773438 1549 c 128,-1,49
 1114.17773438 1542 1114.17773438 1542 1152.17773438 1529 c 1,50,-1
 1075.17773438 1077 l 1,51,-1
 1069.17773438 985 l 1,52,-1
 966.177734375 985 l 1,27,-1
EndSplineSet
EndChar

StartChar: guillemotleft
Encoding: 171 171 110
Width: 1331
GlyphClass: 1
Flags: W
LayerCount: 2
Fore
SplineSet
808.880859375 1051 m 1,0,-1
 836.880859375 923 l 1,1,-1
 451.880859375 625 l 1,2,-1
 299.880859375 563 l 1,3,-1
 429.880859375 502 l 1,4,-1
 712.880859375 206 l 1,5,-1
 632.880859375 68 l 1,6,-1
 228.880859375 489 l 1,7,-1
 253.880859375 632 l 1,8,-1
 808.880859375 1051 l 1,0,-1
1320.88085938 1051 m 1,9,-1
 1348.88085938 923 l 1,10,-1
 963.880859375 625 l 1,11,-1
 811.880859375 563 l 1,12,-1
 941.880859375 502 l 1,13,-1
 1224.88085938 206 l 1,14,-1
 1144.88085938 68 l 1,15,-1
 740.880859375 489 l 1,16,-1
 765.880859375 632 l 1,17,-1
 1320.88085938 1051 l 1,9,-1
EndSplineSet
EndChar

StartChar: logicalnot
Encoding: 172 172 111
Width: 1331
GlyphClass: 1
Flags: W
LayerCount: 2
Fore
SplineSet
1426.953125 819 m 1,0,-1
 1370.953125 603 l 1,1,-1
 1315.953125 287 l 1,2,-1
 1110.953125 287 l 1,3,-1
 1140.953125 460 l 1,4,-1
 1191.953125 655 l 1,5,-1
 163.953125 655 l 1,6,-1
 192.953125 819 l 1,7,-1
 1426.953125 819 l 1,0,-1
EndSplineSet
EndChar

StartChar: registered
Encoding: 174 174 113
Width: 1331
GlyphClass: 1
Flags: W
LayerCount: 2
Fore
SplineSet
940.4765625 1553 m 0,0,1
 1040.4765625 1546 1040.4765625 1546 1119.9765625 1510 c 128,-1,2
 1199.4765625 1474 1199.4765625 1474 1252.4765625 1412.5 c 128,-1,3
 1305.4765625 1351 1305.4765625 1351 1327.9765625 1265 c 128,-1,4
 1350.4765625 1179 1350.4765625 1179 1336.4765625 1072 c 0,5,6
 1323.4765625 970 1323.4765625 970 1275.9765625 881 c 128,-1,7
 1228.4765625 792 1228.4765625 792 1153.9765625 726 c 128,-1,8
 1079.4765625 660 1079.4765625 660 983.4765625 624 c 128,-1,9
 887.4765625 588 887.4765625 588 776.4765625 591 c 0,10,11
 677.4765625 593 677.4765625 593 598.9765625 631 c 128,-1,12
 520.4765625 669 520.4765625 669 468.4765625 733.5 c 128,-1,13
 416.4765625 798 416.4765625 798 391.4765625 884.5 c 128,-1,14
 366.4765625 971 366.4765625 971 374.4765625 1072 c 0,15,16
 379.4765625 1141 379.4765625 1141 403.4765625 1205 c 128,-1,17
 427.4765625 1269 427.4765625 1269 466.4765625 1324 c 128,-1,18
 505.4765625 1379 505.4765625 1379 556.9765625 1423.5 c 128,-1,19
 608.4765625 1468 608.4765625 1468 669.9765625 1499 c 128,-1,20
 731.4765625 1530 731.4765625 1530 799.4765625 1544 c 128,-1,21
 867.4765625 1558 867.4765625 1558 940.4765625 1553 c 0,0,1
791.4765625 679 m 0,22,23
 865.4765625 679 865.4765625 679 936.9765625 701.5 c 128,-1,24
 1008.4765625 724 1008.4765625 724 1069.9765625 771.5 c 128,-1,25
 1131.4765625 819 1131.4765625 819 1176.9765625 893.5 c 128,-1,26
 1222.4765625 968 1222.4765625 968 1243.4765625 1072 c 0,27,28
 1262.4765625 1164 1262.4765625 1164 1239.9765625 1238.5 c 128,-1,29
 1217.4765625 1313 1217.4765625 1313 1168.4765625 1365 c 128,-1,30
 1119.4765625 1417 1119.4765625 1417 1052.9765625 1445.5 c 128,-1,31
 986.4765625 1474 986.4765625 1474 919.4765625 1474 c 0,32,33
 831.4765625 1474 831.4765625 1474 750.9765625 1443.5 c 128,-1,34
 670.4765625 1413 670.4765625 1413 607.9765625 1359.5 c 128,-1,35
 545.4765625 1306 545.4765625 1306 505.9765625 1232.5 c 128,-1,36
 466.4765625 1159 466.4765625 1159 462.4765625 1072 c 0,37,38
 458.4765625 991 458.4765625 991 477.9765625 920 c 128,-1,39
 497.4765625 849 497.4765625 849 539.4765625 795 c 128,-1,40
 581.4765625 741 581.4765625 741 644.9765625 710 c 128,-1,41
 708.4765625 679 708.4765625 679 791.4765625 679 c 0,22,23
760.4765625 1030 m 1,42,-1
 723.4765625 821 l 1,43,-1
 656.4765625 821 l 1,44,-1
 732.4765625 1257 l 1,45,-1
 732.4765625 1325 l 1,46,47
 743.4765625 1326 743.4765625 1326 758.4765625 1327.5 c 128,-1,48
 773.4765625 1329 773.4765625 1329 789.9765625 1330.5 c 128,-1,49
 806.4765625 1332 806.4765625 1332 823.4765625 1333 c 128,-1,50
 840.4765625 1334 840.4765625 1334 856.4765625 1334 c 0,51,52
 898.4765625 1334 898.4765625 1334 929.9765625 1324.5 c 128,-1,53
 961.4765625 1315 961.4765625 1315 981.4765625 1298 c 128,-1,54
 1001.4765625 1281 1001.4765625 1281 1010.9765625 1257.5 c 128,-1,55
 1020.4765625 1234 1020.4765625 1234 1020.4765625 1206 c 0,56,57
 1020.4765625 1162 1020.4765625 1162 1005.4765625 1130.5 c 128,-1,58
 990.4765625 1099 990.4765625 1099 965.9765625 1078 c 128,-1,59
 941.4765625 1057 941.4765625 1057 910.4765625 1046 c 128,-1,60
 879.4765625 1035 879.4765625 1035 847.4765625 1034 c 1,61,-1
 890.4765625 1022 l 1,62,-1
 1005.4765625 821 l 1,63,-1
 929.4765625 821 l 1,64,-1
 814.4765625 1024 l 2,65,66
 812.4765625 1029 812.4765625 1029 807.9765625 1029.5 c 128,-1,67
 803.4765625 1030 803.4765625 1030 800.4765625 1030 c 2,68,-1
 760.4765625 1030 l 1,42,-1
792.4765625 1209 m 1,69,-1
 768.4765625 1079 l 1,70,-1
 818.4765625 1079 l 2,71,72
 849.4765625 1079 849.4765625 1079 875.4765625 1087 c 128,-1,73
 901.4765625 1095 901.4765625 1095 919.9765625 1110 c 128,-1,74
 938.4765625 1125 938.4765625 1125 948.9765625 1147.5 c 128,-1,75
 959.4765625 1170 959.4765625 1170 959.4765625 1199 c 0,76,77
 959.4765625 1218 959.4765625 1218 950.4765625 1234.5 c 128,-1,78
 941.4765625 1251 941.4765625 1251 927.4765625 1262.5 c 128,-1,79
 913.4765625 1274 913.4765625 1274 894.9765625 1280 c 128,-1,80
 876.4765625 1286 876.4765625 1286 856.4765625 1286 c 0,81,82
 842.4765625 1286 842.4765625 1286 825.9765625 1285 c 128,-1,83
 809.4765625 1284 809.4765625 1284 798.4765625 1282 c 1,84,-1
 792.4765625 1209 l 1,69,-1
EndSplineSet
EndChar

StartChar: macron
Encoding: 175 175 114
Width: 1331
GlyphClass: 1
Flags: W
LayerCount: 2
Fore
SplineSet
577.760742188 1536 m 1,0,-1
 1294.76074219 1536 l 1,1,-1
 1267.76074219 1382 l 1,2,-1
 551.760742188 1382 l 1,3,-1
 577.760742188 1536 l 1,0,-1
EndSplineSet
EndChar

StartChar: degree
Encoding: 176 176 115
Width: 1331
GlyphClass: 1
Flags: W
LayerCount: 2
Fore
SplineSet
941.110351562 1556 m 0,0,1
 1055.11035156 1541 1055.11035156 1541 1114.61035156 1469 c 128,-1,2
 1174.11035156 1397 1174.11035156 1397 1167.11035156 1280 c 0,3,4
 1164.11035156 1223 1164.11035156 1223 1133.61035156 1170 c 128,-1,5
 1103.11035156 1117 1103.11035156 1117 1057.61035156 1077.5 c 128,-1,6
 1012.11035156 1038 1012.11035156 1038 955.610351562 1017.5 c 128,-1,7
 899.110351562 997 899.110351562 997 842.110351562 1004 c 0,8,9
 729.110351562 1017 729.110351562 1017 671.610351562 1090.5 c 128,-1,10
 614.110351562 1164 614.110351562 1164 616.110351562 1280 c 0,11,12
 617.110351562 1319 617.110351562 1319 631.110351562 1356 c 128,-1,13
 645.110351562 1393 645.110351562 1393 668.610351562 1425 c 128,-1,14
 692.110351562 1457 692.110351562 1457 723.110351562 1483.5 c 128,-1,15
 754.110351562 1510 754.110351562 1510 790.110351562 1528 c 128,-1,16
 826.110351562 1546 826.110351562 1546 864.610351562 1553.5 c 128,-1,17
 903.110351562 1561 903.110351562 1561 941.110351562 1556 c 0,0,1
863.110351562 1117 m 0,18,19
 895.110351562 1114 895.110351562 1114 928.110351562 1124 c 128,-1,20
 961.110351562 1134 961.110351562 1134 988.610351562 1155 c 128,-1,21
 1016.11035156 1176 1016.11035156 1176 1034.11035156 1207.5 c 128,-1,22
 1052.11035156 1239 1052.11035156 1239 1054.11035156 1280 c 0,23,24
 1057.11035156 1349 1057.11035156 1349 1022.61035156 1390 c 128,-1,25
 988.110351562 1431 988.110351562 1431 920.110351562 1443 c 0,26,27
 885.110351562 1449 885.110351562 1449 851.110351562 1440 c 128,-1,28
 817.110351562 1431 817.110351562 1431 789.610351562 1409.5 c 128,-1,29
 762.110351562 1388 762.110351562 1388 745.610351562 1354.5 c 128,-1,30
 729.110351562 1321 729.110351562 1321 729.110351562 1280 c 0,31,32
 730.110351562 1212 730.110351562 1212 765.610351562 1168 c 128,-1,33
 801.110351562 1124 801.110351562 1124 863.110351562 1117 c 0,18,19
EndSplineSet
EndChar

StartChar: plusminus
Encoding: 177 177 116
Width: 1331
GlyphClass: 1
Flags: W
LayerCount: 2
Fore
SplineSet
372.26171875 883 m 1,0,-1
 754.26171875 883 l 1,1,-1
 831.26171875 1229 l 1,2,-1
 990.26171875 1229 l 1,3,-1
 913.26171875 883 l 1,4,-1
 1294.26171875 883 l 1,5,-1
 1266.26171875 756 l 1,6,-1
 885.26171875 756 l 1,7,-1
 809.26171875 410 l 1,8,-1
 650.26171875 410 l 1,9,-1
 727.26171875 756 l 1,10,-1
 345.26171875 756 l 1,11,-1
 372.26171875 883 l 1,0,-1
244.26171875 297 m 1,12,-1
 1166.26171875 297 l 1,13,-1
 1166.26171875 154 l 1,14,-1
 244.26171875 154 l 1,15,-1
 244.26171875 297 l 1,12,-1
EndSplineSet
EndChar

StartChar: twosuperior
Encoding: 178 178 117
Width: 1331
GlyphClass: 1
Flags: W
LayerCount: 2
Fore
SplineSet
563.953125 737 m 1,0,-1
 579.953125 823 l 1,1,2
 614.953125 873 614.953125 873 651.453125 914.5 c 128,-1,3
 687.953125 956 687.953125 956 724.953125 991.5 c 128,-1,4
 761.953125 1027 761.953125 1027 798.453125 1057 c 128,-1,5
 834.953125 1087 834.953125 1087 867.953125 1115 c 0,6,7
 898.953125 1140 898.953125 1140 926.453125 1164 c 128,-1,8
 953.953125 1188 953.953125 1188 974.953125 1211.5 c 128,-1,9
 995.953125 1235 995.953125 1235 1008.453125 1260 c 128,-1,10
 1020.953125 1285 1020.953125 1285 1020.953125 1312 c 0,11,12
 1020.953125 1340 1020.953125 1340 1013.953125 1361.5 c 128,-1,13
 1006.953125 1383 1006.953125 1383 990.953125 1398 c 128,-1,14
 974.953125 1413 974.953125 1413 949.453125 1421.5 c 128,-1,15
 923.953125 1430 923.953125 1430 885.953125 1430 c 0,16,17
 860.953125 1430 860.953125 1430 840.453125 1421 c 128,-1,18
 819.953125 1412 819.953125 1412 802.453125 1398 c 128,-1,19
 784.953125 1384 784.953125 1384 770.953125 1367 c 128,-1,20
 756.953125 1350 756.953125 1350 746.953125 1331 c 1,21,-1
 679.953125 1362 l 1,22,23
 713.953125 1435 713.953125 1435 774.453125 1474 c 128,-1,24
 834.953125 1513 834.953125 1513 912.953125 1513 c 2,25,-1
 932.953125 1513 l 2,26,27
 979.953125 1510 979.953125 1510 1013.953125 1492.5 c 128,-1,28
 1047.953125 1475 1047.953125 1475 1070.453125 1447 c 128,-1,29
 1092.953125 1419 1092.953125 1419 1103.453125 1385 c 128,-1,30
 1113.953125 1351 1113.953125 1351 1113.953125 1315 c 0,31,32
 1113.953125 1312 1113.953125 1312 1113.453125 1309 c 128,-1,33
 1112.953125 1306 1112.953125 1306 1112.953125 1303 c 0,34,35
 1110.953125 1262 1110.953125 1262 1091.953125 1227 c 128,-1,36
 1072.953125 1192 1072.953125 1192 1045.453125 1160.5 c 128,-1,37
 1017.953125 1129 1017.953125 1129 984.953125 1101.5 c 128,-1,38
 951.953125 1074 951.953125 1074 923.953125 1048 c 0,39,40
 886.953125 1015 886.953125 1015 853.453125 985.5 c 128,-1,41
 819.953125 956 819.953125 956 791.953125 928.5 c 128,-1,42
 763.953125 901 763.953125 901 740.453125 874 c 128,-1,43
 716.953125 847 716.953125 847 697.953125 819 c 1,44,-1
 1040.953125 819 l 1,45,-1
 1026.953125 737 l 1,46,-1
 563.953125 737 l 1,0,-1
EndSplineSet
EndChar

StartChar: threesuperior
Encoding: 179 179 118
Width: 1331
GlyphClass: 1
Flags: W
LayerCount: 2
Fore
SplineSet
705.887695312 1423 m 1,0,-1
 727.887695312 1505 l 1,1,-1
 1101.88769531 1505 l 1,2,-1
 1088.88769531 1434 l 1,3,4
 1079.88769531 1414 1079.88769531 1414 1061.38769531 1391 c 128,-1,5
 1042.88769531 1368 1042.88769531 1368 1018.88769531 1345.5 c 128,-1,6
 994.887695312 1323 994.887695312 1323 967.387695312 1301 c 128,-1,7
 939.887695312 1279 939.887695312 1279 913.887695312 1258 c 1,8,-1
 838.887695312 1223 l 1,9,-1
 875.887695312 1223 l 2,10,11
 909.887695312 1223 909.887695312 1223 943.387695312 1210 c 128,-1,12
 976.887695312 1197 976.887695312 1197 1003.38769531 1173.5 c 128,-1,13
 1029.88769531 1150 1029.88769531 1150 1046.38769531 1116.5 c 128,-1,14
 1062.88769531 1083 1062.88769531 1083 1062.88769531 1042 c 0,15,16
 1062.88769531 985 1062.88769531 985 1041.88769531 940 c 128,-1,17
 1020.88769531 895 1020.88769531 895 985.887695312 861 c 128,-1,18
 950.887695312 827 950.887695312 827 902.887695312 803.5 c 128,-1,19
 854.887695312 780 854.887695312 780 801.387695312 765.5 c 128,-1,20
 747.887695312 751 747.887695312 751 689.887695312 744 c 128,-1,21
 631.887695312 737 631.887695312 737 577.887695312 737 c 1,22,-1
 591.887695312 819 l 1,23,24
 631.887695312 819 631.887695312 819 674.887695312 825 c 128,-1,25
 717.887695312 831 717.887695312 831 758.387695312 843 c 128,-1,26
 798.887695312 855 798.887695312 855 835.387695312 871.5 c 128,-1,27
 871.887695312 888 871.887695312 888 898.887695312 909.5 c 128,-1,28
 925.887695312 931 925.887695312 931 941.887695312 957.5 c 128,-1,29
 957.887695312 984 957.887695312 984 957.887695312 1015 c 0,30,31
 957.887695312 1048 957.887695312 1048 945.887695312 1072 c 128,-1,32
 933.887695312 1096 933.887695312 1096 912.387695312 1111 c 128,-1,33
 890.887695312 1126 890.887695312 1126 861.387695312 1134 c 128,-1,34
 831.887695312 1142 831.887695312 1142 795.887695312 1142 c 0,35,36
 771.887695312 1142 771.887695312 1142 749.887695312 1141.5 c 128,-1,37
 727.887695312 1141 727.887695312 1141 706.887695312 1140 c 1,38,-1
 720.887695312 1219 l 1,39,40
 744.887695312 1234 744.887695312 1234 772.887695312 1253.5 c 128,-1,41
 800.887695312 1273 800.887695312 1273 829.887695312 1294 c 128,-1,42
 858.887695312 1315 858.887695312 1315 886.887695312 1337 c 128,-1,43
 914.887695312 1359 914.887695312 1359 938.387695312 1378.5 c 128,-1,44
 961.887695312 1398 961.887695312 1398 978.387695312 1415.5 c 128,-1,45
 994.887695312 1433 994.887695312 1433 1000.88769531 1444 c 1,46,-1
 918.887695312 1423 l 1,47,-1
 705.887695312 1423 l 1,0,-1
EndSplineSet
EndChar

StartChar: acute
Encoding: 180 180 119
Width: 1331
GlyphClass: 1
Flags: W
LayerCount: 2
Fore
SplineSet
900.53515625 1536 m 1,0,-1
 1139.53515625 1556 l 1,1,-1
 769.53515625 1163 l 5,2,-1
 616.53515625 1163 l 5,3,-1
 900.53515625 1536 l 1,0,-1
EndSplineSet
EndChar

